{
  "version": "1.1.6",
  "modules": [
    {
      "id": 1,
      "plugin": "Core",
      "version": "1.1.6",
      "model": "AudioInterface",
      "params": [],
      "leftModuleId": 10,
      "rightModuleId": 88,
      "data": {
        "audio": {
          "driver": 4,
          "offset": 0,
          "maxChannels": 8,
          "sampleRate": 48000,
          "blockSize": 512
        }
      },
      "pos": [
        98,
        1
      ]
    },
    {
      "id": 8,
      "plugin": "MindMeldModular",
      "version": "1.1.12",
      "model": "MixMasterJr",
      "params": [
        {
          "id": 0,
          "value": 1.0
        },
        {
          "id": 1,
          "value": 1.0
        },
        {
          "id": 2,
          "value": 1.0
        },
        {
          "id": 3,
          "value": 1.0
        },
        {
          "id": 4,
          "value": 1.00377977
        },
        {
          "id": 5,
          "value": 1.00377977
        },
        {
          "id": 6,
          "value": 1.0
        },
        {
          "id": 7,
          "value": 1.0
        },
        {
          "id": 8,
          "value": 1.0
        },
        {
          "id": 9,
          "value": 1.0
        },
        {
          "id": 10,
          "value": 0.5
        },
        {
          "id": 11,
          "value": 0.5
        },
        {
          "id": 12,
          "value": 0.5
        },
        {
          "id": 13,
          "value": 0.465499848
        },
        {
          "id": 14,
          "value": 0.563000262
        },
        {
          "id": 15,
          "value": 0.534500122
        },
        {
          "id": 16,
          "value": 0.5
        },
        {
          "id": 17,
          "value": 0.5
        },
        {
          "id": 18,
          "value": 0.5
        },
        {
          "id": 19,
          "value": 0.5
        },
        {
          "id": 20,
          "value": 0.0
        },
        {
          "id": 21,
          "value": 0.0
        },
        {
          "id": 22,
          "value": 0.0
        },
        {
          "id": 23,
          "value": 0.0
        },
        {
          "id": 24,
          "value": 0.0
        },
        {
          "id": 25,
          "value": 0.0
        },
        {
          "id": 26,
          "value": 0.0
        },
        {
          "id": 27,
          "value": 0.0
        },
        {
          "id": 28,
          "value": 0.0
        },
        {
          "id": 29,
          "value": 0.0
        },
        {
          "id": 30,
          "value": 0.0
        },
        {
          "id": 31,
          "value": 0.0
        },
        {
          "id": 32,
          "value": 0.0
        },
        {
          "id": 33,
          "value": 0.0
        },
        {
          "id": 34,
          "value": 0.0
        },
        {
          "id": 35,
          "value": 0.0
        },
        {
          "id": 36,
          "value": 0.0
        },
        {
          "id": 37,
          "value": 0.0
        },
        {
          "id": 38,
          "value": 0.0
        },
        {
          "id": 39,
          "value": 0.0
        },
        {
          "id": 40,
          "value": 0.0
        },
        {
          "id": 41,
          "value": 0.0
        },
        {
          "id": 42,
          "value": 0.0
        },
        {
          "id": 43,
          "value": 1.0
        },
        {
          "id": 44,
          "value": 0.0
        },
        {
          "id": 45,
          "value": 0.0
        },
        {
          "id": 46,
          "value": 0.0
        },
        {
          "id": 47,
          "value": 0.0
        },
        {
          "id": 48,
          "value": 0.0
        },
        {
          "id": 49,
          "value": 0.0
        },
        {
          "id": 50,
          "value": 0.0
        },
        {
          "id": 51,
          "value": 0.0
        },
        {
          "id": 52,
          "value": 13.0
        },
        {
          "id": 53,
          "value": 13.0
        },
        {
          "id": 54,
          "value": 13.0
        },
        {
          "id": 55,
          "value": 13.0
        },
        {
          "id": 56,
          "value": 13.0
        },
        {
          "id": 57,
          "value": 13.0
        },
        {
          "id": 58,
          "value": 13.0
        },
        {
          "id": 59,
          "value": 13.0
        },
        {
          "id": 60,
          "value": 20010.0
        },
        {
          "id": 61,
          "value": 20010.0
        },
        {
          "id": 62,
          "value": 20010.0
        },
        {
          "id": 63,
          "value": 20010.0
        },
        {
          "id": 64,
          "value": 20010.0
        },
        {
          "id": 65,
          "value": 20010.0
        },
        {
          "id": 66,
          "value": 20010.0
        },
        {
          "id": 67,
          "value": 20010.0
        },
        {
          "id": 68,
          "value": 13.0
        },
        {
          "id": 69,
          "value": 13.0
        },
        {
          "id": 70,
          "value": 20010.0
        },
        {
          "id": 71,
          "value": 20010.0
        }
      ],
      "leftModuleId": 11,
      "rightModuleId": 9,
      "data": {
        "trackLabels": "KICKSNARHAT BASSLEADLDDLLEAD-08-GRP1GRP2",
        "panLawMono": 1,
        "panLawStereo": 1,
        "directOutsMode": 3,
        "directOutsSkipGroupedTracks": 0,
        "auxSendsMode": 3,
        "groupsControlTrackSendLevels": 0,
        "auxReturnsMutedWhenMainSolo": 0,
        "auxReturnsSolosMuteDry": 0,
        "chainMode": 0,
        "colorAndCloak": 117440512,
        "symmetricalFade": false,
        "fadeCvOutsWithVolCv": false,
        "linkBitMask": 0,
        "filterPos": 1,
        "groupedAuxReturnFeedbackProtection": 1,
        "ecoMode": 65535,
        "faders": [
          1.0,
          1.0,
          1.0,
          1.0,
          1.00377977,
          1.00377977,
          1.0,
          1.0,
          1.0,
          1.0
        ],
        "momentaryCvButtons": 1,
        "masterFaderScalesSends": 0,
        "linearVolCvInputs": 0,
        "id_t0_gainAdjust": 1.83654618,
        "id_t0_fadeRate": 0.0,
        "id_t0_fadeProfile": 0.0,
        "id_t0_directOutsMode": 3,
        "id_t0_auxSendsMode": 3,
        "id_t0_panLawStereo": 1,
        "id_t0_vuColorThemeLocal": 0,
        "id_t0_filterPos": 1,
        "id_t0_dispColorLocal": 0,
        "id_t0_polyStereo": 0,
        "id_t0_panCvLevel": 1.0,
        "id_t0_stereoWidth": 1.0,
        "id_t0_invertInput": 0,
        "id_t1_gainAdjust": 0.524800777,
        "id_t1_fadeRate": 0.0,
        "id_t1_fadeProfile": 0.0,
        "id_t1_directOutsMode": 3,
        "id_t1_auxSendsMode": 3,
        "id_t1_panLawStereo": 1,
        "id_t1_vuColorThemeLocal": 0,
        "id_t1_filterPos": 1,
        "id_t1_dispColorLocal": 0,
        "id_t1_polyStereo": 0,
        "id_t1_panCvLevel": 1.0,
        "id_t1_stereoWidth": 1.0,
        "id_t1_invertInput": 0,
        "id_t2_gainAdjust": 0.223866686,
        "id_t2_fadeRate": 0.0,
        "id_t2_fadeProfile": 0.0,
        "id_t2_directOutsMode": 3,
        "id_t2_auxSendsMode": 3,
        "id_t2_panLawStereo": 1,
        "id_t2_vuColorThemeLocal": 0,
        "id_t2_filterPos": 1,
        "id_t2_dispColorLocal": 0,
        "id_t2_polyStereo": 0,
        "id_t2_panCvLevel": 1.0,
        "id_t2_stereoWidth": 1.0,
        "id_t2_invertInput": 0,
        "id_t3_gainAdjust": 0.539506197,
        "id_t3_fadeRate": 0.0,
        "id_t3_fadeProfile": 0.0,
        "id_t3_directOutsMode": 3,
        "id_t3_auxSendsMode": 3,
        "id_t3_panLawStereo": 1,
        "id_t3_vuColorThemeLocal": 0,
        "id_t3_filterPos": 1,
        "id_t3_dispColorLocal": 0,
        "id_t3_polyStereo": 0,
        "id_t3_panCvLevel": 1.0,
        "id_t3_stereoWidth": 1.0,
        "id_t3_invertInput": 0,
        "id_t4_gainAdjust": 0.480837017,
        "id_t4_fadeRate": 0.0,
        "id_t4_fadeProfile": 0.0,
        "id_t4_directOutsMode": 3,
        "id_t4_auxSendsMode": 3,
        "id_t4_panLawStereo": 1,
        "id_t4_vuColorThemeLocal": 0,
        "id_t4_filterPos": 1,
        "id_t4_dispColorLocal": 0,
        "id_t4_polyStereo": 0,
        "id_t4_panCvLevel": 1.0,
        "id_t4_stereoWidth": 1.0,
        "id_t4_invertInput": 0,
        "id_t5_gainAdjust": 0.522395551,
        "id_t5_fadeRate": 0.0,
        "id_t5_fadeProfile": 0.0,
        "id_t5_directOutsMode": 3,
        "id_t5_auxSendsMode": 3,
        "id_t5_panLawStereo": 1,
        "id_t5_vuColorThemeLocal": 0,
        "id_t5_filterPos": 1,
        "id_t5_dispColorLocal": 0,
        "id_t5_polyStereo": 0,
        "id_t5_panCvLevel": 1.0,
        "id_t5_stereoWidth": 1.0,
        "id_t5_invertInput": 0,
        "id_t6_gainAdjust": 0.472058952,
        "id_t6_fadeRate": 0.0,
        "id_t6_fadeProfile": 0.0,
        "id_t6_directOutsMode": 3,
        "id_t6_auxSendsMode": 3,
        "id_t6_panLawStereo": 1,
        "id_t6_vuColorThemeLocal": 0,
        "id_t6_filterPos": 1,
        "id_t6_dispColorLocal": 0,
        "id_t6_polyStereo": 0,
        "id_t6_panCvLevel": 1.0,
        "id_t6_stereoWidth": 1.0,
        "id_t6_invertInput": 0,
        "id_t7_gainAdjust": 1.0,
        "id_t7_fadeRate": 0.0,
        "id_t7_fadeProfile": 0.0,
        "id_t7_directOutsMode": 3,
        "id_t7_auxSendsMode": 3,
        "id_t7_panLawStereo": 1,
        "id_t7_vuColorThemeLocal": 0,
        "id_t7_filterPos": 1,
        "id_t7_dispColorLocal": 0,
        "id_t7_polyStereo": 0,
        "id_t7_panCvLevel": 1.0,
        "id_t7_stereoWidth": 1.0,
        "id_t7_invertInput": 0,
        "id_g0_fadeRate": 0.0,
        "id_g0_fadeProfile": 0.0,
        "id_g0_directOutsMode": 3,
        "id_g0_auxSendsMode": 3,
        "id_g0_panLawStereo": 1,
        "id_g0_vuColorThemeLocal": 0,
        "id_g0_filterPos": 1,
        "id_g0_dispColorLocal": 0,
        "id_g0_panCvLevel": 1.0,
        "id_g0_stereoWidth": 1.0,
        "id_g1_fadeRate": 0.0,
        "id_g1_fadeProfile": 0.0,
        "id_g1_directOutsMode": 3,
        "id_g1_auxSendsMode": 3,
        "id_g1_panLawStereo": 1,
        "id_g1_vuColorThemeLocal": 0,
        "id_g1_filterPos": 1,
        "id_g1_dispColorLocal": 0,
        "id_g1_panCvLevel": 1.0,
        "id_g1_stereoWidth": 1.0,
        "dcBlock": false,
        "clipping": 0,
        "fadeRate": 0.0,
        "fadeProfile": 0.0,
        "vuColorThemeLocal": 0,
        "dispColorLocal": 0,
        "chainOnly": 0,
        "dimGain": 0.251190007,
        "masterLabel": "MASTER"
      },
      "pos": [
        20,
        1
      ]
    },
    {
      "id": 9,
      "plugin": "MindMeldModular",
      "version": "1.1.12",
      "model": "AuxExpanderJr",
      "params": [
        {
          "id": 0,
          "value": 0.0
        },
        {
          "id": 1,
          "value": 0.0
        },
        {
          "id": 2,
          "value": 0.0
        },
        {
          "id": 3,
          "value": 0.0
        },
        {
          "id": 4,
          "value": 0.148499593
        },
        {
          "id": 5,
          "value": 0.0
        },
        {
          "id": 6,
          "value": 0.0
        },
        {
          "id": 7,
          "value": 0.0
        },
        {
          "id": 8,
          "value": 0.0
        },
        {
          "id": 9,
          "value": 0.0
        },
        {
          "id": 10,
          "value": 0.0
        },
        {
          "id": 11,
          "value": 0.0
        },
        {
          "id": 12,
          "value": 0.42149964
        },
        {
          "id": 13,
          "value": 0.0
        },
        {
          "id": 14,
          "value": 0.0
        },
        {
          "id": 15,
          "value": 0.0
        },
        {
          "id": 16,
          "value": 0.643500149
        },
        {
          "id": 17,
          "value": 0.0
        },
        {
          "id": 18,
          "value": 0.0
        },
        {
          "id": 19,
          "value": 0.0
        },
        {
          "id": 20,
          "value": 0.37800014
        },
        {
          "id": 21,
          "value": 0.0
        },
        {
          "id": 22,
          "value": 0.0
        },
        {
          "id": 23,
          "value": 0.0
        },
        {
          "id": 24,
          "value": 0.499500155
        },
        {
          "id": 25,
          "value": 0.0
        },
        {
          "id": 26,
          "value": 0.0
        },
        {
          "id": 27,
          "value": 0.0
        },
        {
          "id": 28,
          "value": 0.520500124
        },
        {
          "id": 29,
          "value": 0.0
        },
        {
          "id": 30,
          "value": 0.0
        },
        {
          "id": 31,
          "value": 0.0
        },
        {
          "id": 32,
          "value": 0.0
        },
        {
          "id": 33,
          "value": 0.0
        },
        {
          "id": 34,
          "value": 0.0
        },
        {
          "id": 35,
          "value": 0.0
        },
        {
          "id": 36,
          "value": 0.0
        },
        {
          "id": 37,
          "value": 0.0
        },
        {
          "id": 38,
          "value": 0.0
        },
        {
          "id": 39,
          "value": 0.0
        },
        {
          "id": 40,
          "value": 0.0
        },
        {
          "id": 41,
          "value": 0.0
        },
        {
          "id": 42,
          "value": 0.0
        },
        {
          "id": 43,
          "value": 0.0
        },
        {
          "id": 44,
          "value": 0.0
        },
        {
          "id": 45,
          "value": 0.0
        },
        {
          "id": 46,
          "value": 0.0
        },
        {
          "id": 47,
          "value": 0.0
        },
        {
          "id": 48,
          "value": 0.0
        },
        {
          "id": 49,
          "value": 0.0
        },
        {
          "id": 50,
          "value": 0.0
        },
        {
          "id": 51,
          "value": 0.0
        },
        {
          "id": 52,
          "value": 0.0
        },
        {
          "id": 53,
          "value": 0.0
        },
        {
          "id": 54,
          "value": 0.0
        },
        {
          "id": 55,
          "value": 0.0
        },
        {
          "id": 56,
          "value": 0.0
        },
        {
          "id": 57,
          "value": 0.0
        },
        {
          "id": 58,
          "value": 0.0
        },
        {
          "id": 59,
          "value": 0.0
        },
        {
          "id": 60,
          "value": 0.0
        },
        {
          "id": 61,
          "value": 0.0
        },
        {
          "id": 62,
          "value": 1.0
        },
        {
          "id": 63,
          "value": 1.0
        },
        {
          "id": 64,
          "value": 1.0
        },
        {
          "id": 65,
          "value": 1.0
        },
        {
          "id": 66,
          "value": 0.5
        },
        {
          "id": 67,
          "value": 0.5
        },
        {
          "id": 68,
          "value": 0.5
        },
        {
          "id": 69,
          "value": 0.5
        },
        {
          "id": 70,
          "value": 1.0
        },
        {
          "id": 71,
          "value": 1.0
        },
        {
          "id": 72,
          "value": 1.0
        },
        {
          "id": 73,
          "value": 1.0
        }
      ],
      "leftModuleId": 8,
      "rightModuleId": 10,
      "data": {
        "directOutsModeLocal": 50529027,
        "panLawStereoLocal": 16843009,
        "vuColorThemeLocal": 0,
        "dispColorAuxLocal": [
          0,
          0,
          0,
          0
        ],
        "auxFadeRatesAndProfiles": [
          0.0,
          0.0,
          0.0,
          0.0,
          0.0,
          0.0,
          0.0,
          0.0
        ],
        "auxLabels": "AUXAAUXBAUXCAUXD",
        "id_x0_hpfCutoffFreq": 13.0,
        "id_x0_lpfCutoffFreq": 20010.0,
        "id_x0_stereoWidth": 1.0,
        "id_x1_hpfCutoffFreq": 13.0,
        "id_x1_lpfCutoffFreq": 20010.0,
        "id_x1_stereoWidth": 1.0,
        "id_x2_hpfCutoffFreq": 13.0,
        "id_x2_lpfCutoffFreq": 20010.0,
        "id_x2_stereoWidth": 1.0,
        "id_x3_hpfCutoffFreq": 13.0,
        "id_x3_lpfCutoffFreq": 20010.0,
        "id_x3_stereoWidth": 1.0,
        "panCvLevels": [
          1.0,
          1.0,
          1.0,
          1.0
        ]
      },
      "pos": [
        56,
        1
      ]
    },
    {
      "id": 10,
      "plugin": "Valley",
      "version": "1.1.7",
      "model": "Plateau",
      "params": [
        {
          "id": 0,
          "value": 0.0370000117
        },
        {
          "id": 1,
          "value": 1.0
        },
        {
          "id": 2,
          "value": 0.0
        },
        {
          "id": 3,
          "value": 10.0
        },
        {
          "id": 4,
          "value": 10.0
        },
        {
          "id": 5,
          "value": 0.425000072
        },
        {
          "id": 6,
          "value": 10.0
        },
        {
          "id": 7,
          "value": 0.571547389
        },
        {
          "id": 8,
          "value": 9.22000027
        },
        {
          "id": 9,
          "value": 9.02499962
        },
        {
          "id": 10,
          "value": 0.0
        },
        {
          "id": 11,
          "value": 0.5
        },
        {
          "id": 12,
          "value": 0.5
        },
        {
          "id": 13,
          "value": 0.0
        },
        {
          "id": 14,
          "value": 0.0
        },
        {
          "id": 15,
          "value": 0.0
        },
        {
          "id": 16,
          "value": 0.0
        },
        {
          "id": 17,
          "value": 0.0
        },
        {
          "id": 18,
          "value": 0.0
        },
        {
          "id": 19,
          "value": 0.0
        },
        {
          "id": 20,
          "value": 0.0
        },
        {
          "id": 21,
          "value": 0.0
        },
        {
          "id": 22,
          "value": 0.0
        },
        {
          "id": 23,
          "value": 0.0
        },
        {
          "id": 24,
          "value": 0.0
        },
        {
          "id": 25,
          "value": 0.0
        },
        {
          "id": 26,
          "value": 0.0
        },
        {
          "id": 27,
          "value": 0.0
        },
        {
          "id": 28,
          "value": 0.0
        },
        {
          "id": 29,
          "value": 0.0
        },
        {
          "id": 30,
          "value": 1.0
        }
      ],
      "leftModuleId": 9,
      "rightModuleId": 1,
      "data": {
        "frozen": false,
        "freezeToggle": false,
        "panelStyle": 0,
        "tuned": 0,
        "diffuseInput": 1,
        "preDelayCVSens": 0,
        "inputSensitivity": 0,
        "outputSaturation": 0
      },
      "pos": [
        86,
        1
      ]
    },
    {
      "id": 11,
      "plugin": "ImpromptuModular",
      "version": "1.1.9",
      "model": "Clocked",
      "params": [
        {
          "id": 0,
          "value": 120.0
        },
        {
          "id": 1,
          "value": -2.0
        },
        {
          "id": 2,
          "value": -2.0
        },
        {
          "id": 3,
          "value": -5.0
        },
        {
          "id": 4,
          "value": 0.0
        },
        {
          "id": 5,
          "value": 0.0
        },
        {
          "id": 6,
          "value": 0.0
        },
        {
          "id": 7,
          "value": 0.248999968
        },
        {
          "id": 8,
          "value": 0.5
        },
        {
          "id": 9,
          "value": 0.5
        },
        {
          "id": 10,
          "value": 0.5
        },
        {
          "id": 11,
          "value": 0.5
        },
        {
          "id": 12,
          "value": 0.0
        },
        {
          "id": 13,
          "value": 0.0
        },
        {
          "id": 14,
          "value": 0.0
        },
        {
          "id": 15,
          "value": 0.0
        },
        {
          "id": 16,
          "value": 5.0
        },
        {
          "id": 17,
          "value": 2.0
        },
        {
          "id": 18,
          "value": 0.0
        },
        {
          "id": 19,
          "value": 0.0
        }
      ],
      "rightModuleId": 8,
      "data": {
        "panelTheme": 0,
        "running": true,
        "displayDelayNoteMode": true,
        "bpmDetectionMode": false,
        "resetOnStartStop": 0,
        "ppqn": 2,
        "resetClockOutputsHigh": true,
        "momentaryRunInput": true,
        "clockMaster": false
      },
      "pos": [
        0,
        1
      ]
    },
    {
      "id": 21,
      "plugin": "Fundamental",
      "version": "1.4.0",
      "model": "Noise",
      "params": [],
      "leftModuleId": 121,
      "rightModuleId": 59,
      "pos": [
        3,
        3
      ]
    },
    {
      "id": 23,
      "plugin": "AlrightDevices",
      "version": "1.0.3",
      "model": "Chronoblob2",
      "params": [
        {
          "id": 0,
          "value": 0.257999986
        },
        {
          "id": 1,
          "value": 0.5
        },
        {
          "id": 2,
          "value": 1.0
        },
        {
          "id": 3,
          "value": 0.0
        },
        {
          "id": 4,
          "value": 0.0
        },
        {
          "id": 5,
          "value": 0.257999837
        },
        {
          "id": 6,
          "value": 0.0
        },
        {
          "id": 7,
          "value": 0.0
        },
        {
          "id": 8,
          "value": 0.0
        },
        {
          "id": 9,
          "value": 0.0
        }
      ],
      "leftModuleId": 39,
      "data": {
        "delay_mode": 1,
        "hold_behavior": 0,
        "sync_prescaler": 6
      },
      "pos": [
        53,
        3
      ]
    },
    {
      "id": 28,
      "plugin": "Hora-treasureFree",
      "version": "1.0.3",
      "model": "SnareDrum-VCV",
      "params": [
        {
          "id": 0,
          "value": 0.5
        },
        {
          "id": 1,
          "value": 1500.0
        },
        {
          "id": 2,
          "value": 0.0
        },
        {
          "id": 3,
          "value": 0.0
        },
        {
          "id": 4,
          "value": 0.00999999978
        },
        {
          "id": 5,
          "value": 0.603999853
        },
        {
          "id": 6,
          "value": 0.800000012
        },
        {
          "id": 7,
          "value": 0.0
        },
        {
          "id": 8,
          "value": 0.50999999
        },
        {
          "id": 9,
          "value": 0.677399993
        },
        {
          "id": 10,
          "value": 0.800000012
        },
        {
          "id": 11,
          "value": 0.800000012
        },
        {
          "id": 12,
          "value": 0.0
        },
        {
          "id": 13,
          "value": 0.582999766
        }
      ],
      "leftModuleId": 119,
      "pos": [
        5,
        2
      ]
    },
    {
      "id": 31,
      "plugin": "CountModula",
      "version": "1.13.0",
      "model": "Euclid",
      "params": [
        {
          "id": 0,
          "value": 7.0
        },
        {
          "id": 1,
          "value": 0.441999912
        },
        {
          "id": 2,
          "value": 0.0
        },
        {
          "id": 3,
          "value": 0.0
        },
        {
          "id": 4,
          "value": 0.0
        },
        {
          "id": 5,
          "value": 0.0
        },
        {
          "id": 6,
          "value": 0.0
        },
        {
          "id": 7,
          "value": 0.0
        },
        {
          "id": 8,
          "value": 0.0
        }
      ],
      "leftModuleId": 105,
      "rightModuleId": 51,
      "data": {
        "moduleVersion": 1,
        "currentStep": 2,
        "shiftPosition": 0,
        "clockState": false,
        "runState": true,
        "theme": 1
      },
      "pos": [
        66,
        2
      ]
    },
    {
      "id": 32,
      "plugin": "AlrightDevices",
      "version": "1.0.3",
      "model": "Chronoblob2",
      "params": [
        {
          "id": 0,
          "value": 0.141000018
        },
        {
          "id": 1,
          "value": 0.645500183
        },
        {
          "id": 2,
          "value": 1.0
        },
        {
          "id": 3,
          "value": 0.0
        },
        {
          "id": 4,
          "value": 0.0
        },
        {
          "id": 5,
          "value": 0.338999867
        },
        {
          "id": 6,
          "value": 0.0
        },
        {
          "id": 7,
          "value": 0.0
        },
        {
          "id": 8,
          "value": 0.0
        },
        {
          "id": 9,
          "value": 0.0
        }
      ],
      "leftModuleId": 50,
      "data": {
        "delay_mode": 1,
        "hold_behavior": 0,
        "sync_prescaler": 6
      },
      "pos": [
        132,
        2
      ]
    },
    {
      "id": 34,
      "plugin": "VultModulesFree",
      "version": "1.14",
      "model": "Spank",
      "params": [
        {
          "id": 0,
          "value": 0.0
        },
        {
          "id": 1,
          "value": 0.00599999819
        },
        {
          "id": 2,
          "value": 0.0509999916
        },
        {
          "id": 3,
          "value": 0.0400000922
        },
        {
          "id": 4,
          "value": 1.0
        },
        {
          "id": 5,
          "value": 0.0640000477
        },
        {
          "id": 6,
          "value": 0.0
        }
      ],
      "leftModuleId": 59,
      "rightModuleId": 35,
      "pos": [
        10,
        3
      ]
    },
    {
      "id": 35,
      "plugin": "Fundamental",
      "version": "1.4.0",
      "model": "VCA-1",
      "params": [
        {
          "id": 0,
          "value": 1.0
        },
        {
          "id": 1,
          "value": 1.0
        }
      ],
      "leftModuleId": 34,
      "rightModuleId": 36,
      "pos": [
        20,
        3
      ]
    },
    {
      "id": 36,
      "plugin": "Fundamental",
      "version": "1.4.0",
      "model": "Scope",
      "params": [
        {
          "id": 0,
          "value": 0.0
        },
        {
          "id": 1,
          "value": 0.0
        },
        {
          "id": 2,
          "value": 0.0
        },
        {
          "id": 3,
          "value": 0.0
        },
        {
          "id": 4,
          "value": 11.6299963
        },
        {
          "id": 5,
          "value": 0.0
        },
        {
          "id": 6,
          "value": 0.0
        },
        {
          "id": 7,
          "value": 0.0
        }
      ],
      "leftModuleId": 35,
      "rightModuleId": 39,
      "data": {
        "lissajous": 0,
        "external": 0
      },
      "pos": [
        23,
        3
      ]
    },
    {
      "id": 39,
      "plugin": "LindenbergResearch",
      "version": "1.3.3",
      "model": "DIODE_VCF",
      "params": [
        {
          "id": 0,
          "value": 0.919500053
        },
        {
          "id": 1,
          "value": 0.343500167
        },
        {
          "id": 2,
          "value": 0.411000967
        },
        {
          "id": 3,
          "value": 0.0
        },
        {
          "id": 4,
          "value": 0.0
        },
        {
          "id": 5,
          "value": 0.0
        }
      ],
      "leftModuleId": 36,
      "rightModuleId": 23,
      "gestaltID": 1,
      "gradient": true,
      "patina": false,
      "patina_i_x": false,
      "patina_i_y": false,
      "patina_a_x": 1014.23413,
      "patina_a_y": 266.009552,
      "overlay": false,
      "overlay_r": 0.147897542,
      "overlay_g": 0.365222752,
      "overlay_b": 0.454827547,
      "overlay_a": 0.436687469,
      "pos": [
        36,
        3
      ]
    },
    {
      "id": 43,
      "plugin": "AudibleInstruments",
      "version": "1.5.0",
      "model": "Plaits",
      "params": [
        {
          "id": 0,
          "value": 0.0
        },
        {
          "id": 1,
          "value": 0.0
        },
        {
          "id": 2,
          "value": 0.0
        },
        {
          "id": 3,
          "value": 0.614001334
        },
        {
          "id": 4,
          "value": 0.789000213
        },
        {
          "id": 5,
          "value": 0.788500369
        },
        {
          "id": 6,
          "value": 0.0
        },
        {
          "id": 7,
          "value": 0.0
        },
        {
          "id": 8,
          "value": 0.0
        },
        {
          "id": 9,
          "value": 0.5
        },
        {
          "id": 10,
          "value": 0.5
        }
      ],
      "leftModuleId": 45,
      "rightModuleId": 44,
      "data": {
        "lowCpu": false,
        "model": 0
      },
      "pos": [
        106,
        2
      ]
    },
    {
      "id": 44,
      "plugin": "Fundamental",
      "version": "1.4.0",
      "model": "VCA-1",
      "params": [
        {
          "id": 0,
          "value": 1.0
        },
        {
          "id": 1,
          "value": 1.0
        }
      ],
      "leftModuleId": 43,
      "rightModuleId": 52,
      "pos": [
        118,
        2
      ]
    },
    {
      "id": 45,
      "plugin": "VultModulesFree",
      "version": "1.14",
      "model": "Slap",
      "params": [
        {
          "id": 0,
          "value": 0.178500086
        },
        {
          "id": 1,
          "value": 0.287000239
        },
        {
          "id": 2,
          "value": 0.0
        },
        {
          "id": 3,
          "value": 0.463999867
        },
        {
          "id": 4,
          "value": 0.0
        },
        {
          "id": 5,
          "value": 0.411000013
        },
        {
          "id": 6,
          "value": 0.0
        },
        {
          "id": 7,
          "value": 0.0
        },
        {
          "id": 8,
          "value": 0.0
        }
      ],
      "leftModuleId": 51,
      "rightModuleId": 43,
      "pos": [
        96,
        2
      ]
    },
    {
      "id": 50,
      "plugin": "StudioSixPlusOne",
      "version": "1.2.1",
      "model": "LaLa",
      "params": [
        {
          "id": 0,
          "value": 0.525313258
        },
        {
          "id": 1,
          "value": 0.458999574
        }
      ],
      "leftModuleId": 52,
      "rightModuleId": 32,
      "pos": [
        129,
        2
      ]
    },
    {
      "id": 51,
      "plugin": "VultModulesFree",
      "version": "1.14",
      "model": "Spank",
      "params": [
        {
          "id": 0,
          "value": 0.0194999985
        },
        {
          "id": 1,
          "value": 0.493499994
        },
        {
          "id": 2,
          "value": 0.5
        },
        {
          "id": 3,
          "value": 0.0
        },
        {
          "id": 4,
          "value": 0.0
        },
        {
          "id": 5,
          "value": 0.0
        },
        {
          "id": 6,
          "value": 0.0
        }
      ],
      "leftModuleId": 31,
      "rightModuleId": 45,
      "pos": [
        86,
        2
      ]
    },
    {
      "id": 52,
      "plugin": "FrozenWasteland",
      "version": "1.17.0",
      "model": "BPMLFO",
      "params": [
        {
          "id": 0,
          "value": 1.0
        },
        {
          "id": 1,
          "value": 0.0
        },
        {
          "id": 2,
          "value": 5.0
        },
        {
          "id": 3,
          "value": 0.0
        },
        {
          "id": 4,
          "value": 0.0
        },
        {
          "id": 5,
          "value": 0.0
        },
        {
          "id": 6,
          "value": 0.0
        },
        {
          "id": 7,
          "value": 1.0
        },
        {
          "id": 8,
          "value": 1.0
        },
        {
          "id": 9,
          "value": 1.0
        }
      ],
      "leftModuleId": 44,
      "rightModuleId": 50,
      "pos": [
        121,
        2
      ]
    },
    {
      "id": 59,
      "plugin": "CountModula",
      "version": "1.13.0",
      "model": "Chances",
      "params": [
        {
          "id": 0,
          "value": 0.319499969
        },
        {
          "id": 1,
          "value": 2.0
        }
      ],
      "leftModuleId": 21,
      "rightModuleId": 34,
      "data": {
        "moduleVersion": 1.10000002,
        "theme": 1
      },
      "pos": [
        6,
        3
      ]
    },
    {
      "id": 63,
      "plugin": "Befaco",
      "version": "1.0.1",
      "model": "Rampage",
      "params": [
        {
          "id": 0,
          "value": 0.0
        },
        {
          "id": 1,
          "value": 0.0
        },
        {
          "id": 2,
          "value": 1.0
        },
        {
          "id": 3,
          "value": 0.452000022
        },
        {
          "id": 4,
          "value": 0.0
        },
        {
          "id": 5,
          "value": 0.0
        },
        {
          "id": 6,
          "value": 0.0449999981
        },
        {
          "id": 7,
          "value": 0.0929999873
        },
        {
          "id": 8,
          "value": 0.179999948
        },
        {
          "id": 9,
          "value": 0.446999699
        },
        {
          "id": 10,
          "value": 0.0
        },
        {
          "id": 11,
          "value": 0.0
        },
        {
          "id": 12,
          "value": 0.5
        }
      ],
      "leftModuleId": 72,
      "rightModuleId": 84,
      "pos": [
        90,
        3
      ]
    },
    {
      "id": 68,
      "plugin": "Fundamental",
      "version": "1.4.0",
      "model": "Octave",
      "params": [
        {
          "id": 0,
          "value": -1.0
        }
      ],
      "leftModuleId": 130,
      "rightModuleId": 72,
      "pos": [
        81,
        3
      ]
    },
    {
      "id": 72,
      "plugin": "Fundamental",
      "version": "1.4.0",
      "model": "VCO2",
      "params": [
        {
          "id": 0,
          "value": 1.0
        },
        {
          "id": 1,
          "value": 1.0
        },
        {
          "id": 2,
          "value": 0.0
        },
        {
          "id": 3,
          "value": 1.91699982
        },
        {
          "id": 4,
          "value": 1.0
        }
      ],
      "leftModuleId": 68,
      "rightModuleId": 63,
      "pos": [
        84,
        3
      ]
    },
    {
      "id": 74,
      "plugin": "VultModulesFree",
      "version": "1.14",
      "model": "Debriatus",
      "params": [
        {
          "id": 0,
          "value": 0.146999985
        },
        {
          "id": 1,
          "value": 0.0
        },
        {
          "id": 2,
          "value": 0.470999926
        },
        {
          "id": 3,
          "value": 0.181500018
        },
        {
          "id": 4,
          "value": 0.0
        },
        {
          "id": 5,
          "value": 0.0
        },
        {
          "id": 6,
          "value": 0.0
        },
        {
          "id": 7,
          "value": 0.0
        }
      ],
      "leftModuleId": 83,
      "rightModuleId": 80,
      "pos": [
        119,
        3
      ]
    },
    {
      "id": 80,
      "plugin": "StudioSixPlusOne",
      "version": "1.2.1",
      "model": "LaLa",
      "params": [
        {
          "id": 0,
          "value": 0.584375441
        },
        {
          "id": 1,
          "value": 0.147000045
        }
      ],
      "leftModuleId": 74,
      "rightModuleId": 87,
      "pos": [
        129,
        3
      ]
    },
    {
      "id": 81,
      "plugin": "Fundamental",
      "version": "1.4.0",
      "model": "VCA-1",
      "params": [
        {
          "id": 0,
          "value": 1.0
        },
        {
          "id": 1,
          "value": 1.0
        }
      ],
      "leftModuleId": 84,
      "rightModuleId": 83,
      "pos": [
        111,
        3
      ]
    },
    {
      "id": 83,
      "plugin": "Befaco",
      "version": "1.0.1",
      "model": "DualAtenuverter",
      "params": [
        {
          "id": 0,
          "value": 0.489000767
        },
        {
          "id": 1,
          "value": 3.24000287
        },
        {
          "id": 2,
          "value": 0.0
        },
        {
          "id": 3,
          "value": 0.0
        }
      ],
      "leftModuleId": 81,
      "rightModuleId": 74,
      "pos": [
        114,
        3
      ]
    },
    {
      "id": 84,
      "plugin": "Fundamental",
      "version": "1.4.0",
      "model": "VCA-1",
      "params": [
        {
          "id": 0,
          "value": 1.0
        },
        {
          "id": 1,
          "value": 1.0
        }
      ],
      "leftModuleId": 63,
      "rightModuleId": 81,
      "pos": [
        108,
        3
      ]
    },
    {
      "id": 85,
      "plugin": "Core",
      "version": "1.1.6",
      "model": "MIDIToCVInterface",
      "params": [],
      "leftModuleId": 88,
      "rightModuleId": 86,
      "data": {
        "channels": 1,
        "polyMode": 0,
        "clockDivision": 24,
        "lastPitch": 8192,
        "lastMod": 0,
        "midi": {
          "driver": -11,
          "deviceName": "QWERTY keyboard (US)",
          "channel": -1
        }
      },
      "pos": [
        117,
        1
      ]
    },
    {
      "id": 86,
      "plugin": "Skylights",
      "version": "1.0.2",
      "model": "SkWhatnoteCV",
      "params": [],
      "leftModuleId": 85,
      "pos": [
        125,
        1
      ]
    },
    {
      "id": 87,
      "plugin": "AlrightDevices",
      "version": "1.0.3",
      "model": "Chronoblob2",
      "params": [
        {
          "id": 0,
          "value": 0.0
        },
        {
          "id": 1,
          "value": 0.306499988
        },
        {
          "id": 2,
          "value": 0.594999909
        },
        {
          "id": 3,
          "value": 0.0
        },
        {
          "id": 4,
          "value": 0.0
        },
        {
          "id": 5,
          "value": 0.101999983
        },
        {
          "id": 6,
          "value": 0.0
        },
        {
          "id": 7,
          "value": 0.0
        },
        {
          "id": 8,
          "value": 0.0
        },
        {
          "id": 9,
          "value": 0.0
        }
      ],
      "leftModuleId": 80,
      "data": {
        "delay_mode": 1,
        "hold_behavior": 0,
        "sync_prescaler": 6
      },
      "pos": [
        132,
        3
      ]
    },
    {
      "id": 88,
      "plugin": "NYSTHI",
      "version": "1.0.17",
      "model": "MasterRecorder2",
      "params": [
        {
          "id": 0,
          "value": 0.0
        },
        {
          "id": 1,
          "value": 0.0
        },
        {
          "id": 2,
          "value": 0.0
        },
        {
          "id": 3,
          "value": 1.0
        },
        {
          "id": 4,
          "value": 1.0
        },
        {
          "id": 5,
          "value": 0.0
        },
        {
          "id": 6,
          "value": 0.0
        },
        {
          "id": 7,
          "value": 0.0
        },
        {
          "id": 8,
          "value": 0.0
        },
        {
          "id": 9,
          "value": 0.00499999989
        },
        {
          "id": 10,
          "value": 0.00999999978
        },
        {
          "id": 11,
          "value": 2.0
        },
        {
          "id": 12,
          "value": 0.5
        },
        {
          "id": 13,
          "value": 0.0
        },
        {
          "id": 14,
          "value": 0.100000001
        },
        {
          "id": 15,
          "value": 0.0
        },
        {
          "id": 16,
          "value": 1.0
        }
      ],
      "leftModuleId": 1,
      "rightModuleId": 85,
      "data": {
        "wavebits": 9,
        "rms_time": 0.00100000005,
        "peak_time": 0.5,
        "m_invertphaseleft": false,
        "m_invertphaseright": false,
        "m_locklevelleftright": false,
        "m_kompressor_active": false,
        "m_distort": false,
        "m_attenuation": 1.0,
        "m_enconding_format": "wav",
        "m_encoding_bitrate": 320000,
        "m_autoenumeratefiles": true
      },
      "pos": [
        108,
        1
      ]
    },
    {
      "id": 105,
      "plugin": "Fundamental",
      "version": "1.4.0",
      "model": "Octave",
      "params": [
        {
          "id": 0,
          "value": 1.0
        }
      ],
      "leftModuleId": 129,
      "rightModuleId": 31,
      "pos": [
        63,
        2
      ]
    },
    {
      "id": 119,
      "plugin": "Bidoo",
      "version": "1.1.28",
      "model": "POUPRE",
      "params": [
        {
          "id": 0,
          "value": 0.0
        },
        {
          "id": 1,
          "value": 0.0
        },
        {
          "id": 2,
          "value": 1.0
        },
        {
          "id": 3,
          "value": 0.0
        },
        {
          "id": 4,
          "value": 1.0
        },
        {
          "id": 5,
          "value": 1.0
        },
        {
          "id": 6,
          "value": 0.0
        },
        {
          "id": 7,
          "value": 0.0
        },
        {
          "id": 8,
          "value": 0.0
        },
        {
          "id": 9,
          "value": 0.0
        }
      ],
      "rightModuleId": 28,
      "data": {
        "lastPath": "/home/ich/.Rack/patches/drums/steady_kick.wav",
        "currentChannel": 0,
        "channel0": {
          "start": 0.0,
          "len": 1.0,
          "speed": 1.0,
          "loop": false,
          "gate": 1
        },
        "channel1": {
          "start": 0.0625,
          "len": 0.0625,
          "speed": 1.0,
          "loop": false,
          "gate": 1
        },
        "channel2": {
          "start": 0.125,
          "len": 0.0625,
          "speed": 1.0,
          "loop": false,
          "gate": 1
        },
        "channel3": {
          "start": 0.1875,
          "len": 0.0625,
          "speed": 1.0,
          "loop": false,
          "gate": 1
        },
        "channel4": {
          "start": 0.25,
          "len": 0.0625,
          "speed": 1.0,
          "loop": false,
          "gate": 1
        },
        "channel5": {
          "start": 0.3125,
          "len": 0.0625,
          "speed": 1.0,
          "loop": false,
          "gate": 1
        },
        "channel6": {
          "start": 0.375,
          "len": 0.0625,
          "speed": 1.0,
          "loop": false,
          "gate": 1
        },
        "channel7": {
          "start": 0.4375,
          "len": 0.0625,
          "speed": 1.0,
          "loop": false,
          "gate": 1
        },
        "channel8": {
          "start": 0.5,
          "len": 0.0625,
          "speed": 1.0,
          "loop": false,
          "gate": 1
        },
        "channel9": {
          "start": 0.5625,
          "len": 0.0625,
          "speed": 1.0,
          "loop": false,
          "gate": 1
        },
        "channel10": {
          "start": 0.625,
          "len": 0.0625,
          "speed": 1.0,
          "loop": false,
          "gate": 1
        },
        "channel11": {
          "start": 0.6875,
          "len": 0.0625,
          "speed": 1.0,
          "loop": false,
          "gate": 1
        },
        "channel12": {
          "start": 0.75,
          "len": 0.0625,
          "speed": 1.0,
          "loop": false,
          "gate": 1
        },
        "channel13": {
          "start": 0.8125,
          "len": 0.0625,
          "speed": 1.0,
          "loop": false,
          "gate": 1
        },
        "channel14": {
          "start": 0.875,
          "len": 0.0625,
          "speed": 1.0,
          "loop": false,
          "gate": 1
        },
        "channel15": {
          "start": 0.9375,
          "len": 0.0625,
          "speed": 1.0,
          "loop": false,
          "gate": 1
        }
      },
      "pos": [
        0,
        2
      ]
    },
    {
      "id": 121,
      "plugin": "SynthKit",
      "version": "1.0.1",
      "model": "ClockDivider",
      "params": [],
      "rightModuleId": 21,
      "pos": [
        0,
        3
      ]
    },
    {
      "id": 129,
      "plugin": "23volts",
      "version": "1.1.5",
      "model": "Mem",
      "params": [],
      "rightModuleId": 105,
      "data": {
        "outputValue": -2.50377774,
        "position": 0,
        "memory": "5T0gwAAAAAA=",
        "memorySize": 128,
        "memoryByteSize": 8,
        "isWriting": true,
        "isReading": false,
        "isRandomizing": false
      },
      "pos": [
        60,
        2
      ]
    },
    {
      "id": 130,
      "plugin": "23volts",
      "version": "1.1.5",
      "model": "Mem",
      "params": [],
      "rightModuleId": 68,
      "data": {
        "outputValue": -1.25613368,
        "position": 0,
        "memory": "/cigvwAAAAA=",
        "memorySize": 128,
        "memoryByteSize": 8,
        "isWriting": true,
        "isReading": false,
        "isRandomizing": false
      },
      "pos": [
        78,
        3
      ]
    },
    {
      "id": 156,
      "plugin": "Core",
      "version": "1.1.6",
      "model": "MIDICCToCVInterface",
      "params": [],
      "leftModuleId": 159,
      "rightModuleId": 158,
      "data": {
        "ccs": [
          101,
          102,
          103,
          104,
          109,
          110,
          111,
          112,
          105,
          106,
          107,
          108,
          113,
          114,
          115,
          116
        ],
        "values": [
          0,
          0,
          0,
          0,
          0,
          0,
          0,
          0,
          0,
          0,
          0,
          0,
          0,
          0,
          0,
          0,
          0,
          0,
          0,
          0,
          0,
          0,
          0,
          0,
          0,
          0,
          0,
          0,
          0,
          0,
          0,
          0,
          0,
          0,
          0,
          0,
          0,
          0,
          0,
          0,
          0,
          0,
          0,
          0,
          0,
          0,
          0,
          0,
          0,
          0,
          0,
          0,
          0,
          0,
          0,
          0,
          0,
          0,
          0,
          0,
          0,
          0,
          0,
          0,
          0,
          0,
          0,
          0,
          0,
          0,
          0,
          0,
          0,
          0,
          0,
          0,
          0,
          0,
          0,
          0,
          0,
          0,
          0,
          0,
          0,
          0,
          0,
          0,
          0,
          0,
          0,
          0,
          0,
          0,
          0,
          0,
          0,
          0,
          0,
          0,
          0,
          127,
          127,
          127,
          127,
          109,
          1,
          0,
          29,
          127,
          126,
          127,
          1,
          0,
          0,
          0,
          0,
          0,
          0,
          0,
          0,
          0,
          0,
          0,
          0,
          0,
          0,
          0
        ],
        "midi": {
          "driver": 3,
          "channel": -1
        }
      },
      "pos": [
        76,
        0
      ]
    },
    {
      "id": 158,
      "plugin": "Fundamental",
      "version": "1.4.0",
      "model": "Unity",
      "params": [
        {
          "id": 0,
          "value": 0.0
        },
        {
          "id": 1,
          "value": 1.0
        }
      ],
      "leftModuleId": 156,
      "data": {
        "merge": false
      },
      "pos": [
        86,
        0
      ]
    },
    {
      "id": 159,
      "plugin": "Core",
      "version": "1.1.6",
      "model": "MIDITriggerToCVInterface",
      "params": [],
      "leftModuleId": 196,
      "rightModuleId": 156,
      "data": {
        "notes": [
          44,
          45,
          46,
          47,
          36,
          37,
          38,
          39,
          48,
          49,
          50,
          51,
          40,
          41,
          42,
          43
        ],
        "velocity": false,
        "midi": {
          "driver": 3,
          "channel": -1
        }
      },
      "pos": [
        66,
        0
      ]
    },
    {
      "id": 176,
      "plugin": "Bogaudio",
      "version": "1.1.35",
      "model": "Bogaudio-Switch",
      "params": [
        {
          "id": 0,
          "value": 0.0
        },
        {
          "id": 1,
          "value": 1.0
        }
      ],
      "leftModuleId": 177,
      "rightModuleId": 195,
      "data": {
        "save_latched_to_patch": false
      },
      "pos": [
        57,
        0
      ]
    },
    {
      "id": 177,
      "plugin": "Bogaudio",
      "version": "1.1.35",
      "model": "Bogaudio-Switch",
      "params": [
        {
          "id": 0,
          "value": 0.0
        },
        {
          "id": 1,
          "value": 1.0
        }
      ],
      "leftModuleId": 178,
      "rightModuleId": 176,
      "data": {
        "save_latched_to_patch": false
      },
      "pos": [
        54,
        0
      ]
    },
    {
      "id": 178,
      "plugin": "Bogaudio",
      "version": "1.1.35",
      "model": "Bogaudio-Switch",
      "params": [
        {
          "id": 0,
          "value": 0.0
        },
        {
          "id": 1,
          "value": 1.0
        }
      ],
      "leftModuleId": 179,
      "rightModuleId": 177,
      "data": {
        "save_latched_to_patch": false
      },
      "pos": [
        51,
        0
      ]
    },
    {
      "id": 179,
      "plugin": "Bogaudio",
      "version": "1.1.35",
      "model": "Bogaudio-Switch",
      "params": [
        {
          "id": 0,
          "value": 0.0
        },
        {
          "id": 1,
          "value": 1.0
        }
      ],
      "leftModuleId": 180,
      "rightModuleId": 178,
      "data": {
        "save_latched_to_patch": false
      },
      "pos": [
        48,
        0
      ]
    },
    {
      "id": 180,
      "plugin": "Bogaudio",
      "version": "1.1.35",
      "model": "Bogaudio-Switch",
      "params": [
        {
          "id": 0,
          "value": 0.0
        },
        {
          "id": 1,
          "value": 1.0
        }
      ],
      "leftModuleId": 181,
      "rightModuleId": 179,
      "data": {
        "save_latched_to_patch": false
      },
      "pos": [
        45,
        0
      ]
    },
    {
      "id": 181,
      "plugin": "Bogaudio",
      "version": "1.1.35",
      "model": "Bogaudio-Switch",
      "params": [
        {
          "id": 0,
          "value": 0.0
        },
        {
          "id": 1,
          "value": 1.0
        }
      ],
      "rightModuleId": 180,
      "data": {
        "save_latched_to_patch": false
      },
      "pos": [
        42,
        0
      ]
    },
    {
      "id": 187,
      "plugin": "Bogaudio",
      "version": "1.1.35",
      "model": "Bogaudio-FMOp",
      "params": [
        {
          "id": 0,
          "value": 0.0
        },
        {
          "id": 1,
          "value": 0.0
        },
        {
          "id": 2,
          "value": 0.0994209945
        },
        {
          "id": 3,
          "value": 0.566729903
        },
        {
          "id": 4,
          "value": 0.920500219
        },
        {
          "id": 5,
          "value": 0.316229999
        },
        {
          "id": 6,
          "value": 0.280499905
        },
        {
          "id": 7,
          "value": 0.213000193
        },
        {
          "id": 8,
          "value": 1.0
        },
        {
          "id": 9,
          "value": 1.0
        },
        {
          "id": 10,
          "value": 0.0
        },
        {
          "id": 11,
          "value": 0.0
        }
      ],
      "leftModuleId": 188,
      "rightModuleId": 198,
      "data": {
        "linearLevel": false
      },
      "pos": [
        30,
        2
      ]
    },
    {
      "id": 188,
      "plugin": "Bogaudio",
      "version": "1.1.35",
      "model": "Bogaudio-FMOp",
      "params": [
        {
          "id": 0,
          "value": 0.108111113
        },
        {
          "id": 1,
          "value": -0.131999984
        },
        {
          "id": 2,
          "value": 0.076500006
        },
        {
          "id": 3,
          "value": 0.271229833
        },
        {
          "id": 4,
          "value": 0.0
        },
        {
          "id": 5,
          "value": 0.316229999
        },
        {
          "id": 6,
          "value": 0.0
        },
        {
          "id": 7,
          "value": 0.145500004
        },
        {
          "id": 8,
          "value": 1.0
        },
        {
          "id": 9,
          "value": 1.0
        },
        {
          "id": 10,
          "value": 0.0
        },
        {
          "id": 11,
          "value": 0.0
        }
      ],
      "rightModuleId": 187,
      "data": {
        "linearLevel": false
      },
      "pos": [
        20,
        2
      ]
    },
    {
      "id": 195,
      "plugin": "Bogaudio",
      "version": "1.1.35",
      "model": "Bogaudio-Switch",
      "params": [
        {
          "id": 0,
          "value": 0.0
        },
        {
          "id": 1,
          "value": 1.0
        }
      ],
      "leftModuleId": 176,
      "rightModuleId": 196,
      "data": {
        "save_latched_to_patch": false
      },
      "pos": [
        60,
        0
      ]
    },
    {
      "id": 196,
      "plugin": "Bogaudio",
      "version": "1.1.35",
      "model": "Bogaudio-Switch",
      "params": [
        {
          "id": 0,
          "value": 0.0
        },
        {
          "id": 1,
          "value": 1.0
        }
      ],
      "leftModuleId": 195,
      "rightModuleId": 159,
      "data": {
        "save_latched_to_patch": false
      },
      "pos": [
        63,
        0
      ]
    },
    {
      "id": 197,
      "plugin": "Valley",
      "version": "1.1.7",
      "model": "Plateau",
      "params": [
        {
          "id": 0,
          "value": 0.0
        },
        {
          "id": 1,
          "value": 0.496999979
        },
        {
          "id": 2,
          "value": 0.0
        },
        {
          "id": 3,
          "value": 7.13499975
        },
        {
          "id": 4,
          "value": 10.0
        },
        {
          "id": 5,
          "value": 0.593000114
        },
        {
          "id": 6,
          "value": 10.0
        },
        {
          "id": 7,
          "value": 0.549949825
        },
        {
          "id": 8,
          "value": 10.0
        },
        {
          "id": 9,
          "value": 10.0
        },
        {
          "id": 10,
          "value": 0.0
        },
        {
          "id": 11,
          "value": 0.5
        },
        {
          "id": 12,
          "value": 0.5
        },
        {
          "id": 13,
          "value": 0.0
        },
        {
          "id": 14,
          "value": 0.0
        },
        {
          "id": 15,
          "value": 0.0
        },
        {
          "id": 16,
          "value": 0.0
        },
        {
          "id": 17,
          "value": 0.0
        },
        {
          "id": 18,
          "value": 0.0
        },
        {
          "id": 19,
          "value": 0.0
        },
        {
          "id": 20,
          "value": 0.0
        },
        {
          "id": 21,
          "value": 0.0
        },
        {
          "id": 22,
          "value": 0.0
        },
        {
          "id": 23,
          "value": 0.0
        },
        {
          "id": 24,
          "value": 0.0
        },
        {
          "id": 25,
          "value": 0.0
        },
        {
          "id": 26,
          "value": 0.0
        },
        {
          "id": 27,
          "value": 0.0
        },
        {
          "id": 28,
          "value": 0.0
        },
        {
          "id": 29,
          "value": 0.0
        },
        {
          "id": 30,
          "value": 1.0
        }
      ],
      "leftModuleId": 198,
      "data": {
        "frozen": false,
        "freezeToggle": false,
        "panelStyle": 0,
        "tuned": 0,
        "diffuseInput": 1,
        "preDelayCVSens": 0,
        "inputSensitivity": 0,
        "outputSaturation": 0
      },
      "pos": [
        43,
        2
      ]
    },
    {
      "id": 198,
      "plugin": "Fundamental",
      "version": "1.4.0",
      "model": "Sum",
      "params": [
        {
          "id": 0,
          "value": 0.168999776
        }
      ],
      "leftModuleId": 187,
      "rightModuleId": 197,
      "pos": [
        40,
        2
      ]
    },
    {
      "id": 201,
      "plugin": "Core",
      "version": "1.1.6",
      "model": "MIDIToCVInterface",
      "params": [],
      "data": {
        "channels": 3,
        "polyMode": 0,
        "clockDivision": 24,
        "lastPitch": 8192,
        "lastMod": 0,
        "midi": {
          "driver": 3,
          "channel": -1
        }
      },
      "pos": [
        27,
        0
      ]
    }
  ],
  "cables": [
    {
      "id": 412,
      "outputModuleId": 9,
      "outputId": 0,
      "inputModuleId": 10,
      "inputId": 0,
      "color": "#c91847"
    },
    {
      "id": 413,
      "outputModuleId": 9,
      "outputId": 4,
      "inputModuleId": 10,
      "inputId": 1,
      "color": "#0986ad"
    },
    {
      "id": 414,
      "outputModuleId": 10,
      "outputId": 0,
      "inputModuleId": 9,
      "inputId": 0,
      "color": "#c9b70e"
    },
    {
      "id": 415,
      "outputModuleId": 10,
      "outputId": 1,
      "inputModuleId": 9,
      "inputId": 1,
      "color": "#0c8e15"
    },
    {
      "id": 416,
      "outputModuleId": 8,
      "outputId": 2,
      "inputModuleId": 1,
      "inputId": 0,
      "color": "#c91847"
    },
    {
      "id": 417,
      "outputModuleId": 8,
      "outputId": 3,
      "inputModuleId": 1,
      "inputId": 1,
      "color": "#0986ad"
    },
    {
      "id": 444,
      "outputModuleId": 11,
      "outputId": 2,
      "inputModuleId": 28,
      "inputId": 0,
      "color": "#c91847"
    },
    {
      "id": 447,
      "outputModuleId": 11,
      "outputId": 1,
      "inputModuleId": 23,
      "inputId": 0,
      "color": "#0986ad"
    },
    {
      "id": 462,
      "outputModuleId": 11,
      "outputId": 4,
      "inputModuleId": 31,
      "inputId": 2,
      "color": "#c91847"
    },
    {
      "id": 465,
      "outputModuleId": 32,
      "outputId": 0,
      "inputModuleId": 8,
      "inputId": 10,
      "color": "#0986ad"
    },
    {
      "id": 469,
      "outputModuleId": 32,
      "outputId": 1,
      "inputModuleId": 8,
      "inputId": 11,
      "color": "#0986ad"
    },
    {
      "id": 483,
      "outputModuleId": 34,
      "outputId": 1,
      "inputModuleId": 35,
      "inputId": 0,
      "color": "#0986ad"
    },
    {
      "id": 489,
      "outputModuleId": 34,
      "outputId": 1,
      "inputModuleId": 36,
      "inputId": 0,
      "color": "#0c8e15"
    },
    {
      "id": 490,
      "outputModuleId": 23,
      "outputId": 0,
      "inputModuleId": 8,
      "inputId": 4,
      "color": "#c91847"
    },
    {
      "id": 508,
      "outputModuleId": 43,
      "outputId": 0,
      "inputModuleId": 44,
      "inputId": 1,
      "color": "#c91847"
    },
    {
      "id": 511,
      "outputModuleId": 31,
      "outputId": 1,
      "inputModuleId": 45,
      "inputId": 0,
      "color": "#c91847"
    },
    {
      "id": 512,
      "outputModuleId": 45,
      "outputId": 1,
      "inputModuleId": 44,
      "inputId": 0,
      "color": "#c9b70e"
    },
    {
      "id": 509,
      "outputModuleId": 44,
      "outputId": 0,
      "inputModuleId": 50,
      "inputId": 1,
      "color": "#c9b70e"
    },
    {
      "id": 521,
      "outputModuleId": 31,
      "outputId": 4,
      "inputModuleId": 51,
      "inputId": 0,
      "color": "#0c8e15"
    },
    {
      "id": 522,
      "outputModuleId": 51,
      "outputId": 1,
      "inputModuleId": 45,
      "inputId": 2,
      "color": "#c91847"
    },
    {
      "id": 514,
      "outputModuleId": 50,
      "outputId": 1,
      "inputModuleId": 8,
      "inputId": 8,
      "color": "#c91847"
    },
    {
      "id": 525,
      "outputModuleId": 11,
      "outputId": 0,
      "inputModuleId": 52,
      "inputId": 0,
      "color": "#0c8e15"
    },
    {
      "id": 528,
      "outputModuleId": 11,
      "outputId": 4,
      "inputModuleId": 52,
      "inputId": 4,
      "color": "#0c8e15"
    },
    {
      "id": 491,
      "outputModuleId": 23,
      "outputId": 1,
      "inputModuleId": 8,
      "inputId": 5,
      "color": "#0986ad"
    },
    {
      "id": 445,
      "outputModuleId": 28,
      "outputId": 2,
      "inputModuleId": 8,
      "inputId": 2,
      "color": "#0986ad"
    },
    {
      "id": 542,
      "outputModuleId": 11,
      "outputId": 0,
      "inputModuleId": 23,
      "inputId": 7,
      "color": "#c91847"
    },
    {
      "id": 493,
      "outputModuleId": 11,
      "outputId": 0,
      "inputModuleId": 34,
      "inputId": 0,
      "color": "#0c8e15"
    },
    {
      "id": 456,
      "outputModuleId": 11,
      "outputId": 0,
      "inputModuleId": 31,
      "inputId": 1,
      "color": "#c9b70e"
    },
    {
      "id": 559,
      "outputModuleId": 68,
      "outputId": 0,
      "inputModuleId": 72,
      "inputId": 0,
      "color": "#0c8e15"
    },
    {
      "id": 574,
      "outputModuleId": 74,
      "outputId": 0,
      "inputModuleId": 80,
      "inputId": 1,
      "color": "#c9b70e"
    },
    {
      "id": 581,
      "outputModuleId": 72,
      "outputId": 0,
      "inputModuleId": 81,
      "inputId": 1,
      "color": "#c9b70e"
    },
    {
      "id": 583,
      "outputModuleId": 63,
      "outputId": 6,
      "inputModuleId": 80,
      "inputId": 0,
      "color": "#c91847"
    },
    {
      "id": 580,
      "outputModuleId": 63,
      "outputId": 7,
      "inputModuleId": 83,
      "inputId": 0,
      "color": "#0986ad"
    },
    {
      "id": 585,
      "outputModuleId": 83,
      "outputId": 0,
      "inputModuleId": 81,
      "inputId": 0,
      "color": "#c9b70e"
    },
    {
      "id": 586,
      "outputModuleId": 63,
      "outputId": 7,
      "inputModuleId": 84,
      "inputId": 0,
      "color": "#0c8e15"
    },
    {
      "id": 518,
      "outputModuleId": 31,
      "outputId": 0,
      "inputModuleId": 32,
      "inputId": 7,
      "color": "#c91847"
    },
    {
      "id": 588,
      "outputModuleId": 11,
      "outputId": 3,
      "inputModuleId": 63,
      "inputId": 2,
      "color": "#0986ad"
    },
    {
      "id": 595,
      "outputModuleId": 85,
      "outputId": 0,
      "inputModuleId": 86,
      "inputId": 0,
      "color": "#c9b70e"
    },
    {
      "id": 523,
      "outputModuleId": 51,
      "outputId": 1,
      "inputModuleId": 43,
      "inputId": 4,
      "color": "#0986ad"
    },
    {
      "id": 515,
      "outputModuleId": 50,
      "outputId": 1,
      "inputModuleId": 32,
      "inputId": 5,
      "color": "#0986ad"
    },
    {
      "id": 600,
      "outputModuleId": 81,
      "outputId": 0,
      "inputModuleId": 74,
      "inputId": 0,
      "color": "#0c8e15"
    },
    {
      "id": 587,
      "outputModuleId": 80,
      "outputId": 1,
      "inputModuleId": 84,
      "inputId": 1,
      "color": "#c91847"
    },
    {
      "id": 552,
      "outputModuleId": 87,
      "outputId": 0,
      "inputModuleId": 8,
      "inputId": 6,
      "color": "#0c8e15"
    },
    {
      "id": 601,
      "outputModuleId": 84,
      "outputId": 0,
      "inputModuleId": 87,
      "inputId": 5,
      "color": "#c91847"
    },
    {
      "id": 602,
      "outputModuleId": 87,
      "outputId": 1,
      "inputModuleId": 8,
      "inputId": 7,
      "color": "#0c8e15"
    },
    {
      "id": 603,
      "outputModuleId": 8,
      "outputId": 2,
      "inputModuleId": 88,
      "inputId": 0,
      "color": "#0986ad"
    },
    {
      "id": 604,
      "outputModuleId": 8,
      "outputId": 3,
      "inputModuleId": 88,
      "inputId": 1,
      "color": "#c9b70e"
    },
    {
      "id": 656,
      "outputModuleId": 119,
      "outputId": 0,
      "inputModuleId": 8,
      "inputId": 0,
      "color": "#c91847"
    },
    {
      "id": 653,
      "outputModuleId": 11,
      "outputId": 1,
      "inputModuleId": 119,
      "inputId": 0,
      "color": "#0c8e15"
    },
    {
      "id": 660,
      "outputModuleId": 11,
      "outputId": 0,
      "inputModuleId": 121,
      "inputId": 0,
      "color": "#0c8e15"
    },
    {
      "id": 662,
      "outputModuleId": 59,
      "outputId": 1,
      "inputModuleId": 34,
      "inputId": 3,
      "color": "#0986ad"
    },
    {
      "id": 663,
      "outputModuleId": 121,
      "outputId": 0,
      "inputModuleId": 59,
      "inputId": 0,
      "color": "#c9b70e"
    },
    {
      "id": 661,
      "outputModuleId": 121,
      "outputId": 4,
      "inputModuleId": 34,
      "inputId": 1,
      "color": "#c91847"
    },
    {
      "id": 664,
      "outputModuleId": 11,
      "outputId": 4,
      "inputModuleId": 121,
      "inputId": 1,
      "color": "#0c8e15"
    },
    {
      "id": 488,
      "outputModuleId": 35,
      "outputId": 0,
      "inputModuleId": 39,
      "inputId": 0,
      "color": "#c9b70e"
    },
    {
      "id": 665,
      "outputModuleId": 39,
      "outputId": 1,
      "inputModuleId": 23,
      "inputId": 5,
      "color": "#0986ad"
    },
    {
      "id": 485,
      "outputModuleId": 21,
      "outputId": 3,
      "inputModuleId": 35,
      "inputId": 1,
      "color": "#0c8e15"
    },
    {
      "id": 589,
      "outputModuleId": 11,
      "outputId": 3,
      "inputModuleId": 63,
      "inputId": 3,
      "color": "#c9b70e"
    },
    {
      "id": 670,
      "outputModuleId": 105,
      "outputId": 0,
      "inputModuleId": 43,
      "inputId": 7,
      "color": "#c91847"
    },
    {
      "id": 690,
      "outputModuleId": 63,
      "outputId": 1,
      "inputModuleId": 130,
      "inputId": 2,
      "color": "#c91847"
    },
    {
      "id": 695,
      "outputModuleId": 11,
      "outputId": 4,
      "inputModuleId": 130,
      "inputId": 3,
      "color": "#0986ad"
    },
    {
      "id": 697,
      "outputModuleId": 31,
      "outputId": 0,
      "inputModuleId": 129,
      "inputId": 2,
      "color": "#0c8e15"
    },
    {
      "id": 694,
      "outputModuleId": 11,
      "outputId": 4,
      "inputModuleId": 129,
      "inputId": 3,
      "color": "#c91847"
    },
    {
      "id": 739,
      "outputModuleId": 31,
      "outputId": 0,
      "inputModuleId": 129,
      "inputId": 0,
      "color": "#c9b70e"
    },
    {
      "id": 740,
      "outputModuleId": 63,
      "outputId": 1,
      "inputModuleId": 130,
      "inputId": 0,
      "color": "#0c8e15"
    },
    {
      "id": 526,
      "outputModuleId": 52,
      "outputId": 1,
      "inputModuleId": 158,
      "inputId": 11,
      "color": "#0986ad"
    },
    {
      "id": 742,
      "outputModuleId": 158,
      "outputId": 2,
      "inputModuleId": 50,
      "inputId": 0,
      "color": "#0986ad"
    },
    {
      "id": 765,
      "outputModuleId": 159,
      "outputId": 0,
      "inputModuleId": 181,
      "inputId": 0,
      "color": "#0c8e15"
    },
    {
      "id": 767,
      "outputModuleId": 159,
      "outputId": 1,
      "inputModuleId": 180,
      "inputId": 0,
      "color": "#0986ad"
    },
    {
      "id": 768,
      "outputModuleId": 159,
      "outputId": 2,
      "inputModuleId": 179,
      "inputId": 0,
      "color": "#c9b70e"
    },
    {
      "id": 769,
      "outputModuleId": 159,
      "outputId": 3,
      "inputModuleId": 178,
      "inputId": 0,
      "color": "#0c8e15"
    },
    {
      "id": 770,
      "outputModuleId": 159,
      "outputId": 4,
      "inputModuleId": 177,
      "inputId": 0,
      "color": "#c91847"
    },
    {
      "id": 771,
      "outputModuleId": 159,
      "outputId": 5,
      "inputModuleId": 176,
      "inputId": 0,
      "color": "#0986ad"
    },
    {
      "id": 779,
      "outputModuleId": 181,
      "outputId": 1,
      "inputModuleId": 8,
      "inputId": 16,
      "color": "#0986ad"
    },
    {
      "id": 780,
      "outputModuleId": 180,
      "outputId": 1,
      "inputModuleId": 8,
      "inputId": 17,
      "color": "#c9b70e"
    },
    {
      "id": 781,
      "outputModuleId": 179,
      "outputId": 1,
      "inputModuleId": 8,
      "inputId": 18,
      "color": "#0c8e15"
    },
    {
      "id": 782,
      "outputModuleId": 178,
      "outputId": 1,
      "inputModuleId": 8,
      "inputId": 19,
      "color": "#c91847"
    },
    {
      "id": 784,
      "outputModuleId": 176,
      "outputId": 1,
      "inputModuleId": 8,
      "inputId": 21,
      "color": "#c9b70e"
    },
    {
      "id": 785,
      "outputModuleId": 156,
      "outputId": 0,
      "inputModuleId": 181,
      "inputId": 3,
      "color": "#c91847"
    },
    {
      "id": 786,
      "outputModuleId": 156,
      "outputId": 1,
      "inputModuleId": 180,
      "inputId": 3,
      "color": "#0986ad"
    },
    {
      "id": 787,
      "outputModuleId": 156,
      "outputId": 2,
      "inputModuleId": 179,
      "inputId": 3,
      "color": "#c9b70e"
    },
    {
      "id": 788,
      "outputModuleId": 156,
      "outputId": 3,
      "inputModuleId": 178,
      "inputId": 3,
      "color": "#0c8e15"
    },
    {
      "id": 789,
      "outputModuleId": 156,
      "outputId": 4,
      "inputModuleId": 177,
      "inputId": 3,
      "color": "#0986ad"
    },
    {
      "id": 790,
      "outputModuleId": 156,
      "outputId": 5,
      "inputModuleId": 176,
      "inputId": 3,
      "color": "#c9b70e"
    },
    {
      "id": 757,
      "outputModuleId": 159,
      "outputId": 11,
      "inputModuleId": 11,
      "inputId": 4,
      "color": "#c9b70e"
    },
    {
      "id": 758,
      "outputModuleId": 159,
      "outputId": 15,
      "inputModuleId": 11,
      "inputId": 5,
      "color": "#0c8e15"
    },
    {
      "id": 791,
      "outputModuleId": 188,
      "outputId": 0,
      "inputModuleId": 187,
      "inputId": 6,
      "color": "#0986ad"
    },
    {
      "id": 783,
      "outputModuleId": 177,
      "outputId": 1,
      "inputModuleId": 8,
      "inputId": 20,
      "color": "#0986ad"
    },
    {
      "id": 685,
      "outputModuleId": 85,
      "outputId": 0,
      "inputModuleId": 105,
      "inputId": 0,
      "color": "#c9b70e"
    },
    {
      "id": 590,
      "outputModuleId": 85,
      "outputId": 0,
      "inputModuleId": 68,
      "inputId": 0,
      "color": "#0c8e15"
    },
    {
      "id": 808,
      "outputModuleId": 159,
      "outputId": 6,
      "inputModuleId": 195,
      "inputId": 0,
      "color": "#c91847"
    },
    {
      "id": 810,
      "outputModuleId": 156,
      "outputId": 6,
      "inputModuleId": 195,
      "inputId": 3,
      "color": "#c9b70e"
    },
    {
      "id": 812,
      "outputModuleId": 195,
      "outputId": 1,
      "inputModuleId": 8,
      "inputId": 22,
      "color": "#c91847"
    },
    {
      "id": 814,
      "outputModuleId": 187,
      "outputId": 0,
      "inputModuleId": 198,
      "inputId": 0,
      "color": "#c9b70e"
    },
    {
      "id": 815,
      "outputModuleId": 198,
      "outputId": 0,
      "inputModuleId": 197,
      "inputId": 0,
      "color": "#0c8e15"
    },
    {
      "id": 816,
      "outputModuleId": 197,
      "outputId": 0,
      "inputModuleId": 8,
      "inputId": 12,
      "color": "#c91847"
    },
    {
      "id": 817,
      "outputModuleId": 197,
      "outputId": 1,
      "inputModuleId": 8,
      "inputId": 13,
      "color": "#0986ad"
    },
    {
      "id": 741,
      "outputModuleId": 159,
      "outputId": 12,
      "inputModuleId": 158,
      "inputId": 9,
      "color": "#c91847"
    },
    {
      "id": 793,
      "outputModuleId": 201,
      "outputId": 0,
      "inputModuleId": 187,
      "inputId": 4,
      "color": "#0c8e15"
    },
    {
      "id": 792,
      "outputModuleId": 201,
      "outputId": 0,
      "inputModuleId": 188,
      "inputId": 4,
      "color": "#c9b70e"
    },
    {
      "id": 800,
      "outputModuleId": 201,
      "outputId": 1,
      "inputModuleId": 187,
      "inputId": 5,
      "color": "#c9b70e"
    },
    {
      "id": 799,
      "outputModuleId": 201,
      "outputId": 1,
      "inputModuleId": 188,
      "inputId": 5,
      "color": "#0986ad"
    },
    {
      "id": 804,
      "outputModuleId": 201,
      "outputId": 5,
      "inputModuleId": 187,
      "inputId": 2,
      "color": "#c91847"
    },
    {
      "id": 824,
      "outputModuleId": 156,
      "outputId": 7,
      "inputModuleId": 8,
      "inputId": 23,
      "color": "#c91847"
    },
    {
      "id": 827,
      "outputModuleId": 21,
      "outputId": 2,
      "inputModuleId": 8,
      "inputId": 14,
      "color": "#c91847"
    }
  ]
}