{
  "version": "0.6.2c",
  "modules": [
    {
      "plugin": "mscHack",
      "version": "0.6.3",
      "model": "Mix_9_3_4",
      "params": [
        {
          "paramId": 81,
          "value": 0.0
        },
        {
          "paramId": 82,
          "value": 0.0
        },
        {
          "paramId": 83,
          "value": 0.0
        },
        {
          "paramId": 84,
          "value": 0.0
        },
        {
          "paramId": 33,
          "value": 0.5
        },
        {
          "paramId": 49,
          "value": 0.63499999
        },
        {
          "paramId": 65,
          "value": 1.0
        },
        {
          "paramId": 17,
          "value": 0.0
        },
        {
          "paramId": 1,
          "value": 1.0
        },
        {
          "paramId": 85,
          "value": 0.0
        },
        {
          "paramId": 86,
          "value": 0.0
        },
        {
          "paramId": 87,
          "value": 0.0
        },
        {
          "paramId": 88,
          "value": 0.0
        },
        {
          "paramId": 34,
          "value": 0.5
        },
        {
          "paramId": 50,
          "value": 0.5
        },
        {
          "paramId": 66,
          "value": 0.5
        },
        {
          "paramId": 18,
          "value": 0.0
        },
        {
          "paramId": 2,
          "value": 0.610000014
        },
        {
          "paramId": 89,
          "value": 0.0
        },
        {
          "paramId": 90,
          "value": 0.0
        },
        {
          "paramId": 91,
          "value": 0.0
        },
        {
          "paramId": 92,
          "value": 0.0
        },
        {
          "paramId": 35,
          "value": 0.5
        },
        {
          "paramId": 51,
          "value": 0.5
        },
        {
          "paramId": 67,
          "value": 0.5
        },
        {
          "paramId": 19,
          "value": 0.0
        },
        {
          "paramId": 3,
          "value": 0.356999964
        },
        {
          "paramId": 93,
          "value": 0.0
        },
        {
          "paramId": 94,
          "value": 0.0
        },
        {
          "paramId": 95,
          "value": 0.0
        },
        {
          "paramId": 96,
          "value": 0.0
        },
        {
          "paramId": 36,
          "value": 0.5
        },
        {
          "paramId": 52,
          "value": 0.5
        },
        {
          "paramId": 68,
          "value": 0.5
        },
        {
          "paramId": 20,
          "value": 0.0
        },
        {
          "paramId": 4,
          "value": 0.576999784
        },
        {
          "paramId": 97,
          "value": 0.0
        },
        {
          "paramId": 98,
          "value": 0.0
        },
        {
          "paramId": 99,
          "value": 0.0
        },
        {
          "paramId": 100,
          "value": 0.0
        },
        {
          "paramId": 37,
          "value": 0.5
        },
        {
          "paramId": 53,
          "value": 0.5
        },
        {
          "paramId": 69,
          "value": 0.5
        },
        {
          "paramId": 21,
          "value": 0.0
        },
        {
          "paramId": 5,
          "value": 0.0
        },
        {
          "paramId": 101,
          "value": 0.0
        },
        {
          "paramId": 102,
          "value": 0.0
        },
        {
          "paramId": 103,
          "value": 0.0
        },
        {
          "paramId": 104,
          "value": 0.0
        },
        {
          "paramId": 38,
          "value": 0.5
        },
        {
          "paramId": 54,
          "value": 0.5
        },
        {
          "paramId": 70,
          "value": 0.5
        },
        {
          "paramId": 22,
          "value": 0.0
        },
        {
          "paramId": 6,
          "value": 0.0
        },
        {
          "paramId": 105,
          "value": 0.0
        },
        {
          "paramId": 106,
          "value": 0.0
        },
        {
          "paramId": 107,
          "value": 0.0
        },
        {
          "paramId": 108,
          "value": 0.0
        },
        {
          "paramId": 39,
          "value": 0.5
        },
        {
          "paramId": 55,
          "value": 0.5
        },
        {
          "paramId": 71,
          "value": 0.5
        },
        {
          "paramId": 23,
          "value": 0.0
        },
        {
          "paramId": 7,
          "value": 0.0
        },
        {
          "paramId": 109,
          "value": 0.0
        },
        {
          "paramId": 110,
          "value": 0.0
        },
        {
          "paramId": 111,
          "value": 0.0
        },
        {
          "paramId": 112,
          "value": 0.0
        },
        {
          "paramId": 40,
          "value": 0.5
        },
        {
          "paramId": 56,
          "value": 0.5
        },
        {
          "paramId": 72,
          "value": 0.5
        },
        {
          "paramId": 24,
          "value": 0.0
        },
        {
          "paramId": 8,
          "value": 0.0
        },
        {
          "paramId": 113,
          "value": 0.0
        },
        {
          "paramId": 114,
          "value": 0.0
        },
        {
          "paramId": 115,
          "value": 0.0
        },
        {
          "paramId": 116,
          "value": 0.0
        },
        {
          "paramId": 41,
          "value": 0.5
        },
        {
          "paramId": 57,
          "value": 0.5
        },
        {
          "paramId": 73,
          "value": 0.5
        },
        {
          "paramId": 25,
          "value": 0.0
        },
        {
          "paramId": 9,
          "value": 0.0
        },
        {
          "paramId": 117,
          "value": 0.0
        },
        {
          "paramId": 118,
          "value": 0.0
        },
        {
          "paramId": 119,
          "value": 0.0
        },
        {
          "paramId": 120,
          "value": 0.0
        },
        {
          "paramId": 42,
          "value": 0.5
        },
        {
          "paramId": 58,
          "value": 0.5
        },
        {
          "paramId": 74,
          "value": 0.5
        },
        {
          "paramId": 26,
          "value": 0.0
        },
        {
          "paramId": 10,
          "value": 0.0
        },
        {
          "paramId": 121,
          "value": 0.0
        },
        {
          "paramId": 122,
          "value": 0.0
        },
        {
          "paramId": 123,
          "value": 0.0
        },
        {
          "paramId": 124,
          "value": 0.0
        },
        {
          "paramId": 43,
          "value": 0.5
        },
        {
          "paramId": 59,
          "value": 0.5
        },
        {
          "paramId": 75,
          "value": 0.5
        },
        {
          "paramId": 27,
          "value": 0.0
        },
        {
          "paramId": 11,
          "value": 0.0
        },
        {
          "paramId": 125,
          "value": 0.0
        },
        {
          "paramId": 126,
          "value": 0.0
        },
        {
          "paramId": 127,
          "value": 0.0
        },
        {
          "paramId": 128,
          "value": 0.0
        },
        {
          "paramId": 44,
          "value": 0.5
        },
        {
          "paramId": 60,
          "value": 0.5
        },
        {
          "paramId": 76,
          "value": 0.5
        },
        {
          "paramId": 28,
          "value": 0.0
        },
        {
          "paramId": 12,
          "value": 0.0
        },
        {
          "paramId": 129,
          "value": 0.0
        },
        {
          "paramId": 45,
          "value": 0.5
        },
        {
          "paramId": 61,
          "value": 0.5
        },
        {
          "paramId": 77,
          "value": 0.5
        },
        {
          "paramId": 29,
          "value": 0.0
        },
        {
          "paramId": 13,
          "value": 0.0
        },
        {
          "paramId": 130,
          "value": 0.0
        },
        {
          "paramId": 46,
          "value": 0.5
        },
        {
          "paramId": 62,
          "value": 0.5
        },
        {
          "paramId": 78,
          "value": 0.5
        },
        {
          "paramId": 30,
          "value": 0.0
        },
        {
          "paramId": 14,
          "value": 0.0
        },
        {
          "paramId": 131,
          "value": 0.0
        },
        {
          "paramId": 47,
          "value": 0.5
        },
        {
          "paramId": 63,
          "value": 0.5
        },
        {
          "paramId": 79,
          "value": 0.5
        },
        {
          "paramId": 31,
          "value": 0.0
        },
        {
          "paramId": 15,
          "value": 0.0
        },
        {
          "paramId": 132,
          "value": 0.0
        },
        {
          "paramId": 48,
          "value": 0.5
        },
        {
          "paramId": 64,
          "value": 0.5
        },
        {
          "paramId": 80,
          "value": 0.5
        },
        {
          "paramId": 32,
          "value": 0.0
        },
        {
          "paramId": 16,
          "value": 0.0
        },
        {
          "paramId": 0,
          "value": 0.5
        }
      ],
      "data": {
        "m_bMuteStates": [
          false,
          false,
          false,
          false,
          false,
          false,
          false,
          false,
          false,
          false,
          false,
          false,
          false,
          false,
          false,
          false
        ],
        "m_bSoloStates": [
          false,
          false,
          false,
          false,
          false,
          false,
          false,
          false,
          false,
          false,
          false,
          false,
          false,
          false,
          false,
          false
        ],
        "m_iRouteGroup": [
          3,
          3,
          3,
          3,
          3,
          3,
          3,
          3,
          3
        ],
        "m_bGroupPreMute": [
          true
        ],
        "m_bGainLevelx2": [
          false
        ],
        "m_bPreFader": [
          false,
          false,
          false,
          false,
          false,
          false,
          false,
          false,
          false,
          false,
          false,
          false
        ],
        "m_bAuxIgnoreSolo": [
          false
        ]
      },
      "pos": [
        10,
        0
      ]
    },
    {
      "plugin": "Core",
      "version": "0.6.2c",
      "model": "AudioInterface",
      "params": [],
      "data": {
        "audio": {
          "driver": 1,
          "deviceName": "default",
          "offset": 0,
          "maxChannels": 8,
          "sampleRate": 44100,
          "blockSize": 256
        }
      },
      "pos": [
        0,
        0
      ]
    },
    {
      "plugin": "Befaco",
      "version": "0.6.0",
      "model": "EvenVCO",
      "params": [
        {
          "paramId": 0,
          "value": -3.0
        },
        {
          "paramId": 1,
          "value": -1.4490006
        },
        {
          "paramId": 2,
          "value": 0.0
        }
      ],
      "pos": [
        68,
        1
      ]
    },
    {
      "plugin": "MSM",
      "version": "0.6.51",
      "model": "ADSR",
      "params": [
        {
          "paramId": 0,
          "value": 0.0
        },
        {
          "paramId": 1,
          "value": 0.381999761
        },
        {
          "paramId": 2,
          "value": 0.0
        },
        {
          "paramId": 3,
          "value": 0.150000006
        },
        {
          "paramId": 4,
          "value": 0.100000001
        },
        {
          "paramId": 5,
          "value": 0.345699936
        },
        {
          "paramId": 6,
          "value": 0.881950974
        }
      ],
      "data": {
        "Theme": 0
      },
      "pos": [
        47,
        1
      ]
    },
    {
      "plugin": "ImpromptuModular",
      "version": "0.6.16",
      "model": "Clocked",
      "params": [
        {
          "paramId": 0,
          "value": 130.0
        },
        {
          "paramId": 12,
          "value": 0.0
        },
        {
          "paramId": 13,
          "value": 0.0
        },
        {
          "paramId": 18,
          "value": 0.0
        },
        {
          "paramId": 19,
          "value": 0.0
        },
        {
          "paramId": 4,
          "value": 0.0
        },
        {
          "paramId": 8,
          "value": 0.5
        },
        {
          "paramId": 1,
          "value": 2.0
        },
        {
          "paramId": 5,
          "value": 0.0
        },
        {
          "paramId": 9,
          "value": 0.5
        },
        {
          "paramId": 15,
          "value": 0.0
        },
        {
          "paramId": 2,
          "value": 5.0
        },
        {
          "paramId": 6,
          "value": 0.0
        },
        {
          "paramId": 10,
          "value": 0.5
        },
        {
          "paramId": 16,
          "value": 0.0
        },
        {
          "paramId": 3,
          "value": 9.0
        },
        {
          "paramId": 7,
          "value": 0.0
        },
        {
          "paramId": 11,
          "value": 0.5
        },
        {
          "paramId": 17,
          "value": 0.0
        }
      ],
      "data": {
        "running": true,
        "panelTheme": 0,
        "expansion": 0,
        "displayDelayNoteMode": true,
        "bpmDetectionMode": false,
        "emitResetOnStopRun": false,
        "ppqn": 4,
        "resetClockOutputsHigh": true
      },
      "pos": [
        43,
        0
      ]
    },
    {
      "plugin": "Fundamental",
      "version": "0.6.2",
      "model": "Scope",
      "params": [
        {
          "paramId": 0,
          "value": 0.0
        },
        {
          "paramId": 1,
          "value": 0.0
        },
        {
          "paramId": 2,
          "value": 0.0
        },
        {
          "paramId": 3,
          "value": 0.0
        },
        {
          "paramId": 4,
          "value": -8.58000183
        },
        {
          "paramId": 5,
          "value": 0.0
        },
        {
          "paramId": 6,
          "value": 0.0
        },
        {
          "paramId": 7,
          "value": 0.0
        }
      ],
      "data": {
        "lissajous": 0,
        "external": 0
      },
      "pos": [
        34,
        1
      ]
    },
    {
      "plugin": "Valley",
      "version": "0.6.16",
      "model": "Plateau",
      "params": [
        {
          "paramId": 0,
          "value": 0.469500244
        },
        {
          "paramId": 1,
          "value": 1.0
        },
        {
          "paramId": 2,
          "value": 0.0
        },
        {
          "paramId": 3,
          "value": 10.0
        },
        {
          "paramId": 4,
          "value": 6.35499573
        },
        {
          "paramId": 5,
          "value": 0.5
        },
        {
          "paramId": 6,
          "value": 10.0
        },
        {
          "paramId": 7,
          "value": 0.129696712
        },
        {
          "paramId": 9,
          "value": 10.0
        },
        {
          "paramId": 8,
          "value": 7.03000212
        },
        {
          "paramId": 10,
          "value": 0.0
        },
        {
          "paramId": 12,
          "value": 0.5
        },
        {
          "paramId": 11,
          "value": 0.5
        },
        {
          "paramId": 17,
          "value": 0.0
        },
        {
          "paramId": 18,
          "value": 0.0
        },
        {
          "paramId": 19,
          "value": 0.0
        },
        {
          "paramId": 20,
          "value": 0.0
        },
        {
          "paramId": 21,
          "value": 0.0
        },
        {
          "paramId": 22,
          "value": 0.0
        },
        {
          "paramId": 23,
          "value": 0.0
        },
        {
          "paramId": 25,
          "value": 0.0
        },
        {
          "paramId": 24,
          "value": 0.0
        },
        {
          "paramId": 26,
          "value": 0.0
        },
        {
          "paramId": 27,
          "value": 0.0
        },
        {
          "paramId": 28,
          "value": 0.0
        },
        {
          "paramId": 13,
          "value": 0.0
        },
        {
          "paramId": 15,
          "value": 0.0
        },
        {
          "paramId": 14,
          "value": 0.0
        },
        {
          "paramId": 29,
          "value": 0.0
        },
        {
          "paramId": 30,
          "value": 0.0
        }
      ],
      "data": {
        "frozen": false,
        "freezeToggle": false,
        "panelStyle": 0,
        "tuned": 0,
        "diffuseInput": 1,
        "preDelayCVSens": 0,
        "inputSensitivity": 0,
        "outputSaturation": 0
      },
      "pos": [
        79,
        1
      ]
    },
    {
      "plugin": "Fundamental",
      "version": "0.6.2",
      "model": "VCA-1",
      "params": [
        {
          "paramId": 0,
          "value": 1.0
        },
        {
          "paramId": 1,
          "value": 1.0
        }
      ],
      "pos": [
        76,
        1
      ]
    },
    {
      "plugin": "MSM",
      "version": "0.6.51",
      "model": "ADSR",
      "params": [
        {
          "paramId": 0,
          "value": 0.0
        },
        {
          "paramId": 1,
          "value": 0.468000144
        },
        {
          "paramId": 2,
          "value": 0.535000026
        },
        {
          "paramId": 3,
          "value": 0.631000161
        },
        {
          "paramId": 4,
          "value": 1.0
        },
        {
          "paramId": 5,
          "value": 1.0
        },
        {
          "paramId": 6,
          "value": 1.04770017
        }
      ],
      "data": {
        "Theme": 0
      },
      "pos": [
        59,
        1
      ]
    },
    {
      "plugin": "Fundamental",
      "version": "0.6.2",
      "model": "VCA-1",
      "params": [
        {
          "paramId": 0,
          "value": 0.423000306
        },
        {
          "paramId": 1,
          "value": 1.0
        }
      ],
      "pos": [
        56,
        1
      ]
    },
    {
      "plugin": "Fundamental",
      "version": "0.6.2",
      "model": "VCA-1",
      "params": [
        {
          "paramId": 0,
          "value": 1.0
        },
        {
          "paramId": 1,
          "value": 1.0
        }
      ],
      "pos": [
        91,
        1
      ]
    },
    {
      "plugin": "Fundamental",
      "version": "0.6.2",
      "model": "VCA-1",
      "params": [
        {
          "paramId": 0,
          "value": 1.0
        },
        {
          "paramId": 1,
          "value": 1.0
        }
      ],
      "pos": [
        94,
        1
      ]
    },
    {
      "plugin": "ML_modules",
      "version": "0.6.3",
      "model": "Sum8",
      "params": [],
      "pos": [
        112,
        1
      ]
    },
    {
      "plugin": "ML_modules",
      "version": "0.6.3",
      "model": "Sum8",
      "params": [],
      "pos": [
        115,
        1
      ]
    },
    {
      "plugin": "Fundamental",
      "version": "0.6.2",
      "model": "VCA-1",
      "params": [
        {
          "paramId": 0,
          "value": 1.0
        },
        {
          "paramId": 1,
          "value": 1.0
        }
      ],
      "pos": [
        109,
        1
      ]
    },
    {
      "plugin": "Befaco",
      "version": "0.6.0",
      "model": "EvenVCO",
      "params": [
        {
          "paramId": 0,
          "value": 0.0
        },
        {
          "paramId": 1,
          "value": 0.0
        },
        {
          "paramId": 2,
          "value": 0.0
        }
      ],
      "pos": [
        35,
        2
      ]
    },
    {
      "plugin": "MSM",
      "version": "0.6.51",
      "model": "ADSR",
      "params": [
        {
          "paramId": 0,
          "value": 0.0
        },
        {
          "paramId": 1,
          "value": 0.0
        },
        {
          "paramId": 2,
          "value": 1.0
        },
        {
          "paramId": 3,
          "value": 1.0
        },
        {
          "paramId": 4,
          "value": 1.0
        },
        {
          "paramId": 5,
          "value": 0.579699934
        },
        {
          "paramId": 6,
          "value": 1.0
        }
      ],
      "data": {
        "Theme": 0
      },
      "pos": [
        46,
        2
      ]
    },
    {
      "plugin": "Fundamental",
      "version": "0.6.2",
      "model": "VCA-1",
      "params": [
        {
          "paramId": 0,
          "value": 1.0
        },
        {
          "paramId": 1,
          "value": 1.0
        }
      ],
      "pos": [
        55,
        2
      ]
    },
    {
      "plugin": "Valley",
      "version": "0.6.16",
      "model": "Plateau",
      "params": [
        {
          "paramId": 0,
          "value": 0.0
        },
        {
          "paramId": 1,
          "value": 0.863500595
        },
        {
          "paramId": 2,
          "value": 0.0
        },
        {
          "paramId": 3,
          "value": 10.0
        },
        {
          "paramId": 4,
          "value": 10.0
        },
        {
          "paramId": 5,
          "value": 0.5
        },
        {
          "paramId": 6,
          "value": 10.0
        },
        {
          "paramId": 7,
          "value": 0.621942341
        },
        {
          "paramId": 9,
          "value": 10.0
        },
        {
          "paramId": 8,
          "value": 10.0
        },
        {
          "paramId": 10,
          "value": 0.101999983
        },
        {
          "paramId": 12,
          "value": 2.44400001
        },
        {
          "paramId": 11,
          "value": 0.5
        },
        {
          "paramId": 17,
          "value": 0.0
        },
        {
          "paramId": 18,
          "value": 0.0
        },
        {
          "paramId": 19,
          "value": 0.0
        },
        {
          "paramId": 20,
          "value": 0.0
        },
        {
          "paramId": 21,
          "value": 0.0
        },
        {
          "paramId": 22,
          "value": 0.0
        },
        {
          "paramId": 23,
          "value": 0.0
        },
        {
          "paramId": 25,
          "value": 0.0
        },
        {
          "paramId": 24,
          "value": 0.0
        },
        {
          "paramId": 26,
          "value": 0.0
        },
        {
          "paramId": 27,
          "value": 0.0
        },
        {
          "paramId": 28,
          "value": 0.0
        },
        {
          "paramId": 13,
          "value": 0.0
        },
        {
          "paramId": 15,
          "value": 0.0
        },
        {
          "paramId": 14,
          "value": 0.0
        },
        {
          "paramId": 29,
          "value": 0.0
        },
        {
          "paramId": 30,
          "value": 0.0
        }
      ],
      "data": {
        "frozen": false,
        "freezeToggle": false,
        "panelStyle": 0,
        "tuned": 0,
        "diffuseInput": 1,
        "preDelayCVSens": 0,
        "inputSensitivity": 0,
        "outputSaturation": 0
      },
      "pos": [
        58,
        2
      ]
    },
    {
      "plugin": "StellareModular",
      "version": "0.6.0",
      "model": "TuringMachine",
      "params": [
        {
          "paramId": 0,
          "value": 0.5
        },
        {
          "paramId": 1,
          "value": 0.5
        },
        {
          "paramId": 2,
          "value": 0.5
        },
        {
          "paramId": 3,
          "value": 0.5
        },
        {
          "paramId": 4,
          "value": 0.5
        },
        {
          "paramId": 5,
          "value": -0.590000033
        },
        {
          "paramId": 12,
          "value": 0.0
        },
        {
          "paramId": 11,
          "value": 0.0
        },
        {
          "paramId": 6,
          "value": 4.0
        },
        {
          "paramId": 7,
          "value": 0.5
        },
        {
          "paramId": 9,
          "value": 0.0
        },
        {
          "paramId": 10,
          "value": 0.0
        }
      ],
      "data": {
        "pulses_mode": 0
      },
      "pos": [
        0,
        2
      ]
    },
    {
      "plugin": "Fundamental",
      "version": "0.6.2",
      "model": "VCA-1",
      "params": [
        {
          "paramId": 0,
          "value": 0.325500071
        },
        {
          "paramId": 1,
          "value": 1.0
        }
      ],
      "pos": [
        18,
        2
      ]
    },
    {
      "plugin": "Fundamental",
      "version": "0.6.2",
      "model": "VCA-1",
      "params": [
        {
          "paramId": 0,
          "value": 1.0
        },
        {
          "paramId": 1,
          "value": 1.0
        }
      ],
      "pos": [
        70,
        2
      ]
    },
    {
      "plugin": "Fundamental",
      "version": "0.6.2",
      "model": "VCA-1",
      "params": [
        {
          "paramId": 0,
          "value": 1.0
        },
        {
          "paramId": 1,
          "value": 1.0
        }
      ],
      "pos": [
        73,
        2
      ]
    },
    {
      "plugin": "ImpromptuModular",
      "version": "0.6.16",
      "model": "Tact1",
      "params": [
        {
          "paramId": 0,
          "value": -0.476461172
        },
        {
          "paramId": 2,
          "value": 0.200000003
        },
        {
          "paramId": 1,
          "value": 0.204999879
        },
        {
          "paramId": 3,
          "value": 0.0
        }
      ],
      "data": {
        "cv": 0.0,
        "rateMultiplier": 1.0,
        "panelTheme": 0
      },
      "pos": [
        97,
        1
      ]
    },
    {
      "plugin": "ImpromptuModular",
      "version": "0.6.16",
      "model": "Tact1",
      "params": [
        {
          "paramId": 0,
          "value": -0.459999979
        },
        {
          "paramId": 2,
          "value": 0.0
        },
        {
          "paramId": 1,
          "value": 1.0
        },
        {
          "paramId": 3,
          "value": 0.0
        }
      ],
      "data": {
        "cv": 0.0,
        "rateMultiplier": 1.0,
        "panelTheme": 0
      },
      "pos": [
        76,
        2
      ]
    },
    {
      "plugin": "ML_modules",
      "version": "0.6.3",
      "model": "Quantum",
      "params": [
        {
          "paramId": 0,
          "value": 0.0
        },
        {
          "paramId": 1,
          "value": 0.0
        },
        {
          "paramId": 2,
          "value": 0.0
        },
        {
          "paramId": 3,
          "value": 0.0
        },
        {
          "paramId": 4,
          "value": 0.0
        },
        {
          "paramId": 5,
          "value": 0.0
        },
        {
          "paramId": 6,
          "value": 0.0
        },
        {
          "paramId": 7,
          "value": 0.0
        },
        {
          "paramId": 8,
          "value": 0.0
        },
        {
          "paramId": 9,
          "value": 0.0
        },
        {
          "paramId": 10,
          "value": 0.0
        },
        {
          "paramId": 11,
          "value": 0.0
        }
      ],
      "data": {
        "scale": [
          1,
          0,
          0,
          1,
          0,
          0,
          0,
          1,
          0,
          0,
          0,
          0
        ],
        "mode": 1
      },
      "pos": [
        26,
        2
      ]
    },
    {
      "plugin": "Fundamental",
      "version": "0.6.2",
      "model": "VCA-1",
      "params": [
        {
          "paramId": 0,
          "value": 1.0
        },
        {
          "paramId": 1,
          "value": 1.0
        }
      ],
      "pos": [
        88,
        2
      ]
    },
    {
      "plugin": "ML_modules",
      "version": "0.6.3",
      "model": "Sum8",
      "params": [],
      "pos": [
        91,
        2
      ]
    },
    {
      "plugin": "ML_modules",
      "version": "0.6.3",
      "model": "Sum8",
      "params": [],
      "pos": [
        94,
        2
      ]
    },
    {
      "plugin": "ML_modules",
      "version": "0.6.3",
      "model": "Sum8",
      "params": [],
      "pos": [
        43,
        2
      ]
    },
    {
      "plugin": "Fundamental",
      "version": "0.6.2",
      "model": "Mutes",
      "params": [
        {
          "paramId": 0,
          "value": 0.0
        },
        {
          "paramId": 1,
          "value": 0.0
        },
        {
          "paramId": 2,
          "value": 0.0
        },
        {
          "paramId": 3,
          "value": 0.0
        },
        {
          "paramId": 4,
          "value": 0.0
        },
        {
          "paramId": 5,
          "value": 0.0
        },
        {
          "paramId": 6,
          "value": 0.0
        },
        {
          "paramId": 7,
          "value": 0.0
        },
        {
          "paramId": 8,
          "value": 0.0
        },
        {
          "paramId": 9,
          "value": 0.0
        }
      ],
      "data": {
        "states": [
          true,
          true,
          true,
          true,
          true,
          true,
          true,
          true,
          true,
          false
        ]
      },
      "pos": [
        10,
        1
      ]
    },
    {
      "plugin": "ImpromptuModular",
      "version": "0.6.16",
      "model": "Tact1",
      "params": [
        {
          "paramId": 0,
          "value": 10.8200006
        },
        {
          "paramId": 2,
          "value": 0.0
        },
        {
          "paramId": 1,
          "value": 0.86500001
        },
        {
          "paramId": 3,
          "value": 0.0
        }
      ],
      "data": {
        "cv": 10.0,
        "rateMultiplier": 1.0,
        "panelTheme": 0
      },
      "pos": [
        103,
        1
      ]
    },
    {
      "plugin": "ImpromptuModular",
      "version": "0.6.16",
      "model": "Tact1",
      "params": [
        {
          "paramId": 0,
          "value": -1.0
        },
        {
          "paramId": 2,
          "value": 0.0
        },
        {
          "paramId": 1,
          "value": 1.0
        },
        {
          "paramId": 3,
          "value": 0.0
        }
      ],
      "data": {
        "cv": 0.0,
        "rateMultiplier": 1.0,
        "panelTheme": 0
      },
      "pos": [
        82,
        2
      ]
    },
    {
      "plugin": "Befaco",
      "version": "0.6.0",
      "model": "DualAtenuverter",
      "params": [
        {
          "paramId": 0,
          "value": 0.702000022
        },
        {
          "paramId": 1,
          "value": 5.41000128
        },
        {
          "paramId": 2,
          "value": 0.0
        },
        {
          "paramId": 3,
          "value": 0.0
        }
      ],
      "pos": [
        109,
        3
      ]
    },
    {
      "plugin": "VultModulesFree",
      "version": "0.6.26",
      "model": "Trummor2",
      "params": [
        {
          "paramId": 0,
          "value": 0.13880001
        },
        {
          "paramId": 1,
          "value": 0.470000297
        },
        {
          "paramId": 2,
          "value": 0.0
        },
        {
          "paramId": 5,
          "value": 0.0
        },
        {
          "paramId": 3,
          "value": 0.0164999999
        },
        {
          "paramId": 4,
          "value": 0.0
        },
        {
          "paramId": 6,
          "value": 0.0
        },
        {
          "paramId": 7,
          "value": 0.200000003
        },
        {
          "paramId": 8,
          "value": 0.121000037
        },
        {
          "paramId": 9,
          "value": 0.104173303
        },
        {
          "paramId": 10,
          "value": 0.0
        },
        {
          "paramId": 11,
          "value": 0.0970000252
        },
        {
          "paramId": 23,
          "value": 1.0
        },
        {
          "paramId": 12,
          "value": 0.0709999576
        },
        {
          "paramId": 14,
          "value": 0.31799981
        },
        {
          "paramId": 13,
          "value": 0.216999859
        },
        {
          "paramId": 15,
          "value": 0.751925409
        },
        {
          "paramId": 16,
          "value": 0.304499865
        },
        {
          "paramId": 18,
          "value": 0.0870000049
        },
        {
          "paramId": 19,
          "value": 0.201570943
        },
        {
          "paramId": 20,
          "value": 0.0500000007
        },
        {
          "paramId": 17,
          "value": 0.0
        },
        {
          "paramId": 22,
          "value": 0.612947881
        },
        {
          "paramId": 21,
          "value": 0.251267195
        },
        {
          "paramId": 25,
          "value": 0.579999864
        },
        {
          "paramId": 26,
          "value": 0.0
        },
        {
          "paramId": 27,
          "value": 0.602999926
        },
        {
          "paramId": 28,
          "value": 0.0
        },
        {
          "paramId": 29,
          "value": 0.0
        },
        {
          "paramId": 30,
          "value": 0.0
        },
        {
          "paramId": 31,
          "value": 0.0
        },
        {
          "paramId": 32,
          "value": 0.0
        }
      ],
      "data": {
        "mod_a": 11,
        "mod_b": 23,
        "mod_c": 12,
        "mod_d": 11
      },
      "pos": [
        33,
        3
      ]
    },
    {
      "plugin": "Fundamental",
      "version": "0.6.2",
      "model": "VCA-1",
      "params": [
        {
          "paramId": 0,
          "value": 1.0
        },
        {
          "paramId": 1,
          "value": 1.0
        }
      ],
      "pos": [
        67,
        3
      ]
    },
    {
      "plugin": "ImpromptuModular",
      "version": "0.6.16",
      "model": "Tact1",
      "params": [
        {
          "paramId": 0,
          "value": -0.540178239
        },
        {
          "paramId": 2,
          "value": 0.200000003
        },
        {
          "paramId": 1,
          "value": 1.0
        },
        {
          "paramId": 3,
          "value": 0.0
        }
      ],
      "data": {
        "cv": 0.0,
        "rateMultiplier": 1.0,
        "panelTheme": 0
      },
      "pos": [
        70,
        3
      ]
    },
    {
      "plugin": "MSM",
      "version": "0.6.51",
      "model": "Wavefolder",
      "params": [
        {
          "paramId": 6,
          "value": 0.0
        },
        {
          "paramId": 7,
          "value": 3.59410262
        },
        {
          "paramId": 0,
          "value": 0.633749485
        },
        {
          "paramId": 1,
          "value": 0.177437663
        },
        {
          "paramId": 5,
          "value": -0.737927258
        },
        {
          "paramId": 2,
          "value": 0.0
        },
        {
          "paramId": 3,
          "value": 0.186000019
        },
        {
          "paramId": 4,
          "value": 0.274499923
        },
        {
          "paramId": 8,
          "value": 0.631341219
        }
      ],
      "data": {
        "Theme": 0
      },
      "pos": [
        53,
        3
      ]
    },
    {
      "plugin": "Fundamental",
      "version": "0.6.2",
      "model": "Delay",
      "params": [
        {
          "paramId": 0,
          "value": 0.330500007
        },
        {
          "paramId": 1,
          "value": 0.700000405
        },
        {
          "paramId": 2,
          "value": 0.589500189
        },
        {
          "paramId": 3,
          "value": 0.409499973
        }
      ],
      "pos": [
        59,
        3
      ]
    },
    {
      "plugin": "FrozenWasteland",
      "version": "0.6.7",
      "model": "BPMLFO",
      "params": [
        {
          "paramId": 0,
          "value": 14.3515024
        },
        {
          "paramId": 4,
          "value": 0.0
        },
        {
          "paramId": 1,
          "value": 1.0
        },
        {
          "paramId": 2,
          "value": 1.0
        },
        {
          "paramId": 3,
          "value": 1.0
        }
      ],
      "pos": [
        121,
        2
      ]
    },
    {
      "plugin": "Fundamental",
      "version": "0.6.2",
      "model": "8vert",
      "params": [
        {
          "paramId": 0,
          "value": 0.0
        },
        {
          "paramId": 1,
          "value": 0.0
        },
        {
          "paramId": 2,
          "value": 0.0
        },
        {
          "paramId": 3,
          "value": 0.0
        },
        {
          "paramId": 4,
          "value": 0.0
        },
        {
          "paramId": 5,
          "value": 0.0
        },
        {
          "paramId": 6,
          "value": -0.338000059
        },
        {
          "paramId": 7,
          "value": 0.0
        }
      ],
      "pos": [
        101,
        3
      ]
    },
    {
      "plugin": "FrozenWasteland",
      "version": "0.6.7",
      "model": "BPMLFO",
      "params": [
        {
          "paramId": 0,
          "value": 0.0
        },
        {
          "paramId": 4,
          "value": 0.0
        },
        {
          "paramId": 1,
          "value": 1.0
        },
        {
          "paramId": 2,
          "value": 1.0
        },
        {
          "paramId": 3,
          "value": 1.0
        }
      ],
      "pos": [
        101,
        2
      ]
    },
    {
      "plugin": "FrozenWasteland",
      "version": "0.6.7",
      "model": "BPMLFO",
      "params": [
        {
          "paramId": 0,
          "value": 11.3305063
        },
        {
          "paramId": 4,
          "value": 0.56400007
        },
        {
          "paramId": 1,
          "value": 1.0
        },
        {
          "paramId": 2,
          "value": 1.0
        },
        {
          "paramId": 3,
          "value": 1.0
        }
      ],
      "pos": [
        111,
        2
      ]
    },
    {
      "plugin": "Befaco",
      "version": "0.6.0",
      "model": "EvenVCO",
      "params": [
        {
          "paramId": 0,
          "value": -3.0
        },
        {
          "paramId": 1,
          "value": 0.0
        },
        {
          "paramId": 2,
          "value": 0.0
        }
      ],
      "pos": [
        50,
        4
      ]
    },
    {
      "plugin": "Fundamental",
      "version": "0.6.2",
      "model": "VCA-1",
      "params": [
        {
          "paramId": 0,
          "value": 1.0
        },
        {
          "paramId": 1,
          "value": 0.690252244
        }
      ],
      "pos": [
        58,
        4
      ]
    },
    {
      "plugin": "Valley",
      "version": "0.6.16",
      "model": "Plateau",
      "params": [
        {
          "paramId": 0,
          "value": 0.0
        },
        {
          "paramId": 1,
          "value": 1.0
        },
        {
          "paramId": 2,
          "value": 0.0
        },
        {
          "paramId": 3,
          "value": 10.0
        },
        {
          "paramId": 4,
          "value": 10.0
        },
        {
          "paramId": 5,
          "value": 0.5
        },
        {
          "paramId": 6,
          "value": 10.0
        },
        {
          "paramId": 7,
          "value": 0.549950004
        },
        {
          "paramId": 9,
          "value": 10.0
        },
        {
          "paramId": 8,
          "value": 10.0
        },
        {
          "paramId": 10,
          "value": 0.200999752
        },
        {
          "paramId": 12,
          "value": 2.04000235
        },
        {
          "paramId": 11,
          "value": 0.5
        },
        {
          "paramId": 17,
          "value": 0.0
        },
        {
          "paramId": 18,
          "value": 0.0
        },
        {
          "paramId": 19,
          "value": 0.0
        },
        {
          "paramId": 20,
          "value": 0.0
        },
        {
          "paramId": 21,
          "value": 0.0
        },
        {
          "paramId": 22,
          "value": 0.0
        },
        {
          "paramId": 23,
          "value": 0.0
        },
        {
          "paramId": 25,
          "value": 0.0
        },
        {
          "paramId": 24,
          "value": 0.0
        },
        {
          "paramId": 26,
          "value": 0.0
        },
        {
          "paramId": 27,
          "value": 0.0
        },
        {
          "paramId": 28,
          "value": 0.0
        },
        {
          "paramId": 13,
          "value": 0.0
        },
        {
          "paramId": 15,
          "value": 0.0
        },
        {
          "paramId": 14,
          "value": 0.0
        },
        {
          "paramId": 29,
          "value": 0.0
        },
        {
          "paramId": 30,
          "value": 0.0
        }
      ],
      "data": {
        "frozen": false,
        "freezeToggle": false,
        "panelStyle": 0,
        "tuned": 0,
        "diffuseInput": 1,
        "preDelayCVSens": 0,
        "inputSensitivity": 0,
        "outputSaturation": 0
      },
      "pos": [
        61,
        4
      ]
    },
    {
      "plugin": "Befaco",
      "version": "0.6.0",
      "model": "Rampage",
      "params": [
        {
          "paramId": 0,
          "value": 2.0
        },
        {
          "paramId": 2,
          "value": -0.471000135
        },
        {
          "paramId": 4,
          "value": 0.0
        },
        {
          "paramId": 6,
          "value": 0.0839999989
        },
        {
          "paramId": 8,
          "value": 0.831999898
        },
        {
          "paramId": 10,
          "value": 0.0
        },
        {
          "paramId": 1,
          "value": 0.0
        },
        {
          "paramId": 3,
          "value": 0.0
        },
        {
          "paramId": 5,
          "value": 0.0
        },
        {
          "paramId": 7,
          "value": 0.0
        },
        {
          "paramId": 9,
          "value": 0.0
        },
        {
          "paramId": 11,
          "value": 0.0
        },
        {
          "paramId": 12,
          "value": 0.5
        }
      ],
      "pos": [
        32,
        4
      ]
    },
    {
      "plugin": "FrozenWasteland",
      "version": "0.6.7",
      "model": "BPMLFO",
      "params": [
        {
          "paramId": 0,
          "value": 2.94324923
        },
        {
          "paramId": 4,
          "value": 0.0
        },
        {
          "paramId": 1,
          "value": 1.0
        },
        {
          "paramId": 2,
          "value": 1.0
        },
        {
          "paramId": 3,
          "value": 1.0
        }
      ],
      "pos": [
        22,
        4
      ]
    },
    {
      "plugin": "Fundamental",
      "version": "0.6.2",
      "model": "VCA-1",
      "params": [
        {
          "paramId": 0,
          "value": 1.0
        },
        {
          "paramId": 1,
          "value": 1.0
        }
      ],
      "pos": [
        75,
        4
      ]
    },
    {
      "plugin": "Fundamental",
      "version": "0.6.2",
      "model": "VCA-1",
      "params": [
        {
          "paramId": 0,
          "value": 1.0
        },
        {
          "paramId": 1,
          "value": 1.0
        }
      ],
      "pos": [
        78,
        4
      ]
    },
    {
      "plugin": "ImpromptuModular",
      "version": "0.6.16",
      "model": "Tact1",
      "params": [
        {
          "paramId": 0,
          "value": -0.46584475
        },
        {
          "paramId": 2,
          "value": 4.0
        },
        {
          "paramId": 1,
          "value": 1.0
        },
        {
          "paramId": 3,
          "value": 0.0
        }
      ],
      "data": {
        "cv": 0.0,
        "rateMultiplier": 1.0,
        "panelTheme": 0
      },
      "pos": [
        81,
        4
      ]
    },
    {
      "plugin": "FrozenWasteland",
      "version": "0.6.7",
      "model": "BPMLFO",
      "params": [
        {
          "paramId": 0,
          "value": 10.5752554
        },
        {
          "paramId": 4,
          "value": 0.56400007
        },
        {
          "paramId": 1,
          "value": 1.0
        },
        {
          "paramId": 2,
          "value": 1.0
        },
        {
          "paramId": 3,
          "value": 1.0
        }
      ],
      "pos": [
        131,
        2
      ]
    },
    {
      "plugin": "Fundamental",
      "version": "0.6.2",
      "model": "SEQ3",
      "params": [
        {
          "paramId": 0,
          "value": 2.0
        },
        {
          "paramId": 1,
          "value": 0.0
        },
        {
          "paramId": 2,
          "value": 0.0
        },
        {
          "paramId": 3,
          "value": 8.0
        },
        {
          "paramId": 4,
          "value": 0.0
        },
        {
          "paramId": 12,
          "value": 0.0
        },
        {
          "paramId": 20,
          "value": 0.0
        },
        {
          "paramId": 28,
          "value": 0.0
        },
        {
          "paramId": 5,
          "value": 4.90000057
        },
        {
          "paramId": 13,
          "value": 0.0
        },
        {
          "paramId": 21,
          "value": 0.0
        },
        {
          "paramId": 29,
          "value": 0.0
        },
        {
          "paramId": 6,
          "value": 4.95999861
        },
        {
          "paramId": 14,
          "value": 0.0
        },
        {
          "paramId": 22,
          "value": 0.0
        },
        {
          "paramId": 30,
          "value": 0.0
        },
        {
          "paramId": 7,
          "value": 10.0
        },
        {
          "paramId": 15,
          "value": 0.0
        },
        {
          "paramId": 23,
          "value": 0.0
        },
        {
          "paramId": 31,
          "value": 0.0
        },
        {
          "paramId": 8,
          "value": 0.0
        },
        {
          "paramId": 16,
          "value": 0.0
        },
        {
          "paramId": 24,
          "value": 0.0
        },
        {
          "paramId": 32,
          "value": 0.0
        },
        {
          "paramId": 9,
          "value": 5.28000116
        },
        {
          "paramId": 17,
          "value": 0.0
        },
        {
          "paramId": 25,
          "value": 0.0
        },
        {
          "paramId": 33,
          "value": 0.0
        },
        {
          "paramId": 10,
          "value": 10.0
        },
        {
          "paramId": 18,
          "value": 0.0
        },
        {
          "paramId": 26,
          "value": 0.0
        },
        {
          "paramId": 34,
          "value": 0.0
        },
        {
          "paramId": 11,
          "value": 5.04999924
        },
        {
          "paramId": 19,
          "value": 0.0
        },
        {
          "paramId": 27,
          "value": 0.0
        },
        {
          "paramId": 35,
          "value": 0.0
        }
      ],
      "data": {
        "running": true,
        "gates": [
          1,
          1,
          1,
          1,
          1,
          1,
          1,
          1
        ]
      },
      "pos": [
        0,
        4
      ]
    },
    {
      "plugin": "ML_modules",
      "version": "0.6.3",
      "model": "Quantum",
      "params": [
        {
          "paramId": 0,
          "value": 0.0
        },
        {
          "paramId": 1,
          "value": 0.0
        },
        {
          "paramId": 2,
          "value": 0.0
        },
        {
          "paramId": 3,
          "value": 0.0
        },
        {
          "paramId": 4,
          "value": 0.0
        },
        {
          "paramId": 5,
          "value": 0.0
        },
        {
          "paramId": 6,
          "value": 0.0
        },
        {
          "paramId": 7,
          "value": 0.0
        },
        {
          "paramId": 8,
          "value": 0.0
        },
        {
          "paramId": 9,
          "value": 0.0
        },
        {
          "paramId": 10,
          "value": 0.0
        },
        {
          "paramId": 11,
          "value": 0.0
        }
      ],
      "data": {
        "scale": [
          1,
          0,
          0,
          1,
          0,
          0,
          0,
          1,
          0,
          0,
          0,
          0
        ],
        "mode": 1
      },
      "pos": [
        3,
        3
      ]
    },
    {
      "plugin": "Fundamental",
      "version": "0.6.2",
      "model": "VCA-1",
      "params": [
        {
          "paramId": 0,
          "value": 0.0600000024
        },
        {
          "paramId": 1,
          "value": 1.0
        }
      ],
      "pos": [
        0,
        3
      ]
    },
    {
      "plugin": "Skylights",
      "version": "0.6.5",
      "model": "SkWhatnoteCV",
      "params": [],
      "pos": [
        24,
        3
      ]
    },
    {
      "plugin": "Skylights",
      "version": "0.6.5",
      "model": "SkWhatnoteCV",
      "params": [],
      "pos": [
        11,
        3
      ]
    },
    {
      "plugin": "NYSTHI",
      "version": "0.6.42",
      "model": "MasterRecorder2",
      "params": [
        {
          "paramId": 0,
          "value": 0.0
        },
        {
          "paramId": 1,
          "value": 0.0
        },
        {
          "paramId": 2,
          "value": 0.0
        },
        {
          "paramId": 8,
          "value": 0.0
        },
        {
          "paramId": 9,
          "value": 0.00499999989
        },
        {
          "paramId": 10,
          "value": 0.00999999978
        },
        {
          "paramId": 11,
          "value": 2.0
        },
        {
          "paramId": 12,
          "value": 0.5
        },
        {
          "paramId": 3,
          "value": 1.0
        },
        {
          "paramId": 4,
          "value": 1.0
        },
        {
          "paramId": 13,
          "value": 0.0
        },
        {
          "paramId": 14,
          "value": 0.100000001
        },
        {
          "paramId": 5,
          "value": 0.0
        },
        {
          "paramId": 6,
          "value": 0.0
        },
        {
          "paramId": 7,
          "value": 0.0
        }
      ],
      "data": {
        "nysthi_id": "MR2_VpqljKUg",
        "wavebits": 9,
        "rms_time": 0.00100000005,
        "peak_time": 0.5,
        "m_invertphaseleft": false,
        "m_invertphaseright": false,
        "m_locklevelleftright": false,
        "m_kompressor_active": false,
        "m_autosave": true,
        "m_distort": false
      },
      "pos": [
        174,
        0
      ]
    },
    {
      "plugin": "Befaco",
      "version": "0.6.0",
      "model": "DualAtenuverter",
      "params": [
        {
          "paramId": 0,
          "value": 0.549999952
        },
        {
          "paramId": 1,
          "value": -0.809999943
        },
        {
          "paramId": 2,
          "value": 0.0
        },
        {
          "paramId": 3,
          "value": 0.0
        }
      ],
      "pos": [
        21,
        2
      ]
    },
    {
      "plugin": "AudibleInstruments",
      "version": "0.6.3",
      "model": "Plaits",
      "params": [
        {
          "paramId": 0,
          "value": 0.0
        },
        {
          "paramId": 1,
          "value": 0.0
        },
        {
          "paramId": 2,
          "value": 0.0
        },
        {
          "paramId": 3,
          "value": 0.129000008
        },
        {
          "paramId": 4,
          "value": 0.263999581
        },
        {
          "paramId": 5,
          "value": 1.0
        },
        {
          "paramId": 6,
          "value": 0.0
        },
        {
          "paramId": 7,
          "value": 0.0
        },
        {
          "paramId": 8,
          "value": 0.0
        }
      ],
      "data": {
        "lowCpu": false,
        "model": 8,
        "lpgColor": 0.5,
        "decay": 0.5
      },
      "pos": [
        18,
        1
      ]
    }
  ],
  "wires": [
    {
      "color": "#0986ad",
      "outputModuleId": 0,
      "outputId": 0,
      "inputModuleId": 1,
      "inputId": 0
    },
    {
      "color": "#0986ad",
      "outputModuleId": 0,
      "outputId": 1,
      "inputModuleId": 1,
      "inputId": 1
    },
    {
      "color": "#0986ad",
      "outputModuleId": 2,
      "outputId": 1,
      "inputModuleId": 7,
      "inputId": 1
    },
    {
      "color": "#c91847",
      "outputModuleId": 8,
      "outputId": 0,
      "inputModuleId": 5,
      "inputId": 1
    },
    {
      "color": "#c91847",
      "outputModuleId": 8,
      "outputId": 0,
      "inputModuleId": 7,
      "inputId": 0
    },
    {
      "color": "#0986ad",
      "outputModuleId": 3,
      "outputId": 0,
      "inputModuleId": 9,
      "inputId": 1
    },
    {
      "color": "#c9b70e",
      "outputModuleId": 9,
      "outputId": 0,
      "inputModuleId": 2,
      "inputId": 1
    },
    {
      "color": "#0c8e15",
      "outputModuleId": 9,
      "outputId": 0,
      "inputModuleId": 5,
      "inputId": 0
    },
    {
      "color": "#c91847",
      "outputModuleId": 7,
      "outputId": 0,
      "inputModuleId": 6,
      "inputId": 1
    },
    {
      "color": "#0986ad",
      "outputModuleId": 6,
      "outputId": 0,
      "inputModuleId": 10,
      "inputId": 1
    },
    {
      "color": "#c9b70e",
      "outputModuleId": 6,
      "outputId": 1,
      "inputModuleId": 11,
      "inputId": 1
    },
    {
      "color": "#c91847",
      "outputModuleId": 10,
      "outputId": 0,
      "inputModuleId": 12,
      "inputId": 1
    },
    {
      "color": "#0c8e15",
      "outputModuleId": 11,
      "outputId": 0,
      "inputModuleId": 13,
      "inputId": 1
    },
    {
      "color": "#0c8e15",
      "outputModuleId": 12,
      "outputId": 0,
      "inputModuleId": 0,
      "inputId": 0
    },
    {
      "color": "#0986ad",
      "outputModuleId": 13,
      "outputId": 0,
      "inputModuleId": 0,
      "inputId": 16
    },
    {
      "color": "#c9b70e",
      "outputModuleId": 7,
      "outputId": 0,
      "inputModuleId": 14,
      "inputId": 1
    },
    {
      "color": "#c91847",
      "outputModuleId": 14,
      "outputId": 0,
      "inputModuleId": 12,
      "inputId": 0
    },
    {
      "color": "#0c8e15",
      "outputModuleId": 14,
      "outputId": 0,
      "inputModuleId": 13,
      "inputId": 0
    },
    {
      "color": "#c9b70e",
      "outputModuleId": 4,
      "outputId": 0,
      "inputModuleId": 3,
      "inputId": 4
    },
    {
      "color": "#c91847",
      "outputModuleId": 4,
      "outputId": 0,
      "inputModuleId": 8,
      "inputId": 4
    },
    {
      "color": "#0986ad",
      "outputModuleId": 19,
      "outputId": 14,
      "inputModuleId": 58,
      "inputId": 0
    },
    {
      "color": "#0986ad",
      "outputModuleId": 4,
      "outputId": 1,
      "inputModuleId": 19,
      "inputId": 0
    },
    {
      "color": "#0c8e15",
      "outputModuleId": 18,
      "outputId": 0,
      "inputModuleId": 21,
      "inputId": 1
    },
    {
      "color": "#0986ad",
      "outputModuleId": 18,
      "outputId": 1,
      "inputModuleId": 22,
      "inputId": 1
    },
    {
      "color": "#0c8e15",
      "outputModuleId": 23,
      "outputId": 0,
      "inputModuleId": 10,
      "inputId": 0
    },
    {
      "color": "#0986ad",
      "outputModuleId": 23,
      "outputId": 0,
      "inputModuleId": 11,
      "inputId": 0
    },
    {
      "color": "#c91847",
      "outputModuleId": 24,
      "outputId": 0,
      "inputModuleId": 21,
      "inputId": 0
    },
    {
      "color": "#0c8e15",
      "outputModuleId": 24,
      "outputId": 0,
      "inputModuleId": 22,
      "inputId": 0
    },
    {
      "color": "#c9b70e",
      "outputModuleId": 19,
      "outputId": 0,
      "inputModuleId": 29,
      "inputId": 0
    },
    {
      "color": "#c91847",
      "outputModuleId": 17,
      "outputId": 0,
      "inputModuleId": 26,
      "inputId": 1
    },
    {
      "color": "#0c8e15",
      "outputModuleId": 22,
      "outputId": 0,
      "inputModuleId": 27,
      "inputId": 1
    },
    {
      "color": "#0986ad",
      "outputModuleId": 21,
      "outputId": 0,
      "inputModuleId": 28,
      "inputId": 1
    },
    {
      "color": "#0c8e15",
      "outputModuleId": 27,
      "outputId": 0,
      "inputModuleId": 0,
      "inputId": 1
    },
    {
      "color": "#0986ad",
      "outputModuleId": 28,
      "outputId": 0,
      "inputModuleId": 0,
      "inputId": 17
    },
    {
      "color": "#0c8e15",
      "outputModuleId": 17,
      "outputId": 0,
      "inputModuleId": 18,
      "inputId": 0
    },
    {
      "color": "#0986ad",
      "outputModuleId": 17,
      "outputId": 0,
      "inputModuleId": 18,
      "inputId": 1
    },
    {
      "color": "#0986ad",
      "outputModuleId": 26,
      "outputId": 0,
      "inputModuleId": 27,
      "inputId": 0
    },
    {
      "color": "#c9b70e",
      "outputModuleId": 26,
      "outputId": 0,
      "inputModuleId": 28,
      "inputId": 0
    },
    {
      "color": "#0986ad",
      "outputModuleId": 29,
      "outputId": 0,
      "inputModuleId": 16,
      "inputId": 4
    },
    {
      "color": "#0c8e15",
      "outputModuleId": 30,
      "outputId": 9,
      "inputModuleId": 29,
      "inputId": 1
    },
    {
      "color": "#0986ad",
      "outputModuleId": 31,
      "outputId": 0,
      "inputModuleId": 14,
      "inputId": 0
    },
    {
      "color": "#c9b70e",
      "outputModuleId": 32,
      "outputId": 0,
      "inputModuleId": 26,
      "inputId": 0
    },
    {
      "color": "#0986ad",
      "outputModuleId": 41,
      "outputId": 0,
      "inputModuleId": 33,
      "inputId": 0
    },
    {
      "color": "#0c8e15",
      "outputModuleId": 36,
      "outputId": 0,
      "inputModuleId": 35,
      "inputId": 0
    },
    {
      "color": "#c9b70e",
      "outputModuleId": 35,
      "outputId": 0,
      "inputModuleId": 0,
      "inputId": 2
    },
    {
      "color": "#c91847",
      "outputModuleId": 4,
      "outputId": 2,
      "inputModuleId": 34,
      "inputId": 0
    },
    {
      "color": "#c91847",
      "outputModuleId": 39,
      "outputId": 0,
      "inputModuleId": 40,
      "inputId": 7
    },
    {
      "color": "#0c8e15",
      "outputModuleId": 40,
      "outputId": 7,
      "inputModuleId": 38,
      "inputId": 2
    },
    {
      "color": "#0986ad",
      "outputModuleId": 4,
      "outputId": 0,
      "inputModuleId": 39,
      "inputId": 0
    },
    {
      "color": "#c9b70e",
      "outputModuleId": 38,
      "outputId": 0,
      "inputModuleId": 35,
      "inputId": 1
    },
    {
      "color": "#c91847",
      "outputModuleId": 41,
      "outputId": 0,
      "inputModuleId": 34,
      "inputId": 3
    },
    {
      "color": "#0c8e15",
      "outputModuleId": 4,
      "outputId": 0,
      "inputModuleId": 41,
      "inputId": 0
    },
    {
      "color": "#0986ad",
      "outputModuleId": 34,
      "outputId": 0,
      "inputModuleId": 37,
      "inputId": 0
    },
    {
      "color": "#c9b70e",
      "outputModuleId": 37,
      "outputId": 0,
      "inputModuleId": 38,
      "inputId": 4
    },
    {
      "color": "#0c8e15",
      "outputModuleId": 41,
      "outputId": 1,
      "inputModuleId": 40,
      "inputId": 6
    },
    {
      "color": "#0986ad",
      "outputModuleId": 40,
      "outputId": 6,
      "inputModuleId": 38,
      "inputId": 3
    },
    {
      "color": "#c9b70e",
      "outputModuleId": 41,
      "outputId": 3,
      "inputModuleId": 42,
      "inputId": 0
    },
    {
      "color": "#c91847",
      "outputModuleId": 42,
      "outputId": 1,
      "inputModuleId": 34,
      "inputId": 5
    },
    {
      "color": "#0986ad",
      "outputModuleId": 41,
      "outputId": 2,
      "inputModuleId": 42,
      "inputId": 1
    },
    {
      "color": "#c9b70e",
      "outputModuleId": 43,
      "outputId": 2,
      "inputModuleId": 44,
      "inputId": 1
    },
    {
      "color": "#c91847",
      "outputModuleId": 4,
      "outputId": 0,
      "inputModuleId": 47,
      "inputId": 0
    },
    {
      "color": "#0c8e15",
      "outputModuleId": 47,
      "outputId": 3,
      "inputModuleId": 46,
      "inputId": 2
    },
    {
      "color": "#0986ad",
      "outputModuleId": 46,
      "outputId": 6,
      "inputModuleId": 44,
      "inputId": 0
    },
    {
      "color": "#c9b70e",
      "outputModuleId": 44,
      "outputId": 0,
      "inputModuleId": 45,
      "inputId": 0
    },
    {
      "color": "#0c8e15",
      "outputModuleId": 45,
      "outputId": 0,
      "inputModuleId": 48,
      "inputId": 1
    },
    {
      "color": "#0986ad",
      "outputModuleId": 45,
      "outputId": 1,
      "inputModuleId": 49,
      "inputId": 1
    },
    {
      "color": "#c91847",
      "outputModuleId": 48,
      "outputId": 0,
      "inputModuleId": 0,
      "inputId": 3
    },
    {
      "color": "#0c8e15",
      "outputModuleId": 49,
      "outputId": 0,
      "inputModuleId": 0,
      "inputId": 19
    },
    {
      "color": "#0986ad",
      "outputModuleId": 50,
      "outputId": 0,
      "inputModuleId": 48,
      "inputId": 0
    },
    {
      "color": "#c9b70e",
      "outputModuleId": 50,
      "outputId": 0,
      "inputModuleId": 49,
      "inputId": 0
    },
    {
      "color": "#c91847",
      "outputModuleId": 41,
      "outputId": 3,
      "inputModuleId": 51,
      "inputId": 0
    },
    {
      "color": "#c9b70e",
      "outputModuleId": 19,
      "outputId": 3,
      "inputModuleId": 30,
      "inputId": 9
    },
    {
      "color": "#c91847",
      "outputModuleId": 52,
      "outputId": 1,
      "inputModuleId": 54,
      "inputId": 1
    },
    {
      "color": "#c9b70e",
      "outputModuleId": 53,
      "outputId": 0,
      "inputModuleId": 43,
      "inputId": 1
    },
    {
      "color": "#c91847",
      "outputModuleId": 47,
      "outputId": 3,
      "inputModuleId": 52,
      "inputId": 1
    },
    {
      "color": "#0986ad",
      "outputModuleId": 54,
      "outputId": 0,
      "inputModuleId": 53,
      "inputId": 0
    },
    {
      "color": "#0c8e15",
      "outputModuleId": 53,
      "outputId": 0,
      "inputModuleId": 56,
      "inputId": 0
    },
    {
      "color": "#0986ad",
      "outputModuleId": 25,
      "outputId": 0,
      "inputModuleId": 55,
      "inputId": 0
    },
    {
      "color": "#0986ad",
      "outputModuleId": 0,
      "outputId": 0,
      "inputModuleId": 57,
      "inputId": 0
    },
    {
      "color": "#c9b70e",
      "outputModuleId": 0,
      "outputId": 1,
      "inputModuleId": 57,
      "inputId": 1
    },
    {
      "color": "#c91847",
      "outputModuleId": 4,
      "outputId": 4,
      "inputModuleId": 41,
      "inputId": 2
    },
    {
      "color": "#0c8e15",
      "outputModuleId": 4,
      "outputId": 4,
      "inputModuleId": 42,
      "inputId": 2
    },
    {
      "color": "#0986ad",
      "outputModuleId": 4,
      "outputId": 4,
      "inputModuleId": 39,
      "inputId": 2
    },
    {
      "color": "#c9b70e",
      "outputModuleId": 4,
      "outputId": 4,
      "inputModuleId": 51,
      "inputId": 2
    },
    {
      "color": "#0c8e15",
      "outputModuleId": 25,
      "outputId": 0,
      "inputModuleId": 15,
      "inputId": 1
    },
    {
      "color": "#c9b70e",
      "outputModuleId": 58,
      "outputId": 0,
      "inputModuleId": 25,
      "inputId": 0
    },
    {
      "color": "#c91847",
      "outputModuleId": 25,
      "outputId": 0,
      "inputModuleId": 59,
      "inputId": 7
    },
    {
      "color": "#0c8e15",
      "outputModuleId": 59,
      "outputId": 0,
      "inputModuleId": 17,
      "inputId": 1
    },
    {
      "color": "#0986ad",
      "outputModuleId": 16,
      "outputId": 0,
      "inputModuleId": 17,
      "inputId": 0
    },
    {
      "color": "#c9b70e",
      "outputModuleId": 7,
      "outputId": 0,
      "inputModuleId": 6,
      "inputId": 0
    }
  ]
}