{
  "version": "0.6.2c",
  "modules": [
    {
      "plugin": "Core",
      "version": "0.6.2c",
      "model": "AudioInterface",
      "params": [],
      "data": {
        "audio": {
          "driver": 1,
          "deviceName": "default",
          "offset": 0,
          "maxChannels": 8,
          "sampleRate": 44100,
          "blockSize": 256
        }
      },
      "pos": [
        0,
        0
      ]
    },
    {
      "plugin": "Befaco",
      "version": "0.6.0",
      "model": "EvenVCO",
      "params": [
        {
          "paramId": 0,
          "value": -2.0
        },
        {
          "paramId": 1,
          "value": 0.0
        },
        {
          "paramId": 2,
          "value": 0.0
        }
      ],
      "pos": [
        28,
        1
      ]
    },
    {
      "plugin": "mscHack",
      "version": "0.6.3",
      "model": "Mix_9_3_4",
      "params": [
        {
          "paramId": 81,
          "value": 0.0
        },
        {
          "paramId": 82,
          "value": 0.0
        },
        {
          "paramId": 83,
          "value": 0.0
        },
        {
          "paramId": 84,
          "value": 0.0
        },
        {
          "paramId": 33,
          "value": 0.5
        },
        {
          "paramId": 49,
          "value": 0.5
        },
        {
          "paramId": 65,
          "value": 0.5
        },
        {
          "paramId": 17,
          "value": 0.0
        },
        {
          "paramId": 1,
          "value": 0.0
        },
        {
          "paramId": 85,
          "value": 0.0
        },
        {
          "paramId": 86,
          "value": 0.0
        },
        {
          "paramId": 87,
          "value": 0.0
        },
        {
          "paramId": 88,
          "value": 0.0
        },
        {
          "paramId": 34,
          "value": 0.5
        },
        {
          "paramId": 50,
          "value": 0.5
        },
        {
          "paramId": 66,
          "value": 0.5
        },
        {
          "paramId": 18,
          "value": 0.0
        },
        {
          "paramId": 2,
          "value": 1.0
        },
        {
          "paramId": 89,
          "value": 0.0
        },
        {
          "paramId": 90,
          "value": 0.0
        },
        {
          "paramId": 91,
          "value": 0.0
        },
        {
          "paramId": 92,
          "value": 0.0
        },
        {
          "paramId": 35,
          "value": 0.5
        },
        {
          "paramId": 51,
          "value": 0.5
        },
        {
          "paramId": 67,
          "value": 0.5
        },
        {
          "paramId": 19,
          "value": 0.0
        },
        {
          "paramId": 3,
          "value": 0.0
        },
        {
          "paramId": 93,
          "value": 0.0
        },
        {
          "paramId": 94,
          "value": 0.0
        },
        {
          "paramId": 95,
          "value": 0.0
        },
        {
          "paramId": 96,
          "value": 0.0
        },
        {
          "paramId": 36,
          "value": 0.5
        },
        {
          "paramId": 52,
          "value": 0.5
        },
        {
          "paramId": 68,
          "value": 0.5
        },
        {
          "paramId": 20,
          "value": 0.0
        },
        {
          "paramId": 4,
          "value": 0.0
        },
        {
          "paramId": 97,
          "value": 0.0
        },
        {
          "paramId": 98,
          "value": 0.0
        },
        {
          "paramId": 99,
          "value": 0.0
        },
        {
          "paramId": 100,
          "value": 0.0
        },
        {
          "paramId": 37,
          "value": 0.5
        },
        {
          "paramId": 53,
          "value": 0.5
        },
        {
          "paramId": 69,
          "value": 0.5
        },
        {
          "paramId": 21,
          "value": 0.0
        },
        {
          "paramId": 5,
          "value": 0.0
        },
        {
          "paramId": 101,
          "value": 0.0
        },
        {
          "paramId": 102,
          "value": 0.0
        },
        {
          "paramId": 103,
          "value": 0.0
        },
        {
          "paramId": 104,
          "value": 0.0
        },
        {
          "paramId": 38,
          "value": 0.5
        },
        {
          "paramId": 54,
          "value": 0.5
        },
        {
          "paramId": 70,
          "value": 0.5
        },
        {
          "paramId": 22,
          "value": 0.0
        },
        {
          "paramId": 6,
          "value": 0.0
        },
        {
          "paramId": 105,
          "value": 0.0
        },
        {
          "paramId": 106,
          "value": 0.0
        },
        {
          "paramId": 107,
          "value": 0.0
        },
        {
          "paramId": 108,
          "value": 0.0
        },
        {
          "paramId": 39,
          "value": 0.5
        },
        {
          "paramId": 55,
          "value": 0.5
        },
        {
          "paramId": 71,
          "value": 0.5
        },
        {
          "paramId": 23,
          "value": 0.0
        },
        {
          "paramId": 7,
          "value": 0.0
        },
        {
          "paramId": 109,
          "value": 0.0
        },
        {
          "paramId": 110,
          "value": 0.0
        },
        {
          "paramId": 111,
          "value": 0.0
        },
        {
          "paramId": 112,
          "value": 0.0
        },
        {
          "paramId": 40,
          "value": 0.5
        },
        {
          "paramId": 56,
          "value": 0.5
        },
        {
          "paramId": 72,
          "value": 0.5
        },
        {
          "paramId": 24,
          "value": 0.0
        },
        {
          "paramId": 8,
          "value": 0.0
        },
        {
          "paramId": 113,
          "value": 0.0
        },
        {
          "paramId": 114,
          "value": 0.0
        },
        {
          "paramId": 115,
          "value": 0.0
        },
        {
          "paramId": 116,
          "value": 0.0
        },
        {
          "paramId": 41,
          "value": 0.5
        },
        {
          "paramId": 57,
          "value": 0.5
        },
        {
          "paramId": 73,
          "value": 0.5
        },
        {
          "paramId": 25,
          "value": 0.0
        },
        {
          "paramId": 9,
          "value": 0.0
        },
        {
          "paramId": 117,
          "value": 0.0
        },
        {
          "paramId": 118,
          "value": 0.0
        },
        {
          "paramId": 119,
          "value": 0.0
        },
        {
          "paramId": 120,
          "value": 0.0
        },
        {
          "paramId": 42,
          "value": 0.5
        },
        {
          "paramId": 58,
          "value": 0.5
        },
        {
          "paramId": 74,
          "value": 0.5
        },
        {
          "paramId": 26,
          "value": 0.0
        },
        {
          "paramId": 10,
          "value": 0.0
        },
        {
          "paramId": 121,
          "value": 0.0
        },
        {
          "paramId": 122,
          "value": 0.0
        },
        {
          "paramId": 123,
          "value": 0.0
        },
        {
          "paramId": 124,
          "value": 0.0
        },
        {
          "paramId": 43,
          "value": 0.5
        },
        {
          "paramId": 59,
          "value": 0.5
        },
        {
          "paramId": 75,
          "value": 0.5
        },
        {
          "paramId": 27,
          "value": 0.0
        },
        {
          "paramId": 11,
          "value": 0.0
        },
        {
          "paramId": 125,
          "value": 0.0
        },
        {
          "paramId": 126,
          "value": 0.0
        },
        {
          "paramId": 127,
          "value": 0.0
        },
        {
          "paramId": 128,
          "value": 0.0
        },
        {
          "paramId": 44,
          "value": 0.5
        },
        {
          "paramId": 60,
          "value": 0.5
        },
        {
          "paramId": 76,
          "value": 0.5
        },
        {
          "paramId": 28,
          "value": 0.0
        },
        {
          "paramId": 12,
          "value": 0.0
        },
        {
          "paramId": 129,
          "value": 0.0
        },
        {
          "paramId": 45,
          "value": 0.5
        },
        {
          "paramId": 61,
          "value": 0.5
        },
        {
          "paramId": 77,
          "value": 0.5
        },
        {
          "paramId": 29,
          "value": 0.0
        },
        {
          "paramId": 13,
          "value": 0.0
        },
        {
          "paramId": 130,
          "value": 0.0
        },
        {
          "paramId": 46,
          "value": 0.5
        },
        {
          "paramId": 62,
          "value": 0.5
        },
        {
          "paramId": 78,
          "value": 0.5
        },
        {
          "paramId": 30,
          "value": 0.0
        },
        {
          "paramId": 14,
          "value": 0.0
        },
        {
          "paramId": 131,
          "value": 0.0
        },
        {
          "paramId": 47,
          "value": 0.5
        },
        {
          "paramId": 63,
          "value": 0.5
        },
        {
          "paramId": 79,
          "value": 0.5
        },
        {
          "paramId": 31,
          "value": 0.0
        },
        {
          "paramId": 15,
          "value": 0.0
        },
        {
          "paramId": 132,
          "value": 0.0
        },
        {
          "paramId": 48,
          "value": 0.5
        },
        {
          "paramId": 64,
          "value": 0.5
        },
        {
          "paramId": 80,
          "value": 0.5
        },
        {
          "paramId": 32,
          "value": 0.0
        },
        {
          "paramId": 16,
          "value": 0.0
        },
        {
          "paramId": 0,
          "value": 0.5
        }
      ],
      "data": {
        "m_bMuteStates": [
          false,
          false,
          false,
          false,
          false,
          false,
          false,
          false,
          false,
          false,
          false,
          false,
          false,
          false,
          false,
          false
        ],
        "m_bSoloStates": [
          false,
          false,
          false,
          false,
          false,
          false,
          false,
          false,
          false,
          false,
          false,
          false,
          false,
          false,
          false,
          false
        ],
        "m_iRouteGroup": [
          3,
          3,
          3,
          3,
          3,
          3,
          3,
          3,
          3
        ],
        "m_bGroupPreMute": [
          true
        ],
        "m_bGainLevelx2": [
          false
        ],
        "m_bPreFader": [
          false,
          false,
          false,
          false,
          false,
          false,
          false,
          false,
          false,
          false,
          false,
          false
        ],
        "m_bAuxIgnoreSolo": [
          false
        ]
      },
      "pos": [
        10,
        0
      ]
    },
    {
      "plugin": "Fundamental",
      "version": "0.6.2",
      "model": "ADSR",
      "params": [
        {
          "paramId": 0,
          "value": 0.545000196
        },
        {
          "paramId": 1,
          "value": 0.646999836
        },
        {
          "paramId": 2,
          "value": 0.948999643
        },
        {
          "paramId": 3,
          "value": 0.745999813
        }
      ],
      "pos": [
        69,
        1
      ]
    },
    {
      "plugin": "Fundamental",
      "version": "0.6.2",
      "model": "VCA-1",
      "params": [
        {
          "paramId": 0,
          "value": 1.0
        },
        {
          "paramId": 1,
          "value": 0.0
        }
      ],
      "pos": [
        36,
        1
      ]
    },
    {
      "plugin": "Core",
      "version": "0.6.2c",
      "model": "MIDIToCVInterface",
      "params": [],
      "data": {
        "divisions": [
          24,
          6
        ],
        "midi": {
          "driver": 2,
          "deviceName": "K-Board:K-Board MIDI 1 24:0",
          "channel": -1
        }
      },
      "pos": [
        0,
        1
      ]
    },
    {
      "plugin": "Fundamental",
      "version": "0.6.2",
      "model": "VCA-1",
      "params": [
        {
          "paramId": 0,
          "value": 1.0
        },
        {
          "paramId": 1,
          "value": 1.0
        }
      ],
      "pos": [
        39,
        1
      ]
    },
    {
      "plugin": "VultModulesFree",
      "version": "0.6.26",
      "model": "Debriatus",
      "params": [
        {
          "paramId": 0,
          "value": 0.203999996
        },
        {
          "paramId": 1,
          "value": 0.772000015
        },
        {
          "paramId": 2,
          "value": 0.267000049
        },
        {
          "paramId": 3,
          "value": 0.694000781
        },
        {
          "paramId": 4,
          "value": 0.329999983
        },
        {
          "paramId": 5,
          "value": -0.144000113
        },
        {
          "paramId": 6,
          "value": 0.158999979
        },
        {
          "paramId": 7,
          "value": -0.125999972
        }
      ],
      "pos": [
        58,
        1
      ]
    },
    {
      "plugin": "Fundamental",
      "version": "0.6.2",
      "model": "Scope",
      "params": [
        {
          "paramId": 0,
          "value": 0.0
        },
        {
          "paramId": 1,
          "value": 0.0
        },
        {
          "paramId": 2,
          "value": 0.0
        },
        {
          "paramId": 3,
          "value": 0.0
        },
        {
          "paramId": 4,
          "value": -16.0
        },
        {
          "paramId": 5,
          "value": 0.0
        },
        {
          "paramId": 6,
          "value": 7.52999878
        },
        {
          "paramId": 7,
          "value": 0.0
        }
      ],
      "data": {
        "lissajous": 0,
        "external": 0
      },
      "pos": [
        81,
        0
      ]
    },
    {
      "plugin": "Fundamental",
      "version": "0.6.2",
      "model": "VCA-1",
      "params": [
        {
          "paramId": 0,
          "value": 1.0
        },
        {
          "paramId": 1,
          "value": 0.0
        }
      ],
      "pos": [
        25,
        1
      ]
    },
    {
      "plugin": "ImpromptuModular",
      "version": "0.6.16",
      "model": "Tact1",
      "params": [
        {
          "paramId": 0,
          "value": 10.3999996
        },
        {
          "paramId": 2,
          "value": 0.200000003
        },
        {
          "paramId": 1,
          "value": 1.0
        },
        {
          "paramId": 3,
          "value": 0.0
        }
      ],
      "data": {
        "cv": 10.0,
        "rateMultiplier": 1.0,
        "panelTheme": 0
      },
      "pos": [
        19,
        1
      ]
    },
    {
      "plugin": "AudibleInstruments",
      "version": "0.6.3",
      "model": "Plaits",
      "params": [
        {
          "paramId": 0,
          "value": 0.0
        },
        {
          "paramId": 1,
          "value": 0.0
        },
        {
          "paramId": 2,
          "value": 0.0
        },
        {
          "paramId": 3,
          "value": 0.276000023
        },
        {
          "paramId": 4,
          "value": 0.470999748
        },
        {
          "paramId": 5,
          "value": 0.312499881
        },
        {
          "paramId": 6,
          "value": -0.465000004
        },
        {
          "paramId": 7,
          "value": 1.0
        },
        {
          "paramId": 8,
          "value": -0.543000042
        }
      ],
      "data": {
        "lowCpu": false,
        "model": 6,
        "lpgColor": 0.5,
        "decay": 0.5
      },
      "pos": [
        22,
        2
      ]
    },
    {
      "plugin": "Fundamental",
      "version": "0.6.2",
      "model": "VCA-1",
      "params": [
        {
          "paramId": 0,
          "value": 1.0
        },
        {
          "paramId": 1,
          "value": 1.0
        }
      ],
      "pos": [
        34,
        2
      ]
    },
    {
      "plugin": "NYSTHI",
      "version": "0.6.42",
      "model": "mix4",
      "params": [
        {
          "paramId": 10,
          "value": 0.0
        },
        {
          "paramId": 15,
          "value": 0.0
        },
        {
          "paramId": 0,
          "value": 0.0
        },
        {
          "paramId": 5,
          "value": 0.0
        },
        {
          "paramId": 11,
          "value": 0.0
        },
        {
          "paramId": 16,
          "value": 0.0
        },
        {
          "paramId": 1,
          "value": 0.0
        },
        {
          "paramId": 6,
          "value": 0.0
        },
        {
          "paramId": 12,
          "value": 0.0
        },
        {
          "paramId": 17,
          "value": 0.0
        },
        {
          "paramId": 2,
          "value": 0.0
        },
        {
          "paramId": 7,
          "value": 0.0
        },
        {
          "paramId": 13,
          "value": 0.0
        },
        {
          "paramId": 18,
          "value": 0.0
        },
        {
          "paramId": 3,
          "value": 0.0
        },
        {
          "paramId": 8,
          "value": 0.0
        },
        {
          "paramId": 21,
          "value": 0.0
        },
        {
          "paramId": 20,
          "value": 0.0
        },
        {
          "paramId": 22,
          "value": 0.0
        },
        {
          "paramId": 23,
          "value": 0.0
        }
      ],
      "data": {
        "m_channels": [
          1.0,
          0.5,
          false,
          false,
          0.0,
          0.5,
          false,
          false,
          1.0,
          0.5,
          false,
          false,
          1.0,
          0.5,
          false,
          false
        ],
        "m_master_volume": 1.0,
        "m_master_mute_trig": false,
        "m_low_power": false,
        "m_cvcompatible": false,
        "m_show_post_out": false,
        "m_post_outputs_unaffected_by_solo_mode": false
      },
      "pos": [
        54,
        0
      ]
    },
    {
      "plugin": "NYSTHI",
      "version": "0.6.42",
      "model": "StereoPhaser2",
      "params": [
        {
          "paramId": 7,
          "value": 0.0
        },
        {
          "paramId": 8,
          "value": 1.0
        },
        {
          "paramId": 9,
          "value": 1.08032691
        },
        {
          "paramId": 1,
          "value": 0.0944128186
        },
        {
          "paramId": 2,
          "value": 0.632386148
        },
        {
          "paramId": 3,
          "value": 0.265236706
        },
        {
          "paramId": 4,
          "value": 0.628399849
        },
        {
          "paramId": 5,
          "value": 0.776224732
        },
        {
          "paramId": 6,
          "value": 0.0146421278
        },
        {
          "paramId": 11,
          "value": 1.0
        },
        {
          "paramId": 10,
          "value": 0.0
        }
      ],
      "pos": [
        62,
        0
      ]
    }
  ],
  "wires": [
    {
      "color": "#0c8e15",
      "outputModuleId": 2,
      "outputId": 0,
      "inputModuleId": 0,
      "inputId": 0
    },
    {
      "color": "#0986ad",
      "outputModuleId": 2,
      "outputId": 1,
      "inputModuleId": 0,
      "inputId": 1
    },
    {
      "color": "#c91847",
      "outputModuleId": 3,
      "outputId": 0,
      "inputModuleId": 4,
      "inputId": 0
    },
    {
      "color": "#0c8e15",
      "outputModuleId": 5,
      "outputId": 1,
      "inputModuleId": 3,
      "inputId": 4
    },
    {
      "color": "#c9b70e",
      "outputModuleId": 4,
      "outputId": 0,
      "inputModuleId": 6,
      "inputId": 1
    },
    {
      "color": "#0c8e15",
      "outputModuleId": 6,
      "outputId": 0,
      "inputModuleId": 2,
      "inputId": 1
    },
    {
      "color": "#c9b70e",
      "outputModuleId": 5,
      "outputId": 0,
      "inputModuleId": 1,
      "inputId": 1
    },
    {
      "color": "#0986ad",
      "outputModuleId": 5,
      "outputId": 4,
      "inputModuleId": 1,
      "inputId": 2
    },
    {
      "color": "#c9b70e",
      "outputModuleId": 5,
      "outputId": 5,
      "inputModuleId": 9,
      "inputId": 0
    },
    {
      "color": "#c91847",
      "outputModuleId": 10,
      "outputId": 0,
      "inputModuleId": 9,
      "inputId": 1
    },
    {
      "color": "#0c8e15",
      "outputModuleId": 9,
      "outputId": 0,
      "inputModuleId": 7,
      "inputId": 1
    },
    {
      "color": "#0986ad",
      "outputModuleId": 9,
      "outputId": 0,
      "inputModuleId": 7,
      "inputId": 2
    },
    {
      "color": "#c9b70e",
      "outputModuleId": 9,
      "outputId": 0,
      "inputModuleId": 7,
      "inputId": 3
    },
    {
      "color": "#c91847",
      "outputModuleId": 9,
      "outputId": 0,
      "inputModuleId": 7,
      "inputId": 4
    },
    {
      "color": "#0986ad",
      "outputModuleId": 1,
      "outputId": 2,
      "inputModuleId": 4,
      "inputId": 1
    },
    {
      "color": "#c91847",
      "outputModuleId": 7,
      "outputId": 0,
      "inputModuleId": 13,
      "inputId": 0
    },
    {
      "color": "#0c8e15",
      "outputModuleId": 7,
      "outputId": 0,
      "inputModuleId": 8,
      "inputId": 0
    },
    {
      "color": "#0986ad",
      "outputModuleId": 5,
      "outputId": 0,
      "inputModuleId": 11,
      "inputId": 7
    },
    {
      "color": "#c91847",
      "outputModuleId": 5,
      "outputId": 4,
      "inputModuleId": 11,
      "inputId": 2
    },
    {
      "color": "#0c8e15",
      "outputModuleId": 9,
      "outputId": 0,
      "inputModuleId": 11,
      "inputId": 3
    },
    {
      "color": "#0986ad",
      "outputModuleId": 12,
      "outputId": 0,
      "inputModuleId": 13,
      "inputId": 1
    },
    {
      "color": "#c9b70e",
      "outputModuleId": 3,
      "outputId": 0,
      "inputModuleId": 12,
      "inputId": 0
    },
    {
      "color": "#0c8e15",
      "outputModuleId": 11,
      "outputId": 0,
      "inputModuleId": 12,
      "inputId": 1
    },
    {
      "color": "#0986ad",
      "outputModuleId": 9,
      "outputId": 0,
      "inputModuleId": 11,
      "inputId": 1
    },
    {
      "color": "#c91847",
      "outputModuleId": 12,
      "outputId": 0,
      "inputModuleId": 8,
      "inputId": 1
    },
    {
      "color": "#0c8e15",
      "outputModuleId": 13,
      "outputId": 0,
      "inputModuleId": 14,
      "inputId": 0
    },
    {
      "color": "#0986ad",
      "outputModuleId": 13,
      "outputId": 1,
      "inputModuleId": 14,
      "inputId": 8
    },
    {
      "color": "#c9b70e",
      "outputModuleId": 14,
      "outputId": 0,
      "inputModuleId": 2,
      "inputId": 0
    },
    {
      "color": "#c91847",
      "outputModuleId": 14,
      "outputId": 1,
      "inputModuleId": 2,
      "inputId": 16
    },
    {
      "color": "#0986ad",
      "outputModuleId": 5,
      "outputId": 2,
      "inputModuleId": 6,
      "inputId": 0
    }
  ]
}