{
  "version": "1.1.6",
  "modules": [
    {
      "id": 1,
      "plugin": "Core",
      "version": "1.1.6",
      "model": "AudioInterface",
      "params": [],
      "leftModuleId": 57,
      "data": {
        "audio": {
          "driver": 4,
          "deviceName": "system",
          "offset": 0,
          "maxChannels": 8,
          "sampleRate": 48000,
          "blockSize": 256
        }
      },
      "pos": [
        82,
        1
      ]
    },
    {
      "id": 3,
      "plugin": "Fundamental",
      "version": "1.4.0",
      "model": "VCO",
      "params": [
        {
          "id": 0,
          "value": 1.0
        },
        {
          "id": 1,
          "value": 1.0
        },
        {
          "id": 2,
          "value": 0.0
        },
        {
          "id": 3,
          "value": 0.0
        },
        {
          "id": 4,
          "value": 0.0
        },
        {
          "id": 5,
          "value": 0.5
        },
        {
          "id": 6,
          "value": 0.0
        }
      ],
      "pos": [
        0,
        0
      ]
    },
    {
      "id": 5,
      "plugin": "Core",
      "version": "1.1.6",
      "model": "MIDIToCVInterface",
      "params": [],
      "data": {
        "channels": 6,
        "polyMode": 0,
        "clockDivision": 24,
        "lastPitch": 8192,
        "lastMod": 0,
        "midi": {
          "driver": 2,
          "deviceName": "K-Board:K-Board MIDI 1 24:0",
          "channel": -1
        }
      },
      "pos": [
        11,
        1
      ]
    },
    {
      "id": 7,
      "plugin": "Fundamental",
      "version": "1.4.0",
      "model": "Scope",
      "params": [
        {
          "id": 0,
          "value": 2.0
        },
        {
          "id": 1,
          "value": 0.0
        },
        {
          "id": 2,
          "value": 0.0
        },
        {
          "id": 3,
          "value": 0.0
        },
        {
          "id": 4,
          "value": 14.0
        },
        {
          "id": 5,
          "value": 0.0
        },
        {
          "id": 6,
          "value": 0.0
        },
        {
          "id": 7,
          "value": 0.0
        }
      ],
      "leftModuleId": 28,
      "data": {
        "lissajous": 0,
        "external": 0
      },
      "pos": [
        53,
        0
      ]
    },
    {
      "id": 26,
      "plugin": "Fundamental",
      "version": "1.4.0",
      "model": "Scope",
      "params": [
        {
          "id": 0,
          "value": 0.0
        },
        {
          "id": 1,
          "value": 0.0
        },
        {
          "id": 2,
          "value": 0.0
        },
        {
          "id": 3,
          "value": 0.0
        },
        {
          "id": 4,
          "value": 7.79499817
        },
        {
          "id": 5,
          "value": 0.0
        },
        {
          "id": 6,
          "value": 0.0
        },
        {
          "id": 7,
          "value": 0.0
        }
      ],
      "leftModuleId": 29,
      "rightModuleId": 60,
      "data": {
        "lissajous": 0,
        "external": 0
      },
      "pos": [
        22,
        0
      ]
    },
    {
      "id": 28,
      "plugin": "Fundamental",
      "version": "1.4.0",
      "model": "VCF",
      "params": [
        {
          "id": 0,
          "value": 0.0
        },
        {
          "id": 1,
          "value": 0.5
        },
        {
          "id": 2,
          "value": 0.366000265
        },
        {
          "id": 3,
          "value": 1.0
        },
        {
          "id": 4,
          "value": 0.188999996
        }
      ],
      "leftModuleId": 40,
      "rightModuleId": 7,
      "pos": [
        45,
        0
      ]
    },
    {
      "id": 29,
      "plugin": "Fundamental",
      "version": "1.4.0",
      "model": "VCF",
      "params": [
        {
          "id": 0,
          "value": 0.0184999984
        },
        {
          "id": 1,
          "value": 0.5
        },
        {
          "id": 2,
          "value": 0.558000386
        },
        {
          "id": 3,
          "value": 0.0
        },
        {
          "id": 4,
          "value": 0.00450002775
        }
      ],
      "rightModuleId": 26,
      "pos": [
        14,
        0
      ]
    },
    {
      "id": 35,
      "plugin": "Valley",
      "version": "1.1.0",
      "model": "Plateau",
      "params": [
        {
          "id": 0,
          "value": 1.0
        },
        {
          "id": 1,
          "value": 0.5
        },
        {
          "id": 2,
          "value": 0.0
        },
        {
          "id": 3,
          "value": 10.0
        },
        {
          "id": 4,
          "value": 10.0
        },
        {
          "id": 5,
          "value": 0.0
        },
        {
          "id": 6,
          "value": 10.0
        },
        {
          "id": 7,
          "value": 0.100000001
        },
        {
          "id": 8,
          "value": 10.0
        },
        {
          "id": 9,
          "value": 10.0
        },
        {
          "id": 10,
          "value": 0.0
        },
        {
          "id": 11,
          "value": 0.5
        },
        {
          "id": 12,
          "value": 0.5
        },
        {
          "id": 13,
          "value": 0.0
        },
        {
          "id": 14,
          "value": 0.0
        },
        {
          "id": 15,
          "value": 0.0
        },
        {
          "id": 16,
          "value": 0.0
        },
        {
          "id": 17,
          "value": 0.0
        },
        {
          "id": 18,
          "value": 0.0
        },
        {
          "id": 19,
          "value": 0.0
        },
        {
          "id": 20,
          "value": 0.0
        },
        {
          "id": 21,
          "value": 1.0
        },
        {
          "id": 22,
          "value": 0.0
        },
        {
          "id": 23,
          "value": 1.0
        },
        {
          "id": 24,
          "value": 0.0
        },
        {
          "id": 25,
          "value": 0.0
        },
        {
          "id": 26,
          "value": 0.0
        },
        {
          "id": 27,
          "value": 0.0
        },
        {
          "id": 28,
          "value": 0.0
        },
        {
          "id": 29,
          "value": 0.0
        },
        {
          "id": 30,
          "value": 1.0
        }
      ],
      "leftModuleId": 59,
      "data": {
        "frozen": false,
        "freezeToggle": false,
        "panelStyle": 0,
        "tuned": 0,
        "diffuseInput": 1,
        "preDelayCVSens": 0,
        "inputSensitivity": 0,
        "outputSaturation": 0
      },
      "pos": [
        80,
        0
      ]
    },
    {
      "id": 36,
      "plugin": "Fundamental",
      "version": "1.4.0",
      "model": "Sum",
      "params": [
        {
          "id": 0,
          "value": 0.392499864
        }
      ],
      "pos": [
        70,
        0
      ]
    },
    {
      "id": 40,
      "plugin": "Fundamental",
      "version": "1.4.0",
      "model": "VCA-1",
      "params": [
        {
          "id": 0,
          "value": 1.0
        },
        {
          "id": 1,
          "value": 1.0
        }
      ],
      "rightModuleId": 28,
      "pos": [
        42,
        0
      ]
    },
    {
      "id": 56,
      "plugin": "Fundamental",
      "version": "1.4.0",
      "model": "Scope",
      "params": [
        {
          "id": 0,
          "value": 2.0
        },
        {
          "id": 1,
          "value": 0.0
        },
        {
          "id": 2,
          "value": 2.0
        },
        {
          "id": 3,
          "value": 0.0
        },
        {
          "id": 4,
          "value": 16.0
        },
        {
          "id": 5,
          "value": 0.0
        },
        {
          "id": 6,
          "value": 0.0
        },
        {
          "id": 7,
          "value": 0.0
        }
      ],
      "rightModuleId": 57,
      "data": {
        "lissajous": 0,
        "external": 0
      },
      "pos": [
        60,
        1
      ]
    },
    {
      "id": 57,
      "plugin": "NYSTHI",
      "version": "1.0.15",
      "model": "MasterRecorder2",
      "params": [
        {
          "id": 0,
          "value": 0.0
        },
        {
          "id": 1,
          "value": 0.0
        },
        {
          "id": 2,
          "value": 0.0
        },
        {
          "id": 3,
          "value": 1.0
        },
        {
          "id": 4,
          "value": 1.0
        },
        {
          "id": 5,
          "value": 0.0
        },
        {
          "id": 6,
          "value": 0.0
        },
        {
          "id": 7,
          "value": 0.0
        },
        {
          "id": 8,
          "value": 0.0
        },
        {
          "id": 9,
          "value": 0.00499999989
        },
        {
          "id": 10,
          "value": 0.00999999978
        },
        {
          "id": 11,
          "value": 2.0
        },
        {
          "id": 12,
          "value": 0.5
        },
        {
          "id": 13,
          "value": 0.0
        },
        {
          "id": 14,
          "value": 0.100000001
        },
        {
          "id": 15,
          "value": 0.0
        },
        {
          "id": 16,
          "value": 1.0
        }
      ],
      "leftModuleId": 56,
      "rightModuleId": 1,
      "data": {
        "wavebits": 9,
        "rms_time": 0.00100000005,
        "peak_time": 0.5,
        "m_invertphaseleft": false,
        "m_invertphaseright": false,
        "m_locklevelleftright": false,
        "m_kompressor_active": false,
        "m_distort": false,
        "m_attenuation": 1.0,
        "m_enconding_format": "wav",
        "m_encoding_bitrate": 320000,
        "m_autoenumeratefiles": true
      },
      "pos": [
        73,
        1
      ]
    },
    {
      "id": 59,
      "plugin": "Fundamental",
      "version": "1.4.0",
      "model": "VCA-1",
      "params": [
        {
          "id": 0,
          "value": 1.0
        },
        {
          "id": 1,
          "value": 1.0
        }
      ],
      "leftModuleId": 76,
      "rightModuleId": 35,
      "pos": [
        77,
        0
      ]
    },
    {
      "id": 60,
      "plugin": "Fundamental",
      "version": "1.4.0",
      "model": "VCA-1",
      "params": [
        {
          "id": 0,
          "value": 1.0
        },
        {
          "id": 1,
          "value": 1.0
        }
      ],
      "leftModuleId": 26,
      "pos": [
        35,
        0
      ]
    },
    {
      "id": 65,
      "plugin": "SynthKit",
      "version": "1.0.1",
      "model": "Addition",
      "params": [],
      "leftModuleId": 68,
      "rightModuleId": 74,
      "pos": [
        33,
        1
      ]
    },
    {
      "id": 68,
      "plugin": "Core",
      "version": "1.1.6",
      "model": "MIDICCToCVInterface",
      "params": [],
      "rightModuleId": 65,
      "data": {
        "ccs": [
          101,
          102,
          103,
          104,
          109,
          110,
          111,
          112,
          105,
          106,
          107,
          108,
          113,
          114,
          115,
          116
        ],
        "values": [
          0,
          0,
          0,
          0,
          0,
          0,
          0,
          0,
          0,
          0,
          0,
          0,
          0,
          0,
          0,
          0,
          0,
          0,
          0,
          0,
          0,
          0,
          0,
          0,
          0,
          0,
          0,
          0,
          0,
          0,
          0,
          0,
          0,
          0,
          0,
          0,
          0,
          0,
          0,
          0,
          0,
          0,
          0,
          0,
          0,
          0,
          0,
          0,
          0,
          0,
          0,
          0,
          0,
          0,
          0,
          0,
          0,
          0,
          0,
          0,
          0,
          0,
          0,
          0,
          0,
          0,
          0,
          0,
          0,
          0,
          0,
          0,
          0,
          0,
          0,
          0,
          0,
          0,
          0,
          0,
          0,
          0,
          0,
          0,
          0,
          0,
          0,
          0,
          0,
          0,
          0,
          0,
          0,
          0,
          0,
          0,
          0,
          0,
          0,
          0,
          0,
          35,
          66,
          62,
          58,
          0,
          2,
          3,
          2,
          2,
          3,
          2,
          2,
          0,
          2,
          2,
          3,
          0,
          0,
          0,
          0,
          0,
          0,
          0,
          0,
          0,
          0,
          0
        ],
        "midi": {
          "driver": 2,
          "deviceName": "Arturia BeatStep Pro:Arturia BeatStep Pro MIDI 1 28:0",
          "channel": -1
        }
      },
      "pos": [
        23,
        1
      ]
    },
    {
      "id": 70,
      "plugin": "Fundamental",
      "version": "1.4.0",
      "model": "Scope",
      "params": [
        {
          "id": 0,
          "value": 0.0
        },
        {
          "id": 1,
          "value": 0.0
        },
        {
          "id": 2,
          "value": 0.0
        },
        {
          "id": 3,
          "value": 0.0
        },
        {
          "id": 4,
          "value": 6.0
        },
        {
          "id": 5,
          "value": 0.0
        },
        {
          "id": 6,
          "value": 0.0
        },
        {
          "id": 7,
          "value": 0.0
        }
      ],
      "data": {
        "lissajous": 0,
        "external": 0
      },
      "pos": [
        43,
        1
      ]
    },
    {
      "id": 74,
      "plugin": "Fundamental",
      "version": "1.4.0",
      "model": "VCA-1",
      "params": [
        {
          "id": 0,
          "value": 1.0
        },
        {
          "id": 1,
          "value": 1.0
        }
      ],
      "leftModuleId": 65,
      "rightModuleId": 75,
      "pos": [
        36,
        1
      ]
    },
    {
      "id": 75,
      "plugin": "SynthKit",
      "version": "1.0.1",
      "model": "Addition",
      "params": [],
      "leftModuleId": 74,
      "pos": [
        39,
        1
      ]
    },
    {
      "id": 76,
      "plugin": "Fundamental",
      "version": "1.4.0",
      "model": "VCA-1",
      "params": [
        {
          "id": 0,
          "value": 1.0
        },
        {
          "id": 1,
          "value": 1.0
        }
      ],
      "rightModuleId": 59,
      "pos": [
        74,
        0
      ]
    }
  ],
  "cables": [
    {
      "id": 58,
      "outputModuleId": 5,
      "outputId": 0,
      "inputModuleId": 3,
      "inputId": 0,
      "color": "#c91847"
    },
    {
      "id": 109,
      "outputModuleId": 5,
      "outputId": 1,
      "inputModuleId": 29,
      "inputId": 3,
      "color": "#0986ad"
    },
    {
      "id": 140,
      "outputModuleId": 35,
      "outputId": 0,
      "inputModuleId": 1,
      "inputId": 0,
      "color": "#0986ad"
    },
    {
      "id": 141,
      "outputModuleId": 35,
      "outputId": 1,
      "inputModuleId": 1,
      "inputId": 1,
      "color": "#c9b70e"
    },
    {
      "id": 142,
      "outputModuleId": 36,
      "outputId": 0,
      "inputModuleId": 35,
      "inputId": 0,
      "color": "#0c8e15"
    },
    {
      "id": 143,
      "outputModuleId": 29,
      "outputId": 0,
      "inputModuleId": 26,
      "inputId": 0,
      "color": "#0986ad"
    },
    {
      "id": 178,
      "outputModuleId": 35,
      "outputId": 0,
      "inputModuleId": 56,
      "inputId": 0,
      "color": "#c91847"
    },
    {
      "id": 179,
      "outputModuleId": 35,
      "outputId": 1,
      "inputModuleId": 56,
      "inputId": 1,
      "color": "#0986ad"
    },
    {
      "id": 180,
      "outputModuleId": 35,
      "outputId": 0,
      "inputModuleId": 57,
      "inputId": 0,
      "color": "#0986ad"
    },
    {
      "id": 181,
      "outputModuleId": 35,
      "outputId": 1,
      "inputModuleId": 57,
      "inputId": 1,
      "color": "#c9b70e"
    },
    {
      "id": 229,
      "outputModuleId": 28,
      "outputId": 0,
      "inputModuleId": 36,
      "inputId": 0,
      "color": "#c9b70e"
    },
    {
      "id": 123,
      "outputModuleId": 29,
      "outputId": 0,
      "inputModuleId": 60,
      "inputId": 0,
      "color": "#0986ad"
    },
    {
      "id": 225,
      "outputModuleId": 3,
      "outputId": 2,
      "inputModuleId": 60,
      "inputId": 1,
      "color": "#0c8e15"
    },
    {
      "id": 228,
      "outputModuleId": 60,
      "outputId": 0,
      "inputModuleId": 28,
      "inputId": 3,
      "color": "#0c8e15"
    },
    {
      "id": 230,
      "outputModuleId": 28,
      "outputId": 0,
      "inputModuleId": 7,
      "inputId": 0,
      "color": "#0c8e15"
    },
    {
      "id": 241,
      "outputModuleId": 65,
      "outputId": 1,
      "inputModuleId": 70,
      "inputId": 1,
      "color": "#c91847"
    },
    {
      "id": 244,
      "outputModuleId": 65,
      "outputId": 1,
      "inputModuleId": 40,
      "inputId": 0,
      "color": "#c91847"
    },
    {
      "id": 248,
      "outputModuleId": 68,
      "outputId": 3,
      "inputModuleId": 74,
      "inputId": 0,
      "color": "#c9b70e"
    },
    {
      "id": 249,
      "outputModuleId": 5,
      "outputId": 5,
      "inputModuleId": 74,
      "inputId": 1,
      "color": "#0c8e15"
    },
    {
      "id": 242,
      "outputModuleId": 68,
      "outputId": 2,
      "inputModuleId": 65,
      "inputId": 2,
      "color": "#c9b70e"
    },
    {
      "id": 250,
      "outputModuleId": 74,
      "outputId": 0,
      "inputModuleId": 65,
      "inputId": 3,
      "color": "#c91847"
    },
    {
      "id": 240,
      "outputModuleId": 75,
      "outputId": 0,
      "inputModuleId": 70,
      "inputId": 0,
      "color": "#0c8e15"
    },
    {
      "id": 235,
      "outputModuleId": 75,
      "outputId": 0,
      "inputModuleId": 35,
      "inputId": 9,
      "color": "#0986ad"
    },
    {
      "id": 184,
      "outputModuleId": 5,
      "outputId": 4,
      "inputModuleId": 75,
      "inputId": 1,
      "color": "#0c8e15"
    },
    {
      "id": 253,
      "outputModuleId": 65,
      "outputId": 1,
      "inputModuleId": 28,
      "inputId": 0,
      "color": "#c91847"
    },
    {
      "id": 254,
      "outputModuleId": 75,
      "outputId": 0,
      "inputModuleId": 59,
      "inputId": 0,
      "color": "#0986ad"
    },
    {
      "id": 239,
      "outputModuleId": 68,
      "outputId": 1,
      "inputModuleId": 75,
      "inputId": 0,
      "color": "#c9b70e"
    },
    {
      "id": 255,
      "outputModuleId": 68,
      "outputId": 0,
      "inputModuleId": 35,
      "inputId": 7,
      "color": "#c9b70e"
    },
    {
      "id": 256,
      "outputModuleId": 68,
      "outputId": 0,
      "inputModuleId": 76,
      "inputId": 0,
      "color": "#0c8e15"
    }
  ]
}