{
  "version": "1.1.6",
  "modules": [
    {
      "id": 1,
      "plugin": "Core",
      "version": "1.1.6",
      "model": "AudioInterface",
      "params": [],
      "leftModuleId": 2,
      "data": {
        "audio": {
          "driver": 1,
          "deviceName": "hw:HDA Intel PCH,0",
          "offset": 0,
          "maxChannels": 8,
          "sampleRate": 44100,
          "blockSize": 256
        }
      },
      "pos": [
        57,
        0
      ]
    },
    {
      "id": 2,
      "plugin": "Fundamental",
      "version": "1.4.0",
      "model": "VCMixer",
      "params": [
        {
          "id": 0,
          "value": 0.300000727
        },
        {
          "id": 1,
          "value": 1.0
        },
        {
          "id": 2,
          "value": 1.0
        },
        {
          "id": 3,
          "value": 1.0
        },
        {
          "id": 4,
          "value": 1.0
        }
      ],
      "leftModuleId": 7,
      "rightModuleId": 1,
      "pos": [
        47,
        0
      ]
    },
    {
      "id": 3,
      "plugin": "Fundamental",
      "version": "1.4.0",
      "model": "VCO",
      "params": [
        {
          "id": 0,
          "value": 1.0
        },
        {
          "id": 1,
          "value": 1.0
        },
        {
          "id": 2,
          "value": 0.0
        },
        {
          "id": 3,
          "value": 0.0
        },
        {
          "id": 4,
          "value": 0.0
        },
        {
          "id": 5,
          "value": 0.5
        },
        {
          "id": 6,
          "value": 0.0
        }
      ],
      "leftModuleId": 5,
      "pos": [
        8,
        0
      ]
    },
    {
      "id": 5,
      "plugin": "Core",
      "version": "1.1.6",
      "model": "MIDIToCVInterface",
      "params": [],
      "rightModuleId": 3,
      "data": {
        "channels": 1,
        "polyMode": 0,
        "clockDivision": 24,
        "lastPitch": 8192,
        "lastMod": 0,
        "midi": {
          "driver": -11,
          "deviceName": "QWERTY keyboard (US)",
          "channel": -1
        }
      },
      "pos": [
        0,
        0
      ]
    },
    {
      "id": 6,
      "plugin": "Fundamental",
      "version": "1.4.0",
      "model": "ADSR",
      "params": [
        {
          "id": 0,
          "value": 0.114000089
        },
        {
          "id": 1,
          "value": 0.66049993
        },
        {
          "id": 2,
          "value": 0.5
        },
        {
          "id": 3,
          "value": 0.5
        }
      ],
      "rightModuleId": 7,
      "pos": [
        26,
        0
      ]
    },
    {
      "id": 7,
      "plugin": "Fundamental",
      "version": "1.4.0",
      "model": "Scope",
      "params": [
        {
          "id": 0,
          "value": 0.0
        },
        {
          "id": 1,
          "value": 0.0
        },
        {
          "id": 2,
          "value": 0.0
        },
        {
          "id": 3,
          "value": 0.0
        },
        {
          "id": 4,
          "value": 11.5749969
        },
        {
          "id": 5,
          "value": 0.0
        },
        {
          "id": 6,
          "value": 0.0
        },
        {
          "id": 7,
          "value": 0.0
        }
      ],
      "leftModuleId": 6,
      "rightModuleId": 2,
      "data": {
        "lissajous": 0,
        "external": 1
      },
      "pos": [
        34,
        0
      ]
    },
    {
      "id": 96,
      "plugin": "VultModulesFree",
      "version": "1.8.0",
      "model": "Debriatus",
      "params": [
        {
          "id": 0,
          "value": 0.154499799
        },
        {
          "id": 1,
          "value": 0.116999924
        },
        {
          "id": 2,
          "value": 0.49150008
        },
        {
          "id": 3,
          "value": 0.513999939
        },
        {
          "id": 4,
          "value": 0.294000089
        },
        {
          "id": 5,
          "value": 0.32100004
        },
        {
          "id": 6,
          "value": 0.0
        },
        {
          "id": 7,
          "value": 0.0
        }
      ],
      "leftModuleId": 99,
      "rightModuleId": 97,
      "pos": [
        25,
        1
      ]
    },
    {
      "id": 97,
      "plugin": "LindenbergResearch",
      "version": "1.3.3",
      "model": "DIODE_VCF",
      "params": [
        {
          "id": 0,
          "value": 0.520499825
        },
        {
          "id": 1,
          "value": 0.0
        },
        {
          "id": 2,
          "value": 0.0
        },
        {
          "id": 3,
          "value": 0.566999495
        },
        {
          "id": 4,
          "value": 1.0
        },
        {
          "id": 5,
          "value": 1.0
        }
      ],
      "leftModuleId": 96,
      "rightModuleId": 118,
      "gestaltID": 1,
      "gradient": true,
      "patina": false,
      "patina_i_x": true,
      "patina_i_y": false,
      "patina_a_x": 715.746826,
      "patina_a_y": 48.1069298,
      "overlay": false,
      "overlay_r": 0.54406333,
      "overlay_g": 0.10988611,
      "overlay_b": 0.561122656,
      "overlay_a": 0.176078022,
      "pos": [
        35,
        1
      ]
    },
    {
      "id": 98,
      "plugin": "Valley",
      "version": "1.0.1",
      "model": "Plateau",
      "params": [
        {
          "id": 0,
          "value": 1.0
        },
        {
          "id": 1,
          "value": 0.236999527
        },
        {
          "id": 2,
          "value": 0.0
        },
        {
          "id": 3,
          "value": 4.23000097
        },
        {
          "id": 4,
          "value": 10.0
        },
        {
          "id": 5,
          "value": 0.388999373
        },
        {
          "id": 6,
          "value": 10.0
        },
        {
          "id": 7,
          "value": 0.310576797
        },
        {
          "id": 8,
          "value": 10.0
        },
        {
          "id": 9,
          "value": 10.0
        },
        {
          "id": 10,
          "value": 0.0
        },
        {
          "id": 11,
          "value": 0.5
        },
        {
          "id": 12,
          "value": 0.5
        },
        {
          "id": 13,
          "value": 0.0
        },
        {
          "id": 14,
          "value": 0.0
        },
        {
          "id": 15,
          "value": 0.0
        },
        {
          "id": 16,
          "value": 0.0
        },
        {
          "id": 17,
          "value": 0.0
        },
        {
          "id": 18,
          "value": 0.0
        },
        {
          "id": 19,
          "value": 0.0
        },
        {
          "id": 20,
          "value": 0.0
        },
        {
          "id": 21,
          "value": 0.0
        },
        {
          "id": 22,
          "value": 0.0
        },
        {
          "id": 23,
          "value": 0.0
        },
        {
          "id": 24,
          "value": 0.0
        },
        {
          "id": 25,
          "value": 0.0
        },
        {
          "id": 26,
          "value": 0.0
        },
        {
          "id": 27,
          "value": 0.0
        },
        {
          "id": 28,
          "value": 0.0
        },
        {
          "id": 29,
          "value": 0.0
        },
        {
          "id": 30,
          "value": 1.0
        }
      ],
      "data": {
        "frozen": false,
        "freezeToggle": false,
        "panelStyle": 0,
        "tuned": 0,
        "diffuseInput": 1,
        "preDelayCVSens": 0,
        "inputSensitivity": 0,
        "outputSaturation": 0
      },
      "pos": [
        68,
        1
      ]
    },
    {
      "id": 99,
      "plugin": "Fundamental",
      "version": "1.4.0",
      "model": "VCA-1",
      "params": [
        {
          "id": 0,
          "value": 1.0
        },
        {
          "id": 1,
          "value": 1.0
        }
      ],
      "leftModuleId": 100,
      "rightModuleId": 96,
      "pos": [
        22,
        1
      ]
    },
    {
      "id": 100,
      "plugin": "Fundamental",
      "version": "1.4.0",
      "model": "LFO2",
      "params": [
        {
          "id": 0,
          "value": 1.0
        },
        {
          "id": 1,
          "value": 1.0
        },
        {
          "id": 2,
          "value": 4.6270051
        },
        {
          "id": 3,
          "value": 0.0
        },
        {
          "id": 4,
          "value": 1.0
        }
      ],
      "leftModuleId": 108,
      "rightModuleId": 99,
      "pos": [
        16,
        1
      ]
    },
    {
      "id": 107,
      "plugin": "MSM",
      "version": "1.0.0",
      "model": "Phaser",
      "params": [
        {
          "id": 0,
          "value": 0.0510000102
        },
        {
          "id": 1,
          "value": 1.0
        },
        {
          "id": 2,
          "value": 0.0
        },
        {
          "id": 3,
          "value": 0.134000048
        },
        {
          "id": 4,
          "value": 0.865925014
        },
        {
          "id": 5,
          "value": 0.894499958
        },
        {
          "id": 6,
          "value": 0.0
        },
        {
          "id": 7,
          "value": 1.0
        },
        {
          "id": 8,
          "value": 0.0995000303
        }
      ],
      "data": {
        "Theme": 0
      },
      "pos": [
        58,
        1
      ]
    },
    {
      "id": 108,
      "plugin": "Fundamental",
      "version": "1.4.0",
      "model": "LFO2",
      "params": [
        {
          "id": 0,
          "value": 1.0
        },
        {
          "id": 1,
          "value": 1.0
        },
        {
          "id": 2,
          "value": -0.0979998112
        },
        {
          "id": 3,
          "value": 0.0
        },
        {
          "id": 4,
          "value": 1.0
        }
      ],
      "leftModuleId": 109,
      "rightModuleId": 100,
      "pos": [
        10,
        1
      ]
    },
    {
      "id": 109,
      "plugin": "Fundamental",
      "version": "1.4.0",
      "model": "LFO2",
      "params": [
        {
          "id": 0,
          "value": 1.0
        },
        {
          "id": 1,
          "value": 1.0
        },
        {
          "id": 2,
          "value": -1.44799924
        },
        {
          "id": 3,
          "value": 0.0
        },
        {
          "id": 4,
          "value": 1.0
        }
      ],
      "rightModuleId": 108,
      "pos": [
        4,
        1
      ]
    },
    {
      "id": 118,
      "plugin": "Fundamental",
      "version": "1.4.0",
      "model": "VCA-1",
      "params": [
        {
          "id": 0,
          "value": 1.0
        },
        {
          "id": 1,
          "value": 1.0
        }
      ],
      "leftModuleId": 97,
      "pos": [
        52,
        1
      ]
    }
  ],
  "cables": [
    {
      "id": 378,
      "outputModuleId": 5,
      "outputId": 6,
      "inputModuleId": 6,
      "inputId": 5,
      "color": "#c91847"
    },
    {
      "id": 387,
      "outputModuleId": 6,
      "outputId": 0,
      "inputModuleId": 97,
      "inputId": 1,
      "color": "#c91847"
    },
    {
      "id": 388,
      "outputModuleId": 6,
      "outputId": 0,
      "inputModuleId": 99,
      "inputId": 0,
      "color": "#0986ad"
    },
    {
      "id": 394,
      "outputModuleId": 100,
      "outputId": 0,
      "inputModuleId": 97,
      "inputId": 3,
      "color": "#c9b70e"
    },
    {
      "id": 396,
      "outputModuleId": 100,
      "outputId": 0,
      "inputModuleId": 7,
      "inputId": 1,
      "color": "#c91847"
    },
    {
      "id": 401,
      "outputModuleId": 100,
      "outputId": 0,
      "inputModuleId": 7,
      "inputId": 2,
      "color": "#0986ad"
    },
    {
      "id": 407,
      "outputModuleId": 98,
      "outputId": 0,
      "inputModuleId": 2,
      "inputId": 1,
      "color": "#0c8e15"
    },
    {
      "id": 408,
      "outputModuleId": 98,
      "outputId": 1,
      "inputModuleId": 2,
      "inputId": 2,
      "color": "#c91847"
    },
    {
      "id": 412,
      "outputModuleId": 100,
      "outputId": 0,
      "inputModuleId": 96,
      "inputId": 2,
      "color": "#c91847"
    },
    {
      "id": 389,
      "outputModuleId": 3,
      "outputId": 3,
      "inputModuleId": 99,
      "inputId": 1,
      "color": "#c91847"
    },
    {
      "id": 416,
      "outputModuleId": 100,
      "outputId": 0,
      "inputModuleId": 96,
      "inputId": 1,
      "color": "#c9b70e"
    },
    {
      "id": 446,
      "outputModuleId": 5,
      "outputId": 1,
      "inputModuleId": 6,
      "inputId": 4,
      "color": "#c9b70e"
    },
    {
      "id": 447,
      "outputModuleId": 5,
      "outputId": 0,
      "inputModuleId": 3,
      "inputId": 0,
      "color": "#0c8e15"
    },
    {
      "id": 450,
      "outputModuleId": 108,
      "outputId": 0,
      "inputModuleId": 100,
      "inputId": 2,
      "color": "#c91847"
    },
    {
      "id": 451,
      "outputModuleId": 109,
      "outputId": 0,
      "inputModuleId": 108,
      "inputId": 2,
      "color": "#0986ad"
    },
    {
      "id": 453,
      "outputModuleId": 2,
      "outputId": 1,
      "inputModuleId": 1,
      "inputId": 0,
      "color": "#0986ad"
    },
    {
      "id": 454,
      "outputModuleId": 2,
      "outputId": 2,
      "inputModuleId": 1,
      "inputId": 1,
      "color": "#c9b70e"
    },
    {
      "id": 455,
      "outputModuleId": 2,
      "outputId": 0,
      "inputModuleId": 7,
      "inputId": 0,
      "color": "#0c8e15"
    },
    {
      "id": 390,
      "outputModuleId": 99,
      "outputId": 0,
      "inputModuleId": 97,
      "inputId": 0,
      "color": "#0986ad"
    },
    {
      "id": 469,
      "outputModuleId": 97,
      "outputId": 0,
      "inputModuleId": 96,
      "inputId": 0,
      "color": "#c9b70e"
    },
    {
      "id": 468,
      "outputModuleId": 100,
      "outputId": 0,
      "inputModuleId": 118,
      "inputId": 1,
      "color": "#0986ad"
    },
    {
      "id": 470,
      "outputModuleId": 118,
      "outputId": 0,
      "inputModuleId": 97,
      "inputId": 2,
      "color": "#c91847"
    },
    {
      "id": 472,
      "outputModuleId": 108,
      "outputId": 0,
      "inputModuleId": 118,
      "inputId": 0,
      "color": "#c9b70e"
    },
    {
      "id": 462,
      "outputModuleId": 96,
      "outputId": 0,
      "inputModuleId": 98,
      "inputId": 0,
      "color": "#c9b70e"
    }
  ]
}