{
  "version": "1.1.6",
  "modules": [
    {
      "id": 1,
      "plugin": "Core",
      "version": "1.1.6",
      "model": "AudioInterface",
      "params": [],
      "leftModuleId": 88,
      "data": {
        "audio": {
          "driver": 4,
          "deviceName": "system",
          "offset": 0,
          "maxChannels": 8,
          "sampleRate": 48000,
          "blockSize": 512
        }
      },
      "pos": [
        87,
        0
      ]
    },
    {
      "id": 5,
      "plugin": "Core",
      "version": "1.1.6",
      "model": "MIDIToCVInterface",
      "params": [],
      "data": {
        "channels": 1,
        "polyMode": 0,
        "clockDivision": 24,
        "lastPitch": 8192,
        "lastMod": 0,
        "midi": {
          "driver": -11,
          "deviceName": "QWERTY keyboard (US)",
          "channel": -1
        }
      },
      "pos": [
        0,
        0
      ]
    },
    {
      "id": 6,
      "plugin": "Fundamental",
      "version": "1.4.0",
      "model": "ADSR",
      "params": [
        {
          "id": 0,
          "value": 0.0569999963
        },
        {
          "id": 1,
          "value": 0.202500045
        },
        {
          "id": 2,
          "value": 0.0
        },
        {
          "id": 3,
          "value": 0.576500058
        }
      ],
      "rightModuleId": 83,
      "pos": [
        22,
        1
      ]
    },
    {
      "id": 7,
      "plugin": "Fundamental",
      "version": "1.4.0",
      "model": "Scope",
      "params": [
        {
          "id": 0,
          "value": 0.0
        },
        {
          "id": 1,
          "value": 0.0
        },
        {
          "id": 2,
          "value": 0.0
        },
        {
          "id": 3,
          "value": 0.0
        },
        {
          "id": 4,
          "value": 11.375001
        },
        {
          "id": 5,
          "value": 0.0
        },
        {
          "id": 6,
          "value": 0.0
        },
        {
          "id": 7,
          "value": 0.0
        }
      ],
      "leftModuleId": 83,
      "rightModuleId": 92,
      "data": {
        "lissajous": 0,
        "external": 0
      },
      "pos": [
        40,
        1
      ]
    },
    {
      "id": 83,
      "plugin": "VultModulesFree",
      "version": "1.12",
      "model": "Debriatus",
      "params": [
        {
          "id": 0,
          "value": 0.0
        },
        {
          "id": 1,
          "value": 0.0
        },
        {
          "id": 2,
          "value": 0.633999944
        },
        {
          "id": 3,
          "value": 0.115500107
        },
        {
          "id": 4,
          "value": -1.0
        },
        {
          "id": 5,
          "value": 0.313000023
        },
        {
          "id": 6,
          "value": 1.0
        },
        {
          "id": 7,
          "value": 1.0
        }
      ],
      "leftModuleId": 6,
      "rightModuleId": 7,
      "pos": [
        30,
        1
      ]
    },
    {
      "id": 85,
      "plugin": "Befaco",
      "version": "1.0.1",
      "model": "EvenVCO",
      "params": [
        {
          "id": 0,
          "value": -4.0
        },
        {
          "id": 1,
          "value": 0.0
        },
        {
          "id": 2,
          "value": 0.0
        }
      ],
      "leftModuleId": 89,
      "rightModuleId": 87,
      "pos": [
        24,
        0
      ]
    },
    {
      "id": 86,
      "plugin": "VultModulesFree",
      "version": "1.12",
      "model": "Debriatus",
      "params": [
        {
          "id": 0,
          "value": 0.0
        },
        {
          "id": 1,
          "value": 0.00300000003
        },
        {
          "id": 2,
          "value": 0.0
        },
        {
          "id": 3,
          "value": 0.0
        },
        {
          "id": 4,
          "value": 0.0
        },
        {
          "id": 5,
          "value": 0.0
        },
        {
          "id": 6,
          "value": 0.0
        },
        {
          "id": 7,
          "value": 0.0
        }
      ],
      "leftModuleId": 87,
      "rightModuleId": 90,
      "pos": [
        35,
        0
      ]
    },
    {
      "id": 87,
      "plugin": "Fundamental",
      "version": "1.4.0",
      "model": "VCA-1",
      "params": [
        {
          "id": 0,
          "value": 1.0
        },
        {
          "id": 1,
          "value": 1.0
        }
      ],
      "leftModuleId": 85,
      "rightModuleId": 86,
      "pos": [
        32,
        0
      ]
    },
    {
      "id": 88,
      "plugin": "mscHack",
      "version": "1.0.2",
      "model": "Mix_4_0_4",
      "params": [
        {
          "id": 0,
          "value": 0.490999937
        },
        {
          "id": 1,
          "value": 0.78099966
        },
        {
          "id": 2,
          "value": 0.978000224
        },
        {
          "id": 3,
          "value": 0.0
        },
        {
          "id": 4,
          "value": 0.0
        },
        {
          "id": 5,
          "value": 0.0
        },
        {
          "id": 6,
          "value": 0.0
        },
        {
          "id": 7,
          "value": 0.0
        },
        {
          "id": 8,
          "value": 0.0
        },
        {
          "id": 9,
          "value": 0.0
        },
        {
          "id": 10,
          "value": 0.0
        },
        {
          "id": 11,
          "value": 0.0
        },
        {
          "id": 12,
          "value": 0.0
        },
        {
          "id": 13,
          "value": 0.0
        },
        {
          "id": 14,
          "value": 0.0
        },
        {
          "id": 15,
          "value": 0.0
        },
        {
          "id": 16,
          "value": 0.0
        },
        {
          "id": 17,
          "value": 0.5
        },
        {
          "id": 18,
          "value": 0.5
        },
        {
          "id": 19,
          "value": 0.5
        },
        {
          "id": 20,
          "value": 0.5
        },
        {
          "id": 21,
          "value": 0.5
        },
        {
          "id": 22,
          "value": 0.5
        },
        {
          "id": 23,
          "value": 0.5
        },
        {
          "id": 24,
          "value": 0.5
        },
        {
          "id": 25,
          "value": 0.5
        },
        {
          "id": 26,
          "value": 0.5
        },
        {
          "id": 27,
          "value": 0.5
        },
        {
          "id": 28,
          "value": 0.5
        },
        {
          "id": 29,
          "value": 0.5
        },
        {
          "id": 30,
          "value": 0.5
        },
        {
          "id": 31,
          "value": 0.5
        },
        {
          "id": 32,
          "value": 0.5
        },
        {
          "id": 33,
          "value": 0.5
        },
        {
          "id": 34,
          "value": 0.5
        },
        {
          "id": 35,
          "value": 0.5
        },
        {
          "id": 36,
          "value": 0.5
        },
        {
          "id": 37,
          "value": 0.5
        },
        {
          "id": 38,
          "value": 0.5
        },
        {
          "id": 39,
          "value": 0.5
        },
        {
          "id": 40,
          "value": 0.5
        },
        {
          "id": 41,
          "value": 0.0
        },
        {
          "id": 42,
          "value": 0.0
        },
        {
          "id": 43,
          "value": 0.0
        },
        {
          "id": 44,
          "value": 0.0
        },
        {
          "id": 45,
          "value": 0.0
        },
        {
          "id": 46,
          "value": 0.0
        },
        {
          "id": 47,
          "value": 0.0
        },
        {
          "id": 48,
          "value": 0.0
        },
        {
          "id": 49,
          "value": 0.0
        },
        {
          "id": 50,
          "value": 0.0
        },
        {
          "id": 51,
          "value": 0.0
        },
        {
          "id": 52,
          "value": 0.0
        },
        {
          "id": 53,
          "value": 0.0
        },
        {
          "id": 54,
          "value": 0.0
        },
        {
          "id": 55,
          "value": 0.0
        },
        {
          "id": 56,
          "value": 0.0
        },
        {
          "id": 57,
          "value": 0.0
        },
        {
          "id": 58,
          "value": 0.0
        },
        {
          "id": 59,
          "value": 0.0
        },
        {
          "id": 60,
          "value": 0.0
        }
      ],
      "rightModuleId": 1,
      "data": {
        "m_bMuteStates": [
          false,
          false,
          false,
          false,
          false,
          false,
          false,
          false
        ],
        "m_bSoloStates": [
          false,
          false,
          false,
          false,
          false,
          false,
          false,
          false
        ],
        "m_bGroupPreMute": [
          true
        ],
        "m_bGainLevelx2": [
          false
        ],
        "m_bPreFader": [
          false,
          false,
          false,
          false
        ],
        "m_bAuxIgnoreSolo": [
          false
        ]
      },
      "pos": [
        67,
        0
      ]
    },
    {
      "id": 89,
      "plugin": "Fundamental",
      "version": "1.4.0",
      "model": "ADSR",
      "params": [
        {
          "id": 0,
          "value": 0.0
        },
        {
          "id": 1,
          "value": 0.384000033
        },
        {
          "id": 2,
          "value": 0.0
        },
        {
          "id": 3,
          "value": 0.576500058
        }
      ],
      "rightModuleId": 85,
      "pos": [
        16,
        0
      ]
    },
    {
      "id": 90,
      "plugin": "Fundamental",
      "version": "1.4.0",
      "model": "Scope",
      "params": [
        {
          "id": 0,
          "value": 0.0
        },
        {
          "id": 1,
          "value": 0.0
        },
        {
          "id": 2,
          "value": 0.0
        },
        {
          "id": 3,
          "value": 0.0
        },
        {
          "id": 4,
          "value": 14.0
        },
        {
          "id": 5,
          "value": 0.0
        },
        {
          "id": 6,
          "value": 0.0
        },
        {
          "id": 7,
          "value": 0.0
        }
      ],
      "leftModuleId": 86,
      "data": {
        "lissajous": 0,
        "external": 0
      },
      "pos": [
        45,
        0
      ]
    },
    {
      "id": 92,
      "plugin": "Fundamental",
      "version": "1.4.0",
      "model": "Delay",
      "params": [
        {
          "id": 0,
          "value": 0.330499679
        },
        {
          "id": 1,
          "value": 0.836000025
        },
        {
          "id": 2,
          "value": 0.0
        },
        {
          "id": 3,
          "value": 0.5
        }
      ],
      "leftModuleId": 7,
      "rightModuleId": 93,
      "pos": [
        53,
        1
      ]
    },
    {
      "id": 93,
      "plugin": "VultModulesFree",
      "version": "1.12",
      "model": "Lateralus",
      "params": [
        {
          "id": 0,
          "value": 0.633500516
        },
        {
          "id": 1,
          "value": 0.0
        },
        {
          "id": 2,
          "value": 0.0
        },
        {
          "id": 3,
          "value": 0.0
        },
        {
          "id": 4,
          "value": 1.32000017
        },
        {
          "id": 5,
          "value": 0.0
        },
        {
          "id": 6,
          "value": 0.0
        }
      ],
      "leftModuleId": 92,
      "pos": [
        61,
        1
      ]
    }
  ],
  "cables": [
    {
      "id": 342,
      "outputModuleId": 6,
      "outputId": 0,
      "inputModuleId": 83,
      "inputId": 0,
      "color": "#c9b70e"
    },
    {
      "id": 357,
      "outputModuleId": 5,
      "outputId": 1,
      "inputModuleId": 6,
      "inputId": 4,
      "color": "#c91847"
    },
    {
      "id": 360,
      "outputModuleId": 87,
      "outputId": 0,
      "inputModuleId": 86,
      "inputId": 0,
      "color": "#c9b70e"
    },
    {
      "id": 361,
      "outputModuleId": 88,
      "outputId": 0,
      "inputModuleId": 1,
      "inputId": 0,
      "color": "#0c8e15"
    },
    {
      "id": 362,
      "outputModuleId": 88,
      "outputId": 1,
      "inputModuleId": 1,
      "inputId": 1,
      "color": "#c91847"
    },
    {
      "id": 363,
      "outputModuleId": 86,
      "outputId": 0,
      "inputModuleId": 88,
      "inputId": 0,
      "color": "#0986ad"
    },
    {
      "id": 365,
      "outputModuleId": 5,
      "outputId": 1,
      "inputModuleId": 89,
      "inputId": 4,
      "color": "#c91847"
    },
    {
      "id": 367,
      "outputModuleId": 86,
      "outputId": 0,
      "inputModuleId": 90,
      "inputId": 0,
      "color": "#c9b70e"
    },
    {
      "id": 369,
      "outputModuleId": 5,
      "outputId": 0,
      "inputModuleId": 85,
      "inputId": 1,
      "color": "#c91847"
    },
    {
      "id": 359,
      "outputModuleId": 85,
      "outputId": 1,
      "inputModuleId": 87,
      "inputId": 1,
      "color": "#0986ad"
    },
    {
      "id": 374,
      "outputModuleId": 92,
      "outputId": 0,
      "inputModuleId": 7,
      "inputId": 1,
      "color": "#0986ad"
    },
    {
      "id": 375,
      "outputModuleId": 83,
      "outputId": 0,
      "inputModuleId": 92,
      "inputId": 4,
      "color": "#c9b70e"
    },
    {
      "id": 377,
      "outputModuleId": 92,
      "outputId": 0,
      "inputModuleId": 93,
      "inputId": 0,
      "color": "#c91847"
    },
    {
      "id": 378,
      "outputModuleId": 93,
      "outputId": 0,
      "inputModuleId": 7,
      "inputId": 0,
      "color": "#0986ad"
    },
    {
      "id": 379,
      "outputModuleId": 93,
      "outputId": 0,
      "inputModuleId": 87,
      "inputId": 0,
      "color": "#c9b70e"
    }
  ]
}