{
  "version": "1.0.0",
  "modules": [
    {
      "plugin": "Core",
      "version": "1.0.0",
      "model": "AudioInterface",
      "params": [],
      "data": {
        "audio": {
          "driver": 4,
          "deviceName": "JUCEJack",
          "offset": 0,
          "maxChannels": 8,
          "sampleRate": 48000,
          "blockSize": 512
        }
      },
      "leftModuleId": 140,
      "id": 63,
      "pos": [
        78,
        2
      ]
    },
    {
      "plugin": "Core",
      "version": "1.0.0",
      "model": "MIDIToCVInterface",
      "params": [],
      "data": {
        "channels": 3,
        "polyMode": 0,
        "clockDivision": 24,
        "lastPitch": 8192,
        "lastMod": 0,
        "midi": {
          "driver": 2,
          "deviceName": "Midi Through:Midi Through Port-0 14:0",
          "channel": -1
        }
      },
      "rightModuleId": 109,
      "id": 74,
      "pos": [
        0,
        0
      ]
    },
    {
      "plugin": "Fundamental",
      "version": "1.0.1",
      "model": "ADSR",
      "params": [
        {
          "id": 0,
          "value": 0.5
        },
        {
          "id": 1,
          "value": 0.5
        },
        {
          "id": 2,
          "value": 0.591499805
        },
        {
          "id": 3,
          "value": 0.320000052
        }
      ],
      "leftModuleId": 157,
      "rightModuleId": 111,
      "id": 76,
      "pos": [
        36,
        1
      ]
    },
    {
      "plugin": "mscHack",
      "version": "1.0.1",
      "model": "Mix_4_0_4",
      "params": [
        {
          "id": 0,
          "value": 0.270499974
        },
        {
          "id": 1,
          "value": 1.0
        },
        {
          "id": 2,
          "value": 1.0
        },
        {
          "id": 3,
          "value": 1.0
        },
        {
          "id": 4,
          "value": 0.0
        },
        {
          "id": 5,
          "value": 0.0
        },
        {
          "id": 6,
          "value": 0.0
        },
        {
          "id": 7,
          "value": 0.0
        },
        {
          "id": 8,
          "value": 0.0209999997
        },
        {
          "id": 9,
          "value": 0.0
        },
        {
          "id": 10,
          "value": 0.0
        },
        {
          "id": 11,
          "value": 0.0
        },
        {
          "id": 12,
          "value": 0.0
        },
        {
          "id": 13,
          "value": 0.0
        },
        {
          "id": 14,
          "value": 0.0
        },
        {
          "id": 15,
          "value": 0.0
        },
        {
          "id": 16,
          "value": 0.0
        },
        {
          "id": 17,
          "value": 0.5
        },
        {
          "id": 18,
          "value": 0.5
        },
        {
          "id": 19,
          "value": 0.5
        },
        {
          "id": 20,
          "value": 0.5
        },
        {
          "id": 21,
          "value": 0.5
        },
        {
          "id": 22,
          "value": 0.5
        },
        {
          "id": 23,
          "value": 0.5
        },
        {
          "id": 24,
          "value": 0.5
        },
        {
          "id": 25,
          "value": 0.5
        },
        {
          "id": 26,
          "value": 0.5
        },
        {
          "id": 27,
          "value": 0.5
        },
        {
          "id": 28,
          "value": 0.5
        },
        {
          "id": 29,
          "value": 0.5
        },
        {
          "id": 30,
          "value": 0.5
        },
        {
          "id": 31,
          "value": 0.5
        },
        {
          "id": 32,
          "value": 0.5
        },
        {
          "id": 33,
          "value": 0.5
        },
        {
          "id": 34,
          "value": 0.5
        },
        {
          "id": 35,
          "value": 0.5
        },
        {
          "id": 36,
          "value": 0.5
        },
        {
          "id": 37,
          "value": 0.5
        },
        {
          "id": 38,
          "value": 0.5
        },
        {
          "id": 39,
          "value": 0.5
        },
        {
          "id": 40,
          "value": 0.5
        },
        {
          "id": 41,
          "value": 0.0
        },
        {
          "id": 42,
          "value": 0.0
        },
        {
          "id": 43,
          "value": 0.0
        },
        {
          "id": 44,
          "value": 1.0
        },
        {
          "id": 45,
          "value": 0.0
        },
        {
          "id": 46,
          "value": 0.0
        },
        {
          "id": 47,
          "value": 0.0
        },
        {
          "id": 48,
          "value": 1.0
        },
        {
          "id": 49,
          "value": 0.0
        },
        {
          "id": 50,
          "value": 0.0
        },
        {
          "id": 51,
          "value": 0.0
        },
        {
          "id": 52,
          "value": 1.0
        },
        {
          "id": 53,
          "value": 0.0
        },
        {
          "id": 54,
          "value": 0.0
        },
        {
          "id": 55,
          "value": 0.0
        },
        {
          "id": 56,
          "value": 0.0
        },
        {
          "id": 57,
          "value": 0.0
        },
        {
          "id": 58,
          "value": 0.0
        },
        {
          "id": 59,
          "value": 0.0
        },
        {
          "id": 60,
          "value": 1.0
        }
      ],
      "data": {
        "m_bMuteStates": [
          false,
          false,
          false,
          false,
          false,
          false,
          false,
          false
        ],
        "m_bSoloStates": [
          false,
          false,
          false,
          false,
          false,
          false,
          false,
          false
        ],
        "m_bGroupPreMute": [
          true
        ],
        "m_bGainLevelx2": [
          false
        ],
        "m_bPreFader": [
          false,
          false,
          false,
          false
        ],
        "m_bAuxIgnoreSolo": [
          false
        ]
      },
      "leftModuleId": 113,
      "rightModuleId": 122,
      "id": 78,
      "pos": [
        18,
        0
      ]
    },
    {
      "plugin": "Fundamental",
      "version": "1.0.1",
      "model": "VCA-1",
      "params": [
        {
          "id": 0,
          "value": 1.0
        },
        {
          "id": 1,
          "value": 1.0
        }
      ],
      "leftModuleId": 116,
      "rightModuleId": 112,
      "id": 79,
      "pos": [
        60,
        1
      ]
    },
    {
      "plugin": "Fundamental",
      "version": "1.0.1",
      "model": "Split",
      "params": [],
      "leftModuleId": 74,
      "rightModuleId": 113,
      "id": 109,
      "pos": [
        8,
        0
      ]
    },
    {
      "plugin": "Fundamental",
      "version": "1.0.1",
      "model": "ADSR",
      "params": [
        {
          "id": 0,
          "value": 0.5
        },
        {
          "id": 1,
          "value": 0.5
        },
        {
          "id": 2,
          "value": 0.613999963
        },
        {
          "id": 3,
          "value": 0.287000299
        }
      ],
      "leftModuleId": 76,
      "rightModuleId": 116,
      "id": 111,
      "pos": [
        44,
        1
      ]
    },
    {
      "plugin": "Fundamental",
      "version": "1.0.1",
      "model": "VCA-1",
      "params": [
        {
          "id": 0,
          "value": 1.0
        },
        {
          "id": 1,
          "value": 1.0
        }
      ],
      "leftModuleId": 79,
      "rightModuleId": 117,
      "id": 112,
      "pos": [
        63,
        1
      ]
    },
    {
      "plugin": "Fundamental",
      "version": "1.0.1",
      "model": "Split",
      "params": [],
      "leftModuleId": 109,
      "rightModuleId": 78,
      "id": 113,
      "pos": [
        13,
        0
      ]
    },
    {
      "plugin": "Fundamental",
      "version": "1.0.1",
      "model": "ADSR",
      "params": [
        {
          "id": 0,
          "value": 0.5
        },
        {
          "id": 1,
          "value": 0.5
        },
        {
          "id": 2,
          "value": 0.620000064
        },
        {
          "id": 3,
          "value": 0.317000151
        }
      ],
      "leftModuleId": 111,
      "rightModuleId": 79,
      "id": 116,
      "pos": [
        52,
        1
      ]
    },
    {
      "plugin": "Fundamental",
      "version": "1.0.1",
      "model": "VCA-1",
      "params": [
        {
          "id": 0,
          "value": 1.0
        },
        {
          "id": 1,
          "value": 1.0
        }
      ],
      "leftModuleId": 112,
      "id": 117,
      "pos": [
        66,
        1
      ]
    },
    {
      "plugin": "Valley",
      "version": "1.0.1",
      "model": "Plateau",
      "params": [
        {
          "id": 0,
          "value": 1.0
        },
        {
          "id": 1,
          "value": 0.300000012
        },
        {
          "id": 2,
          "value": 0.0
        },
        {
          "id": 3,
          "value": 9.03999805
        },
        {
          "id": 4,
          "value": 9.6099987
        },
        {
          "id": 5,
          "value": 0.560500205
        },
        {
          "id": 6,
          "value": 10.0
        },
        {
          "id": 7,
          "value": 0.185490429
        },
        {
          "id": 8,
          "value": 7.82499886
        },
        {
          "id": 9,
          "value": 10.0
        },
        {
          "id": 10,
          "value": 0.0
        },
        {
          "id": 11,
          "value": 0.5
        },
        {
          "id": 12,
          "value": 0.5
        },
        {
          "id": 13,
          "value": 0.0
        },
        {
          "id": 14,
          "value": 0.0
        },
        {
          "id": 15,
          "value": 0.0
        },
        {
          "id": 16,
          "value": 0.0
        },
        {
          "id": 17,
          "value": 0.0
        },
        {
          "id": 18,
          "value": 0.0
        },
        {
          "id": 19,
          "value": 0.0
        },
        {
          "id": 20,
          "value": 0.0
        },
        {
          "id": 21,
          "value": 0.0
        },
        {
          "id": 22,
          "value": 0.0
        },
        {
          "id": 23,
          "value": 0.0
        },
        {
          "id": 24,
          "value": 0.0
        },
        {
          "id": 25,
          "value": 0.0
        },
        {
          "id": 26,
          "value": 0.0
        },
        {
          "id": 27,
          "value": 0.0
        },
        {
          "id": 28,
          "value": 0.0
        },
        {
          "id": 29,
          "value": 0.0
        },
        {
          "id": 30,
          "value": 1.0
        }
      ],
      "data": {
        "frozen": false,
        "freezeToggle": false,
        "panelStyle": 0,
        "tuned": 0,
        "diffuseInput": 1,
        "preDelayCVSens": 0,
        "inputSensitivity": 0,
        "outputSaturation": 0
      },
      "leftModuleId": 78,
      "rightModuleId": 158,
      "id": 122,
      "pos": [
        38,
        0
      ]
    },
    {
      "plugin": "mscHack",
      "version": "1.0.1",
      "model": "Mix_4_0_4",
      "params": [
        {
          "id": 0,
          "value": 0.5
        },
        {
          "id": 1,
          "value": 1.0
        },
        {
          "id": 2,
          "value": 0.0
        },
        {
          "id": 3,
          "value": 0.0
        },
        {
          "id": 4,
          "value": 1.0
        },
        {
          "id": 5,
          "value": 0.0
        },
        {
          "id": 6,
          "value": 0.0
        },
        {
          "id": 7,
          "value": 0.0
        },
        {
          "id": 8,
          "value": 0.0209999997
        },
        {
          "id": 9,
          "value": 0.0
        },
        {
          "id": 10,
          "value": 0.0
        },
        {
          "id": 11,
          "value": 0.0
        },
        {
          "id": 12,
          "value": 0.0
        },
        {
          "id": 13,
          "value": 0.0
        },
        {
          "id": 14,
          "value": 0.0
        },
        {
          "id": 15,
          "value": 0.0
        },
        {
          "id": 16,
          "value": 0.0
        },
        {
          "id": 17,
          "value": 0.5
        },
        {
          "id": 18,
          "value": 0.5
        },
        {
          "id": 19,
          "value": 0.5
        },
        {
          "id": 20,
          "value": 0.5
        },
        {
          "id": 21,
          "value": 0.5
        },
        {
          "id": 22,
          "value": 0.5
        },
        {
          "id": 23,
          "value": 0.5
        },
        {
          "id": 24,
          "value": 0.5
        },
        {
          "id": 25,
          "value": 0.5
        },
        {
          "id": 26,
          "value": 0.5
        },
        {
          "id": 27,
          "value": 0.5
        },
        {
          "id": 28,
          "value": 0.5
        },
        {
          "id": 29,
          "value": 0.5
        },
        {
          "id": 30,
          "value": 0.5
        },
        {
          "id": 31,
          "value": 0.5
        },
        {
          "id": 32,
          "value": 0.5
        },
        {
          "id": 33,
          "value": 0.5
        },
        {
          "id": 34,
          "value": 0.5
        },
        {
          "id": 35,
          "value": 0.5
        },
        {
          "id": 36,
          "value": 0.5
        },
        {
          "id": 37,
          "value": 0.5
        },
        {
          "id": 38,
          "value": 0.5
        },
        {
          "id": 39,
          "value": 0.5
        },
        {
          "id": 40,
          "value": 0.5
        },
        {
          "id": 41,
          "value": 0.0
        },
        {
          "id": 42,
          "value": 0.0
        },
        {
          "id": 43,
          "value": 0.0
        },
        {
          "id": 44,
          "value": 1.0
        },
        {
          "id": 45,
          "value": 0.0
        },
        {
          "id": 46,
          "value": 0.0
        },
        {
          "id": 47,
          "value": 0.0
        },
        {
          "id": 48,
          "value": 1.0
        },
        {
          "id": 49,
          "value": 0.0
        },
        {
          "id": 50,
          "value": 0.0
        },
        {
          "id": 51,
          "value": 0.0
        },
        {
          "id": 52,
          "value": 1.0
        },
        {
          "id": 53,
          "value": 0.0
        },
        {
          "id": 54,
          "value": 0.0
        },
        {
          "id": 55,
          "value": 0.0
        },
        {
          "id": 56,
          "value": 0.0
        },
        {
          "id": 57,
          "value": 0.0
        },
        {
          "id": 58,
          "value": 0.0
        },
        {
          "id": 59,
          "value": 0.0
        },
        {
          "id": 60,
          "value": 1.0
        }
      ],
      "data": {
        "m_bMuteStates": [
          false,
          false,
          false,
          false,
          false,
          false,
          false,
          false
        ],
        "m_bSoloStates": [
          false,
          false,
          false,
          false,
          false,
          false,
          false,
          false
        ],
        "m_bGroupPreMute": [
          true
        ],
        "m_bGainLevelx2": [
          false
        ],
        "m_bPreFader": [
          false,
          false,
          false,
          false
        ],
        "m_bAuxIgnoreSolo": [
          false
        ]
      },
      "rightModuleId": 63,
      "id": 140,
      "pos": [
        58,
        2
      ]
    },
    {
      "plugin": "AudibleInstruments",
      "version": "1.0.0",
      "model": "Plaits",
      "params": [
        {
          "id": 0,
          "value": 0.0
        },
        {
          "id": 1,
          "value": 0.0
        },
        {
          "id": 2,
          "value": 0.0
        },
        {
          "id": 3,
          "value": 0.253999949
        },
        {
          "id": 4,
          "value": 0.5
        },
        {
          "id": 5,
          "value": 0.5
        },
        {
          "id": 6,
          "value": 0.0
        },
        {
          "id": 7,
          "value": 0.0
        },
        {
          "id": 8,
          "value": 0.0
        }
      ],
      "data": {
        "lowCpu": false,
        "model": 2,
        "lpgColor": 0.5,
        "decay": 0.5
      },
      "rightModuleId": 156,
      "id": 155,
      "pos": [
        0,
        1
      ]
    },
    {
      "plugin": "AudibleInstruments",
      "version": "1.0.0",
      "model": "Plaits",
      "params": [
        {
          "id": 0,
          "value": 0.0
        },
        {
          "id": 1,
          "value": 0.0
        },
        {
          "id": 2,
          "value": 0.0
        },
        {
          "id": 3,
          "value": 0.254000008
        },
        {
          "id": 4,
          "value": 0.5
        },
        {
          "id": 5,
          "value": 0.5
        },
        {
          "id": 6,
          "value": 0.0
        },
        {
          "id": 7,
          "value": 0.0
        },
        {
          "id": 8,
          "value": 0.0
        }
      ],
      "data": {
        "lowCpu": false,
        "model": 2,
        "lpgColor": 0.5,
        "decay": 0.5
      },
      "leftModuleId": 155,
      "rightModuleId": 157,
      "id": 156,
      "pos": [
        12,
        1
      ]
    },
    {
      "plugin": "AudibleInstruments",
      "version": "1.0.0",
      "model": "Plaits",
      "params": [
        {
          "id": 0,
          "value": 0.0
        },
        {
          "id": 1,
          "value": 0.0
        },
        {
          "id": 2,
          "value": 0.0
        },
        {
          "id": 3,
          "value": 0.254000008
        },
        {
          "id": 4,
          "value": 0.5
        },
        {
          "id": 5,
          "value": 0.5
        },
        {
          "id": 6,
          "value": 0.0
        },
        {
          "id": 7,
          "value": 0.0
        },
        {
          "id": 8,
          "value": 0.0
        }
      ],
      "data": {
        "lowCpu": false,
        "model": 2,
        "lpgColor": 0.5,
        "decay": 0.5
      },
      "leftModuleId": 156,
      "rightModuleId": 76,
      "id": 157,
      "pos": [
        24,
        1
      ]
    },
    {
      "plugin": "ImpromptuModular",
      "version": "1.0.1",
      "model": "Tact1",
      "params": [
        {
          "id": 0,
          "value": -0.519999981
        },
        {
          "id": 1,
          "value": 1.0
        },
        {
          "id": 2,
          "value": 0.200000003
        },
        {
          "id": 3,
          "value": 0.0
        }
      ],
      "data": {
        "panelTheme": 0,
        "cv": 0.0,
        "rateMultiplier": 1.0
      },
      "leftModuleId": 122,
      "id": 158,
      "pos": [
        50,
        0
      ]
    }
  ],
  "id": 75,
  "cables": [
    {
      "outputModuleId": 79,
      "outputId": 0,
      "inputModuleId": 78,
      "inputId": 0,
      "color": "#0c8e15"
    },
    {
      "outputModuleId": 76,
      "outputId": 0,
      "inputModuleId": 79,
      "inputId": 0,
      "color": "#c91847"
    },
    {
      "outputModuleId": 112,
      "outputId": 0,
      "inputModuleId": 78,
      "inputId": 1,
      "color": "#c9b70e"
    },
    {
      "outputModuleId": 109,
      "outputId": 1,
      "inputModuleId": 111,
      "inputId": 4,
      "color": "#c91847"
    },
    {
      "outputModuleId": 74,
      "outputId": 0,
      "inputModuleId": 113,
      "inputId": 0,
      "color": "#c9b70e"
    },
    {
      "outputModuleId": 109,
      "outputId": 0,
      "inputModuleId": 76,
      "inputId": 4,
      "color": "#0c8e15"
    },
    {
      "outputModuleId": 116,
      "outputId": 0,
      "inputModuleId": 117,
      "inputId": 0,
      "color": "#c9b70e"
    },
    {
      "outputModuleId": 117,
      "outputId": 0,
      "inputModuleId": 78,
      "inputId": 2,
      "color": "#0986ad"
    },
    {
      "outputModuleId": 109,
      "outputId": 2,
      "inputModuleId": 116,
      "inputId": 4,
      "color": "#0c8e15"
    },
    {
      "outputModuleId": 74,
      "outputId": 1,
      "inputModuleId": 109,
      "inputId": 0,
      "color": "#0986ad"
    },
    {
      "outputModuleId": 78,
      "outputId": 0,
      "inputModuleId": 122,
      "inputId": 0,
      "color": "#0986ad"
    },
    {
      "outputModuleId": 78,
      "outputId": 1,
      "inputModuleId": 122,
      "inputId": 1,
      "color": "#c9b70e"
    },
    {
      "outputModuleId": 111,
      "outputId": 0,
      "inputModuleId": 112,
      "inputId": 0,
      "color": "#0c8e15"
    },
    {
      "outputModuleId": 122,
      "outputId": 0,
      "inputModuleId": 140,
      "inputId": 0,
      "color": "#0986ad"
    },
    {
      "outputModuleId": 122,
      "outputId": 1,
      "inputModuleId": 140,
      "inputId": 8,
      "color": "#c9b70e"
    },
    {
      "outputModuleId": 140,
      "outputId": 0,
      "inputModuleId": 63,
      "inputId": 0,
      "color": "#0c8e15"
    },
    {
      "outputModuleId": 140,
      "outputId": 1,
      "inputModuleId": 63,
      "inputId": 1,
      "color": "#c91847"
    },
    {
      "outputModuleId": 113,
      "outputId": 1,
      "inputModuleId": 156,
      "inputId": 7,
      "color": "#0986ad"
    },
    {
      "outputModuleId": 156,
      "outputId": 0,
      "inputModuleId": 112,
      "inputId": 1,
      "color": "#0986ad"
    },
    {
      "outputModuleId": 157,
      "outputId": 0,
      "inputModuleId": 117,
      "inputId": 1,
      "color": "#c91847"
    },
    {
      "outputModuleId": 113,
      "outputId": 2,
      "inputModuleId": 157,
      "inputId": 7,
      "color": "#c91847"
    },
    {
      "outputModuleId": 113,
      "outputId": 0,
      "inputModuleId": 155,
      "inputId": 7,
      "color": "#0c8e15"
    },
    {
      "outputModuleId": 155,
      "outputId": 0,
      "inputModuleId": 79,
      "inputId": 1,
      "color": "#c91847"
    },
    {
      "outputModuleId": 158,
      "outputId": 0,
      "inputModuleId": 116,
      "inputId": 3,
      "color": "#c9b70e"
    },
    {
      "outputModuleId": 158,
      "outputId": 0,
      "inputModuleId": 111,
      "inputId": 3,
      "color": "#0c8e15"
    },
    {
      "outputModuleId": 158,
      "outputId": 0,
      "inputModuleId": 76,
      "inputId": 3,
      "color": "#c91847"
    },
    {
      "outputModuleId": 63,
      "outputId": 1,
      "inputModuleId": 140,
      "inputId": 11,
      "color": "#0986ad"
    },
    {
      "outputModuleId": 63,
      "outputId": 0,
      "inputModuleId": 140,
      "inputId": 3,
      "color": "#c91847"
    }
  ]
}