{
  "version": "1.1.6",
  "modules": [
    {
      "id": 1,
      "plugin": "Core",
      "version": "1.1.6",
      "model": "AudioInterface",
      "params": [],
      "leftModuleId": 79,
      "data": {
        "audio": {
          "driver": 4,
          "deviceName": "system",
          "offset": 0,
          "maxChannels": 8,
          "sampleRate": 48000,
          "blockSize": 512
        }
      },
      "pos": [
        43,
        0
      ]
    },
    {
      "id": 5,
      "plugin": "Core",
      "version": "1.1.6",
      "model": "MIDIToCVInterface",
      "params": [],
      "data": {
        "channels": 1,
        "polyMode": 0,
        "clockDivision": 24,
        "lastPitch": 8192,
        "lastMod": 0,
        "midi": {
          "driver": -11,
          "deviceName": "QWERTY keyboard (US)",
          "channel": -1
        }
      },
      "pos": [
        0,
        0
      ]
    },
    {
      "id": 6,
      "plugin": "Fundamental",
      "version": "1.4.0",
      "model": "ADSR",
      "params": [
        {
          "id": 0,
          "value": 0.0749999508
        },
        {
          "id": 1,
          "value": 0.205500007
        },
        {
          "id": 2,
          "value": 0.0
        },
        {
          "id": 3,
          "value": 0.576500058
        }
      ],
      "rightModuleId": 83,
      "pos": [
        7,
        1
      ]
    },
    {
      "id": 7,
      "plugin": "Fundamental",
      "version": "1.4.0",
      "model": "Scope",
      "params": [
        {
          "id": 0,
          "value": 0.0
        },
        {
          "id": 1,
          "value": 0.0
        },
        {
          "id": 2,
          "value": 0.0
        },
        {
          "id": 3,
          "value": 0.0
        },
        {
          "id": 4,
          "value": 14.0
        },
        {
          "id": 5,
          "value": 0.0
        },
        {
          "id": 6,
          "value": 0.0
        },
        {
          "id": 7,
          "value": 0.0
        }
      ],
      "leftModuleId": 83,
      "rightModuleId": 84,
      "data": {
        "lissajous": 0,
        "external": 0
      },
      "pos": [
        25,
        1
      ]
    },
    {
      "id": 79,
      "plugin": "Fundamental",
      "version": "1.4.0",
      "model": "VCA-1",
      "params": [
        {
          "id": 0,
          "value": 0.701499939
        },
        {
          "id": 1,
          "value": 1.0
        }
      ],
      "leftModuleId": 86,
      "rightModuleId": 1,
      "pos": [
        40,
        0
      ]
    },
    {
      "id": 83,
      "plugin": "VultModulesFree",
      "version": "1.14",
      "model": "Debriatus",
      "params": [
        {
          "id": 0,
          "value": 0.257499844
        },
        {
          "id": 1,
          "value": 0.0
        },
        {
          "id": 2,
          "value": 0.586500049
        },
        {
          "id": 3,
          "value": 0.232499957
        },
        {
          "id": 4,
          "value": -1.0
        },
        {
          "id": 5,
          "value": 0.313000023
        },
        {
          "id": 6,
          "value": 1.0
        },
        {
          "id": 7,
          "value": 1.0
        }
      ],
      "leftModuleId": 6,
      "rightModuleId": 7,
      "pos": [
        15,
        1
      ]
    },
    {
      "id": 84,
      "plugin": "Fundamental",
      "version": "1.4.0",
      "model": "VCA-1",
      "params": [
        {
          "id": 0,
          "value": 1.0
        },
        {
          "id": 1,
          "value": 1.0
        }
      ],
      "leftModuleId": 7,
      "pos": [
        38,
        1
      ]
    },
    {
      "id": 85,
      "plugin": "NYSTHI",
      "version": "1.0.17",
      "model": "FixedVoltageSource",
      "params": [],
      "data": {
        "m_unipolar": false,
        "m_abs_value": false,
        "m_scale_mode": 1,
        "m_poly_out": 1,
        "m_ltf0": "10.0",
        "m_ltf1": "0.0",
        "m_ltf2": "0.0",
        "m_ltf3": "0.0",
        "m_ltf4": "0.0",
        "m_ltf5": "0.0",
        "m_ltf6": "0.0",
        "m_ltf7": "0.0",
        "m_ltf8": "0.0",
        "m_ltf9": "0.0",
        "m_ltf10": "0.0",
        "m_ltf11": "0.0",
        "m_ltf12": "0.0",
        "m_ltf13": "0.0",
        "m_ltf14": "0.0",
        "m_ltf15": "0.0"
      },
      "pos": [
        51,
        1
      ]
    },
    {
      "id": 86,
      "plugin": "ML_modules",
      "version": "1.1.3",
      "model": "Sum8",
      "params": [],
      "rightModuleId": 79,
      "pos": [
        37,
        0
      ]
    }
  ],
  "cables": [
    {
      "id": 262,
      "outputModuleId": 5,
      "outputId": 1,
      "inputModuleId": 6,
      "inputId": 4,
      "color": "#c9b70e"
    },
    {
      "id": 271,
      "outputModuleId": 79,
      "outputId": 0,
      "inputModuleId": 1,
      "inputId": 0,
      "color": "#0c8e15"
    },
    {
      "id": 272,
      "outputModuleId": 79,
      "outputId": 0,
      "inputModuleId": 1,
      "inputId": 1,
      "color": "#c91847"
    },
    {
      "id": 284,
      "outputModuleId": 83,
      "outputId": 0,
      "inputModuleId": 7,
      "inputId": 0,
      "color": "#0986ad"
    },
    {
      "id": 287,
      "outputModuleId": 85,
      "outputId": 0,
      "inputModuleId": 84,
      "inputId": 1,
      "color": "#0986ad"
    },
    {
      "id": 288,
      "outputModuleId": 83,
      "outputId": 0,
      "inputModuleId": 84,
      "inputId": 0,
      "color": "#c9b70e"
    },
    {
      "id": 289,
      "outputModuleId": 84,
      "outputId": 0,
      "inputModuleId": 86,
      "inputId": 0,
      "color": "#c91847"
    },
    {
      "id": 290,
      "outputModuleId": 86,
      "outputId": 0,
      "inputModuleId": 79,
      "inputId": 0,
      "color": "#0986ad"
    },
    {
      "id": 291,
      "outputModuleId": 85,
      "outputId": 0,
      "inputModuleId": 79,
      "inputId": 1,
      "color": "#c9b70e"
    },
    {
      "id": 342,
      "outputModuleId": 6,
      "outputId": 0,
      "inputModuleId": 83,
      "inputId": 0,
      "color": "#c9b70e"
    },
    {
      "id": 343,
      "outputModuleId": 6,
      "outputId": 0,
      "inputModuleId": 7,
      "inputId": 1,
      "color": "#0c8e15"
    },
    {
      "id": 862,
      "outputModuleId": 5,
      "outputId": 6,
      "inputModuleId": 6,
      "inputId": 5,
      "color": "#c9b70e"
    }
  ]
}